<svg xmlns="http://www.w3.org/2000/svg" viewBox="0 0 57.58 7.99"><defs><style>.cls-1{fill:#1d1d1b;}</style></defs><g id="Layer_2" data-name="Layer 2"><g id="Layer_2-2" data-name="Layer 2"><path class="cls-1" d="M57.56,4c-.63-.44-4.32-2.62-6.65-1.31A3.22,3.22,0,0,0,52.55.23s0-.05,0-.05c-1.82-.48-2.44.06-3,1A5.63,5.63,0,0,1,47.06,3.6L0,4l47.06.4a5.63,5.63,0,0,1,2.43,2.38c.58,1,1.2,1.52,3,1,0,0,0,0,0,0a3.22,3.22,0,0,0-1.64-2.42c2.33,1.31,6-.87,6.65-1.31C57.59,4,57.58,4,57.56,4Zm-8.15.38c.69.6.69,1.38,1.28,2.08-.94-.16-1.57-1.8-2.82-2.43,1.25-.62,1.88-2.26,2.82-2.42-.59.69-.59,1.48-1.28,2.08A4.46,4.46,0,0,1,53.53,4,4.44,4.44,0,0,1,49.41,4.34Z"/></g></g></svg>