<svg xmlns="http://www.w3.org/2000/svg" viewBox="0 0 252.12 107.71"><defs><style>.cls-1,.cls-2{fill:#fdd579;}.cls-1{stroke:#99252e;stroke-miterlimit:10;stroke-width:0.5px;}</style></defs><g id="Layer_2" data-name="Layer 2"><g id="Layer_2-2" data-name="Layer 2"><path class="cls-1" d="M33.72,2c-.31-1.27-1.4-1.78-3-1.78C27.28.25,21.25,2.9,17.07,5,14.22,6.43,12,7.94,11.63,8.7a2.13,2.13,0,0,0-.23,1A1.53,1.53,0,0,0,13,11,1.84,1.84,0,0,0,14.66,10a.58.58,0,0,0,.07-.21l3.62-1.83A63.39,63.39,0,0,1,26.49,4.4c2.14-.71,3.84-1.27,4-1.27l0,.12c-.13,1.25-3.52,9.14-8,19C13.87,41.69,1.19,68.1.5,69.3a1.42,1.42,0,0,0-.25.89,1.46,1.46,0,0,0,1.5,1.48,1.87,1.87,0,0,0,1.58-.92C4.35,69,33,9.44,33.74,2.52A3.4,3.4,0,0,0,33.72,2Z"/><path class="cls-1" d="M58.77,48.23a7.78,7.78,0,0,0-.31,2,3.39,3.39,0,0,0,1.48,3,3.71,3.71,0,0,0,2.08.59,7.33,7.33,0,0,0,1.18-.13c2.57-.54,6.43-2.85,10.94-7.15a1.66,1.66,0,0,0,.48-1.15A1.57,1.57,0,0,0,73,43.82a1.53,1.53,0,0,0-1.09.44c-4,3.86-7.33,5.9-9.39,6.33a3.51,3.51,0,0,1-.61.08.77.77,0,0,1-.28-.05s0-.15,0-.38v-.05c0-1.35,1-3.69,3.18-6.95a3.59,3.59,0,0,0,.74-1.91,1.45,1.45,0,0,0-.71-1.25,1.13,1.13,0,0,0-.64-.18,3.8,3.8,0,0,0-2.08.92A2.06,2.06,0,0,0,60,39.11h-.23a4.77,4.77,0,0,0-2.41,1,18.83,18.83,0,0,0-3.77,3.9,2.06,2.06,0,0,0-.33.17c-7.46,5.68-10.16,7.51-10.49,7.51h0l2-4.07a32.87,32.87,0,0,0,1.91-4.43A6.13,6.13,0,0,0,47,41.35,2.22,2.22,0,0,0,45.25,39a2.6,2.6,0,0,0-.64-.1c-2,0-4.83,2.39-7.66,5.29,4.71-8.35,10-17.87,11.66-22.35l.08-.07a.21.21,0,0,0,.07-.13.19.19,0,0,0,0-.13,6,6,0,0,0,.38-1.63.64.64,0,0,0-.15-.48,1.55,1.55,0,0,0-1.12-.56,2,2,0,0,0-1.35.69A1.49,1.49,0,0,0,46,20.69a1.58,1.58,0,0,0,.46,1.12l.2.15c-.71,1.88-7.33,11.58-12.24,20.31-.36.63-.71,1.26-1,1.87h0a53.29,53.29,0,0,1-8.58,5.35,11.34,11.34,0,0,1-3.13,1,4.14,4.14,0,0,1-.56,0,.46.46,0,0,1-.05-.23v-.13c0-1.81,3.28-5.06,5.9-7a7.08,7.08,0,0,1,.77-.53,1.51,1.51,0,0,0,.89,1,1.43,1.43,0,0,0,.63.13,1.55,1.55,0,0,0,1.46-.94,4.94,4.94,0,0,0,.45-1.86,2.43,2.43,0,0,0-.17-.89,1.92,1.92,0,0,0-1.86-1.27,3.93,3.93,0,0,0-1.35.28,11.4,11.4,0,0,0-2.67,1.52c-3.21,2.29-7.23,6.67-7.23,9.67l0,.31A3.51,3.51,0,0,0,18.25,52a3.14,3.14,0,0,0,3.08,1.71,5.09,5.09,0,0,0,.66,0,14.23,14.23,0,0,0,4.09-1.29,41.92,41.92,0,0,0,3.86-2.11c-.82,1.49-1.51,2.75-2,3.66a4,4,0,0,0-.56,1.8,1.44,1.44,0,0,0,.84,1.33,1.17,1.17,0,0,0,.56.13c1.17,0,2.52-1.61,4.3-3.77C34.08,52.22,42.6,42,43.54,42a.1.1,0,0,1,.11.1l0,.21a33.09,33.09,0,0,1-1.76,4c-1,2.19-2.09,4.33-2.09,5.91a2.31,2.31,0,0,0,.44,1.45,1.79,1.79,0,0,0,1.55.66c1.6,0,4.35-1.22,8.8-4.23a3.42,3.42,0,0,0,0,.44,1.63,1.63,0,0,0,1.24,1.65,1,1,0,0,0,.38,0c1.4,0,3.9-1.91,6.37-4.07Zm.1-5.3c-.08.26-.18.56-.31.89L55.69,46.5A15.82,15.82,0,0,1,58.87,42.93Z"/><path class="cls-1" d="M164.64,102.37h-.11a1.65,1.65,0,0,0-1.6,1.65v0c0,.08,0,.05,0,.08v0c0,.08-.18.11-.38.11a12.48,12.48,0,0,1-2.88-.69,58.12,58.12,0,0,1-8.73-4,275.78,275.78,0,0,1-32.07-20.85c22.55-3.89,43.35-12,45.51-26.34a15.23,15.23,0,0,0,.18-2.39,13.92,13.92,0,0,0-5.45-11,25.08,25.08,0,0,0-11.7-5,37.07,37.07,0,0,0-6.42-.54,44.37,44.37,0,0,0-8.47.84,43.47,43.47,0,0,0-32.2,25.91,1.87,1.87,0,0,0-.13.64,1.69,1.69,0,0,0,1,1.53,2,2,0,0,0,.63.13,1.65,1.65,0,0,0,1.53-1,40.22,40.22,0,0,1,29.8-24A41.32,41.32,0,0,1,141,36.8a34.47,34.47,0,0,1,5.93.49,22.09,22.09,0,0,1,10.18,4.25,10.81,10.81,0,0,1,4.22,8.55,10.25,10.25,0,0,1-.13,1.83c-1.91,12.65-21.3,20-42.55,23.6,1.42-4.46,2.7-8.79,3.71-12.5a73,73,0,0,0,1.86-8.5,14.29,14.29,0,0,0,.13-1.73c0-2-.64-3.18-2.09-3.18l-.51,0a3.7,3.7,0,0,0-1.93,1.17,1.74,1.74,0,0,0-.48,1.17,1.7,1.7,0,0,0,.48,1.17,1.79,1.79,0,0,0,1.17.48l.36,0c-.21.18-.39.36-.41.51a67.22,67.22,0,0,1-1.78,8.07c-1.1,4.12-2.57,9-4.15,13.92-6.52,1-13.11,1.6-19.34,2-3.9.2-7.64.33-11.15.33a124.68,124.68,0,0,1-13.62-.66c-5.6-.61-9.08-1.35-9.14-2,0,0,.18,0,.54-.25a1.63,1.63,0,0,0,.41-2.29,1.64,1.64,0,0,0-1.35-.71,1.62,1.62,0,0,0-.94.3,3.74,3.74,0,0,0-1.94,3v.13c.13,2.55,4.73,4.33,12.06,5.14a132.83,132.83,0,0,0,14.21.66c3.48,0,7.23-.1,11.09-.3,5.83-.33,12-.92,18-1.81-4,12.4-8.37,24.33-8.88,25.38a1.44,1.44,0,0,0-.18.71,1.69,1.69,0,0,0,.94,1.5,1.74,1.74,0,0,0,.71.15,1.66,1.66,0,0,0,1.5-.94c.51-1.07,4.84-12.93,8.91-25.32a264.15,264.15,0,0,0,32.58,21.48,61.49,61.49,0,0,0,9.27,4.2,12.46,12.46,0,0,0,3.81.74,3.78,3.78,0,0,0,2.85-1,3.12,3.12,0,0,0,.84-2.27v-.23A1.57,1.57,0,0,0,164.64,102.37Z"/><path class="cls-1" d="M158.76,68.16a2.79,2.79,0,0,0-.25,1.12,1.56,1.56,0,0,0,1.73,1.63,4.72,4.72,0,0,0,3.89-2.75,2.87,2.87,0,0,0,.28-1.12,1.58,1.58,0,0,0-1.75-1.6A4.75,4.75,0,0,0,158.76,68.16Z"/><path class="cls-1" d="M251.36,78.47a1.47,1.47,0,0,0-1.07-.43,1.5,1.5,0,0,0-1.14.48c-5,5.24-6.88,7-7.31,7l-.08,0a1,1,0,0,1-.07-.53c0-.69.13-2,.25-3.31a37.32,37.32,0,0,0,.26-3.77c0-2.54-.59-4.71-3.08-5.19l-.54,0a9.12,9.12,0,0,0-4.78,2,5.07,5.07,0,0,0,.48-1.52l0-.16c-.16-.91-.64-1.37-1.45-1.37a3.47,3.47,0,0,0-.44,0,1.59,1.59,0,0,0-1.32,1.56l0,.28,0,.12c-.21.4-1.26,2.16-2.47,4.18a1.65,1.65,0,0,0-.46.3c-4,3.87-7.33,5.91-9.39,6.34a3.4,3.4,0,0,1-.61.08.77.77,0,0,1-.28-.05.94.94,0,0,1,0-.38v-.06c0-1.34,1-3.69,3.19-6.94a3.65,3.65,0,0,0,.73-1.91,1.45,1.45,0,0,0-.71-1.25,1.12,1.12,0,0,0-.63-.18,3.8,3.8,0,0,0-2.09.92,2.06,2.06,0,0,0-2.17-1.71H216a4.68,4.68,0,0,0-2.42,1,18.77,18.77,0,0,0-3.95,4.16c-7.23,5.74-10,7.67-10.43,7.67l0,0a.18.18,0,0,1,0-.13c0-1.12,4.84-7.89,6.21-9.85a2.58,2.58,0,0,0,.53-1.5,1.62,1.62,0,0,0-1.47-1.71,1.34,1.34,0,0,0-1,.56c-.48.49-11.78,11.89-12.44,11.89h0c0-.1,2.27-4.28,3.77-7a9.53,9.53,0,0,0,1.53-3.71,1.35,1.35,0,0,0-.44-1,1.59,1.59,0,0,0-1.06-.48,2.28,2.28,0,0,0-1.63.92,98.75,98.75,0,0,1-8,7.68c-.76.64-1.39,1.2-1.93,1.61q.33-1,.93-2.31l.34-.34a1.65,1.65,0,0,0,.46-1.12,1.1,1.1,0,0,0,0-.18c.62-1.24,1.37-2.65,2.31-4.27a1.42,1.42,0,0,0,.21-.79,1.62,1.62,0,0,0-.79-1.38,1.72,1.72,0,0,0-.79-.2,1.62,1.62,0,0,0-1.38.79c-1.25,2.19-2.21,4.05-2.94,5.62-4.22,4.23-6.17,5.88-6.68,5.88l-.07,0a.89.89,0,0,1-.18-.61c0-2.09,2.7-8.4,5.57-14.54.66-1.37,1.25-2.77,1.81-4.12q2.47-4.32,5.32-9.7a3.57,3.57,0,0,0,.43-1.52,1.44,1.44,0,0,0-.76-1.33,1.35,1.35,0,0,0-.67-.18c-1.09,0-1.75,1.4-1.83,1.56A178.21,178.21,0,0,1,172.15,74.7,2.66,2.66,0,0,0,170,72.94l-.49,0a4.32,4.32,0,0,0-2.18.72,14,14,0,0,0-4.27,4.78C157,83,154.6,84.6,154.21,84.6l-.05,0,0,0c0-.62,2.49-4.56,4.12-7.13.95-1.5,1.68-2.7,1.68-3.62a1.39,1.39,0,0,0-.35-1,1.59,1.59,0,0,0-1.12-.56,2.77,2.77,0,0,0-1.73.86,1.57,1.57,0,0,0-.51,1.15,1.72,1.72,0,0,0,.35,1,1.1,1.1,0,0,0-1,.4c-1.78,2.83-4.35,6.9-4.35,9.42a2.22,2.22,0,0,0,.41,1.38,1.9,1.9,0,0,0,1.65.71c1.46,0,3.8-.93,7.33-3.2a4.47,4.47,0,0,0-.1.93,3.08,3.08,0,0,0,.25,1.22,2.16,2.16,0,0,0,2.12,1.43,3.82,3.82,0,0,0,.84-.1l.1,0a8,8,0,0,0,2.92-1.68,20.88,20.88,0,0,0,2.09-2,1.57,1.57,0,0,0,.59.13,1.55,1.55,0,0,0,1.45-1c.35-.89.66-1.71.89-2.47l.92-1.17a19.13,19.13,0,0,0-1,5.16,3.23,3.23,0,0,0,.72,2.35,2.16,2.16,0,0,0,1.57.61c1.29,0,3.09-.84,5.5-2.74l0,.4a2.08,2.08,0,0,0,1,1.68,2.63,2.63,0,0,0,.59.22l.25,0c1.17,0,3.23-1.2,5.7-3.31.64-.51,1.3-1.12,2-1.76a11.17,11.17,0,0,0-1,3.75,2.07,2.07,0,0,0,.51,1.5,1.42,1.42,0,0,0,1,.38c1.32,0,3.66-1.22,7.43-4.35a8.43,8.43,0,0,0-.84,3.15,2.09,2.09,0,0,0,.38,1.28,1.9,1.9,0,0,0,1.55.63c1.62,0,4.32-1.16,8.56-4.12v.08A1.63,1.63,0,0,0,208,85.9a1,1,0,0,0,.39,0c1.4,0,3.89-1.91,6.36-4.07L215,82a8.37,8.37,0,0,0-.31,2,3.39,3.39,0,0,0,1.48,3,3.74,3.74,0,0,0,2.09.58,7.26,7.26,0,0,0,1.17-.12,15.87,15.87,0,0,0,5-2.35,3.12,3.12,0,0,0-.24,1.07,1.18,1.18,0,0,0,.54,1,1.28,1.28,0,0,0,.76.25c.69,0,1.45-.58,2.34-1.88a37.38,37.38,0,0,1,6.42-7.36c1.91-1.63,3.38-2.44,4.12-2.44h.15c.41.08.54.81.54,1.86s-.13,2.39-.26,3.66c-.1,1.1-.23,2.17-.23,3.13a4.36,4.36,0,0,0,1,3.31,2.11,2.11,0,0,0,1.5.59c1.94,0,5.07-2.09,10.34-7.64a1.57,1.57,0,0,0,.43-1.07A1.58,1.58,0,0,0,251.36,78.47ZM168.92,79a30.23,30.23,0,0,1-4.18,4.32,6.54,6.54,0,0,1-.78.61,24.58,24.58,0,0,1,1.5-3.32l.12-.09a1.6,1.6,0,0,0,.63-1.15,10,10,0,0,1,2.81-3l.25-.15a2.74,2.74,0,0,1,.06.56A8.41,8.41,0,0,1,168.92,79Zm45.87-1.43-2.88,2.67a16,16,0,0,1,3.18-3.56C215,76.92,214.91,77.22,214.79,77.55Z"/><path class="cls-2" d="M99.42,48.56c-.12-.25-.33-.49-.61-.39a.65.65,0,0,0-.31.5c-.11,1.77-1.53,2.19-2.8,2.51-2.3.58-4.65,1-7,1.38-6,1-10.45,4-12,10.28-.21.88-.72.92-1.44.77-3.54-.78-4.57-4.13-2.13-7.16a20.14,20.14,0,0,1,7-5.44,2.09,2.09,0,0,1,2.11,0,4.52,4.52,0,0,0,3.77.37c.62-.22,1.24-.5,1.19-1.34s-.81-.83-1.32-1a6,6,0,0,0-2.59.06c-1.38.31-1.79-.07-1.61-1.48a5.2,5.2,0,0,1,1.49-3,10.15,10.15,0,0,1,8.33-3.25c1.06.07,2.24.19,2.26,1.56,0,1.19-.58,2.08-2,1.91a.55.55,0,0,0-.65.56c0,.41.22.52.59.61a3.32,3.32,0,0,0,3.62-2.11c.52-1.69-.2-2.93-2-3.5A7.61,7.61,0,0,0,91,40.12a16.17,16.17,0,0,0-9.27,3c-2.13,1.59-2.61,3.48-1.41,5.86.44.88.06,1-.57,1.29a23.87,23.87,0,0,0-8.13,5c-1.75,1.68-2.9,3.65-2.16,6.1s2.86,3.28,5,3.58a1.94,1.94,0,0,1,2,2.14c.25,4,4.43,6.44,8.2,6.11,1.72-.16,3.2-1.94,2.85-3.35-.09-.33-.14-.83-.69-.7-.39.08-.35.39-.36.75A2.15,2.15,0,0,1,84,72.17a6.08,6.08,0,0,1-6.37-5.25c-.24-1.37.18-1.63,1.47-1.7a15.17,15.17,0,0,0,8.94-3c2.27-1.8,4.33-3.83,3.73-7.07-.26-1.39.26-1.48,1.34-1.72,1.82-.41,3.78-.61,5.26-1.94C99.27,50.75,100,49.86,99.42,48.56ZM85.71,50.38a2.26,2.26,0,0,1-2,0A1.55,1.55,0,0,1,85.71,50.38ZM90,57.12a8.76,8.76,0,0,1-4.61,4.82A14.15,14.15,0,0,1,78,63.68a9.36,9.36,0,0,1,2.45-5.06,15,15,0,0,1,6.94-4.33c.77-.25,1.79-.57,2.46.21A2.53,2.53,0,0,1,90,57.12Z"/></g></g></svg>