<svg width="271" height="271" viewBox="0 0 271 271" fill="none" xmlns="http://www.w3.org/2000/svg">
<g clip-path="url(#clip0_24_50)">
<path d="M220.6 117.22C212.88 114.48 205.69 117.56 201.17 122.06C200.888 122.049 200.606 122.072 200.33 122.13C199.9 122.213 199.476 122.323 199.06 122.46C199.21 122.12 199.35 121.79 199.48 121.46C199.97 120.27 200.48 119.16 200.99 118.88C201.614 118.572 202.135 118.09 202.492 117.493C202.85 116.896 203.027 116.209 203.004 115.514C202.981 114.819 202.758 114.145 202.362 113.573C201.965 113.002 201.413 112.556 200.77 112.29C199.721 111.856 198.596 111.635 197.46 111.64C197.097 109.992 196.361 108.45 195.31 107.13C194.59 106.13 194.43 105.86 194.45 105.3C194.465 104.709 194.335 104.123 194.07 103.594C193.806 103.065 193.415 102.609 192.933 102.267C192.451 101.924 191.893 101.705 191.306 101.629C190.72 101.553 190.124 101.622 189.57 101.83C189.181 100.962 188.737 100.121 188.24 99.31C187.902 98.7949 187.626 98.241 187.42 97.66C187.469 97.4752 187.554 97.3019 187.67 97.15C187.989 96.6767 188.191 96.1348 188.261 95.5685C188.33 95.0021 188.264 94.4274 188.069 93.8912C187.874 93.355 187.555 92.8725 187.139 92.483C186.722 92.0935 186.218 91.8081 185.67 91.65C184.678 91.3522 183.627 91.3007 182.61 91.5C182.564 90.372 182.316 89.2613 181.88 88.22C181.927 87.8837 181.99 87.5499 182.07 87.22C182.217 86.5657 182.179 85.8836 181.96 85.2498C181.742 84.6159 181.351 84.0551 180.833 83.63C180.315 83.2049 179.688 82.9321 179.024 82.842C178.359 82.752 177.683 82.8482 177.07 83.12C176.95 82.96 176.84 82.8 176.72 82.65C175.703 81.3142 174.383 80.2382 172.87 79.51C172.77 76.03 171.64 72.86 170.39 71.51C169.766 70.7444 168.933 70.177 167.992 69.8769C167.05 69.5768 166.042 69.5571 165.09 69.82C165.38 68.1427 165.315 66.4232 164.898 64.7729C164.481 63.1225 163.722 61.5782 162.67 60.24C161.519 58.8526 160.051 57.762 158.39 57.06C158.531 56.1498 158.437 55.2189 158.119 54.3547C157.801 53.4905 157.268 52.7215 156.57 52.12C155.494 51.1827 154.136 50.6303 152.71 50.55C152.605 50.4229 152.491 50.3027 152.37 50.19C151.664 49.533 150.774 49.108 149.819 48.9721C148.865 48.8362 147.891 48.996 147.03 49.43C145.714 47.7348 144.237 46.1709 142.62 44.76C141.18 43.39 138.76 41.1 138.35 40.17C138.058 39.5259 137.587 38.9791 136.993 38.5945C136.399 38.2099 135.708 38.0036 135 38C134.285 38.0041 133.587 38.22 132.994 38.6204C132.402 39.0209 131.941 39.5879 131.67 40.25C131.28 41.17 128.84 43.46 127.38 44.84C125.774 46.2308 124.307 47.7747 123 49.45C122.139 49.016 121.166 48.8562 120.211 48.9921C119.256 49.128 118.366 49.553 117.66 50.21C117.539 50.3227 117.426 50.4429 117.32 50.57C115.895 50.6503 114.537 51.2027 113.46 52.14C112.764 52.74 112.231 53.5072 111.913 54.3697C111.594 55.2321 111.501 56.1613 111.64 57.07C109.979 57.7766 108.512 58.8704 107.36 60.26C106.308 61.5982 105.549 63.1425 105.132 64.7929C104.716 66.4432 104.65 68.1627 104.94 69.84C103.988 69.5771 102.98 69.5968 102.039 69.8969C101.098 70.197 100.264 70.7644 99.6402 71.53C98.3902 72.87 97.2602 76.05 97.1502 79.53C95.6404 80.2499 94.324 81.3195 93.3102 82.65L92.9602 83.11C92.4032 82.8708 91.7947 82.7765 91.1915 82.836C90.5882 82.8954 90.0098 83.1067 89.5102 83.45C88.8928 83.8631 88.4169 84.4556 88.1469 85.1476C87.8769 85.8397 87.8257 86.5979 88.0002 87.32C88.0786 87.6228 88.1388 87.93 88.1802 88.24C87.7441 89.2813 87.4969 90.392 87.4502 91.52C86.4262 91.3257 85.3706 91.3771 84.3702 91.67C83.8248 91.8304 83.3248 92.1167 82.9103 92.5058C82.4958 92.8948 82.1785 93.3758 81.9839 93.9099C81.7893 94.4441 81.7229 95.0165 81.79 95.581C81.8571 96.1455 82.0558 96.6864 82.3702 97.16C82.4909 97.3104 82.5794 97.484 82.6302 97.67C82.4268 98.2552 82.1513 98.8128 81.8102 99.33C81.3114 100.14 80.8671 100.981 80.4802 101.85C79.6773 101.55 78.7932 101.55 77.9902 101.85C77.278 102.11 76.6647 102.587 76.2363 103.212C75.8078 103.838 75.5854 104.582 75.6002 105.34C75.6002 105.89 75.4602 106.16 74.7402 107.16C73.6892 108.48 72.9539 110.022 72.5902 111.67C71.458 111.666 70.3363 111.887 69.2902 112.32C68.6485 112.589 68.0976 113.037 67.7031 113.61C67.3085 114.183 67.087 114.857 67.0649 115.553C67.0428 116.248 67.221 116.935 67.5783 117.532C67.9356 118.129 68.4569 118.611 69.0802 118.92C69.6302 119.19 70.0802 120.3 70.5802 121.49C70.7102 121.8 70.8502 122.13 71.0002 122.49C70.5911 122.353 70.1736 122.243 69.7502 122.16C69.4675 122.102 69.1787 122.078 68.8902 122.09C64.3802 117.59 57.1802 114.51 49.4602 117.25C48.7549 117.496 48.1426 117.954 47.7069 118.56C47.2712 119.167 47.0332 119.893 47.0256 120.64C47.0179 121.387 47.2409 122.118 47.6641 122.734C48.0873 123.35 48.6901 123.82 49.3902 124.08C50.2307 124.371 50.9398 124.953 51.3902 125.72C51.8874 126.967 52.0461 128.322 51.8502 129.65C51.7562 130.872 51.7562 132.098 51.8502 133.32C51.4942 133.544 51.1767 133.824 50.9102 134.15C50.4822 134.686 50.2162 135.333 50.1436 136.015C50.071 136.697 50.1947 137.386 50.5002 138C51.8348 140.553 53.7368 142.767 56.0602 144.47C56.0602 144.59 56.0602 144.71 56.1402 144.83C57.5502 150.15 60.9502 151.49 64.1402 151.83C63.7566 152.603 63.5193 153.441 63.4402 154.3C63.3883 154.864 63.4707 155.433 63.6808 155.96C63.8908 156.486 64.2226 156.955 64.6489 157.329C65.0752 157.703 65.5839 157.97 66.1334 158.109C66.6828 158.248 67.2575 158.256 67.8102 158.13C68.2192 158.045 68.6412 158.045 69.0502 158.13C68.7863 159.107 68.715 160.126 68.8402 161.13C68.8918 161.521 68.9686 161.909 69.0702 162.29L68.9602 162.48C68.6348 163.1 68.4956 163.801 68.5595 164.498C68.6234 165.196 68.8876 165.859 69.3202 166.41C69.7314 166.938 70.1973 167.42 70.7102 167.85C70.5187 168.585 70.5623 169.361 70.835 170.069C71.1077 170.778 71.5956 171.383 72.2302 171.8C73.0191 172.311 73.9045 172.655 74.8317 172.81C75.759 172.965 76.7081 172.927 77.6202 172.7C78.1659 173.102 78.8143 173.341 79.4902 173.39C79.2517 174.371 79.1874 175.387 79.3002 176.39C79.7402 180.59 83.0202 183.87 87.6902 184.75H88.1202C88.0366 185.35 88.1034 185.961 88.3146 186.528C88.5258 187.095 88.8748 187.601 89.3302 188C89.9332 188.81 90.3219 189.76 90.4602 190.76C90.7665 192.24 91.2852 193.668 92.0002 195C92.9504 196.607 94.4326 197.831 96.1902 198.46C96.0818 199.237 96.1191 200.027 96.3002 200.79C96.4185 201.293 96.6419 201.765 96.9555 202.175C97.2692 202.585 97.6661 202.924 98.1202 203.17C98.3681 203.299 98.6297 203.4 98.9002 203.47C98.9591 204.374 99.2024 205.257 99.6152 206.063C100.028 206.87 100.601 207.583 101.3 208.16C101.963 208.714 102.797 209.021 103.66 209.03C104.61 210.516 105.886 211.767 107.392 212.685C108.898 213.603 110.594 214.166 112.35 214.33C113.349 214.427 114.356 214.407 115.35 214.27C115.463 214.756 115.634 215.226 115.86 215.67C116.017 215.938 116.091 216.247 116.071 216.557C116.051 216.867 115.94 217.164 115.75 217.41C115.121 217.78 114.62 218.334 114.314 218.997C114.008 219.66 113.913 220.401 114.04 221.12C114.181 221.858 114.543 222.535 115.08 223.06C115.616 223.586 116.3 223.935 117.04 224.06C117.79 224.188 118.55 224.252 119.31 224.25C120.047 224.241 120.783 224.178 121.51 224.06C122.467 225.232 123.697 226.152 125.091 226.739C126.486 227.327 128.003 227.564 129.51 227.43C129.911 228.172 130.38 228.875 130.91 229.53C131.219 229.883 131.485 230.273 131.7 230.69C131.969 231.345 132.426 231.905 133.014 232.3C133.601 232.696 134.292 232.908 135 232.91C135.722 232.912 136.428 232.697 137.026 232.292C137.623 231.887 138.085 231.311 138.35 230.64C138.565 230.225 138.827 229.836 139.13 229.48C139.668 228.828 140.14 228.124 140.54 227.38C141.375 227.45 142.216 227.41 143.04 227.26C145.191 226.859 147.127 225.702 148.5 224C149.228 224.118 149.963 224.181 150.7 224.19C151.471 224.195 152.241 224.131 153 224C153.74 223.875 154.425 223.526 154.961 223C155.497 222.475 155.86 221.798 156 221.06C156.123 220.345 156.027 219.609 155.726 218.949C155.425 218.289 154.931 217.735 154.31 217.36C154.112 217.117 153.993 216.819 153.969 216.505C153.946 216.192 154.02 215.88 154.18 215.61C154.402 215.164 154.573 214.694 154.69 214.21C155.684 214.347 156.691 214.367 157.69 214.27C159.447 214.106 161.142 213.543 162.648 212.625C164.154 211.707 165.431 210.456 166.38 208.97C167.241 208.963 168.072 208.655 168.73 208.1C169.432 207.525 170.008 206.812 170.422 206.005C170.837 205.199 171.081 204.315 171.14 203.41C171.403 203.339 171.657 203.242 171.9 203.12C172.356 202.874 172.755 202.535 173.072 202.125C173.389 201.715 173.617 201.243 173.74 200.74C173.921 199.974 173.959 199.18 173.85 198.4C175.584 197.778 177.049 196.577 178 195C178.723 193.683 179.251 192.268 179.57 190.8C179.717 189.8 180.109 188.852 180.71 188.04C181.371 187.464 181.801 186.669 181.92 185.8H184.64C185.568 185.8 186.459 185.431 187.115 184.775C187.771 184.118 188.14 183.228 188.14 182.3V180.84C188.15 180.704 188.15 180.566 188.14 180.43C188.626 179.923 189.043 179.355 189.38 178.74L189.61 178.38C190.694 176.92 191.254 175.137 191.2 173.32C191.655 173.208 192.083 173.008 192.46 172.73C193.377 172.956 194.33 172.991 195.261 172.833C196.192 172.674 197.08 172.326 197.87 171.81C198.5 171.395 198.983 170.791 199.25 170.086C199.518 169.38 199.556 168.609 199.36 167.88C199.871 167.451 200.336 166.972 200.75 166.45C201.187 165.902 201.454 165.238 201.52 164.54C201.586 163.842 201.447 163.14 201.12 162.52C201.09 162.45 201.053 162.383 201.01 162.32C201.112 161.939 201.189 161.551 201.24 161.16C201.366 160.156 201.294 159.137 201.03 158.16C201.435 158.07 201.855 158.07 202.26 158.16C202.812 158.287 203.386 158.281 203.935 158.144C204.484 158.006 204.993 157.741 205.42 157.37C205.847 156.998 206.18 156.531 206.392 156.006C206.604 155.481 206.689 154.914 206.64 154.35C206.563 153.486 206.322 152.644 205.93 151.87C209.13 151.57 212.53 150.22 213.93 144.87C213.93 144.75 213.99 144.63 214.01 144.5C216.33 142.81 218.226 140.606 219.55 138.06C219.977 137.244 220.079 136.297 219.834 135.409C219.589 134.522 219.015 133.761 218.23 133.28C218.329 132.059 218.329 130.831 218.23 129.61C218.034 128.282 218.193 126.927 218.69 125.68C219.14 124.91 219.849 124.325 220.69 124.03C221.385 123.774 221.984 123.31 222.406 122.702C222.828 122.094 223.053 121.37 223.05 120.63C223.041 119.879 222.801 119.149 222.363 118.539C221.925 117.929 221.309 117.468 220.6 117.22Z" fill="#FDD579"/>
<path d="M140 139.89V111C140 107.58 140.103 104.753 140.31 102.52C140.413 100.621 140.932 98.767 141.83 97.09C142.672 95.7019 143.964 94.6434 145.49 94.09C147.652 93.3274 149.911 92.8729 152.2 92.74V91.25C149.6 91.41 146.96 91.54 144.27 91.62C141.58 91.7 138.9 91.74 136.22 91.74C132.8 91.74 129.49 91.74 126.27 91.62C123.05 91.5 119.75 91.41 116.33 91.25V92.71C118.714 92.8412 121.069 93.2953 123.33 94.06C124.913 94.6 126.269 95.6566 127.18 97.06C128.118 98.7243 128.658 100.583 128.76 102.49C128.92 104.75 129 107.587 129 111V139.83C132.637 140.472 136.356 140.492 140 139.89Z" fill="#FDD579"/>
<path d="M135.18 149.15C133.111 148.978 131.058 148.644 129.04 148.15V175.78C129.04 179.2 128.937 182.027 128.73 184.26C128.629 186.167 128.088 188.026 127.15 189.69C126.278 191.087 124.971 192.159 123.43 192.74C121.226 193.51 118.922 193.961 116.59 194.08V195.55C119.517 195.377 122.447 195.253 125.38 195.18C128.314 195.107 131.284 195.067 134.29 195.06C137.377 195.06 140.467 195.1 143.56 195.18C146.654 195.26 149.744 195.383 152.83 195.55V194.08C150.424 193.958 148.045 193.507 145.76 192.74C144.17 192.187 142.813 191.112 141.91 189.69C140.973 188.026 140.432 186.167 140.33 184.26C140.124 182.027 140.02 179.2 140.02 175.78V155.73L137.73 150.73C137.459 150.286 137.086 149.911 136.643 149.637C136.2 149.362 135.699 149.196 135.18 149.15Z" fill="#FDD579"/>
<path d="M177 178.41C174.371 177.007 171.898 175.331 169.62 173.41C167.162 171.362 164.875 169.118 162.78 166.7C160.62 164.22 158.587 161.717 156.68 159.19C154.773 156.663 153.043 154.183 151.49 151.75C149.95 149.31 149.78 147.92 148.65 145.97C151.15 145.487 153.584 144.708 155.9 143.65C158.11 142.662 160.138 141.31 161.9 139.65C163.619 138.007 165.01 136.052 166 133.89C167.058 131.509 167.58 128.925 167.53 126.32C167.63 122.545 166.652 118.819 164.71 115.58C162.881 112.608 160.427 110.07 157.52 108.14C154.497 106.152 151.15 104.707 147.63 103.87C146.463 103.59 145.303 103.35 144.15 103.15C143.951 103.117 143.747 103.127 143.552 103.18C143.357 103.234 143.177 103.329 143.022 103.459C142.868 103.59 142.744 103.752 142.659 103.935C142.574 104.119 142.53 104.318 142.53 104.52V107.16L143.42 107.47C145.688 108.293 147.781 109.535 149.59 111.13C151.36 112.695 152.792 114.604 153.8 116.74C154.833 119.019 155.349 121.498 155.31 124C155.31 130.593 153.563 135.353 150.07 138.28C147.42 140.386 144.253 141.743 140.9 142.21C139.074 142.524 137.223 142.678 135.37 142.67H135.22C132.885 142.671 130.558 142.413 128.28 141.9C126.825 141.565 125.395 141.131 124 140.6V132.3C124 127.913 124.037 123.82 124.11 120.02H124V106.28C124.001 105.896 123.923 105.517 123.77 105.165C123.616 104.814 123.391 104.498 123.109 104.238C122.826 103.979 122.493 103.781 122.13 103.657C121.767 103.533 121.382 103.487 121 103.52H120.42C118.72 103.64 117.3 103.7 116.16 103.7C113.553 103.7 110.95 103.66 108.35 103.58C105.75 103.5 103.147 103.377 100.54 103.21V104.67C102.868 104.799 105.166 105.25 107.37 106.01C108.911 106.596 110.217 107.671 111.09 109.07C112.031 110.733 112.576 112.592 112.68 114.5C112.893 116.767 113 119.6 113 123V163.75C113 167.17 112.9 169.997 112.7 172.23C112.596 174.138 112.051 175.997 111.11 177.66C110.24 179.059 108.932 180.131 107.39 180.71C105.189 181.48 102.889 181.931 100.56 182.05V183.51C103.49 183.36 106.42 183.23 109.34 183.15C112.26 183.07 115.24 183.03 118.25 183.03H120.39C120.859 183.038 121.324 182.953 121.76 182.78C122.196 182.607 122.593 182.349 122.929 182.022C123.264 181.695 123.532 181.304 123.716 180.873C123.899 180.442 123.996 179.979 124 179.51V144.74C124.81 144.99 125.86 145.25 127.12 145.54C127.55 145.64 127.99 145.72 128.44 145.81C129.28 145.98 130.14 146.14 131.02 146.28C132.36 146.48 133.67 146.66 134.93 146.82C135.42 146.89 135.93 146.94 136.3 146.98C136.851 147.034 137.379 147.224 137.838 147.533C138.297 147.842 138.673 148.26 138.93 148.75C140.35 151.41 140.69 153.2 142.27 155.75C144.27 158.92 146.27 162.01 148.52 165C152.953 170.997 157.696 176.758 162.73 182.26H184.73V180.8C182.018 180.536 179.388 179.723 177 178.41Z" fill="#FDD579"/>
<path d="M125.37 65.5C125.343 65.4993 125.316 65.5065 125.293 65.5207C125.27 65.5349 125.252 65.5555 125.24 65.58C124.02 70.25 125.41 71.83 127.93 73.34C131.005 74.9839 133.399 77.6616 134.69 80.9C134.724 80.9582 134.772 81.0066 134.829 81.0402C134.887 81.0739 134.953 81.0916 135.02 81.0916C135.087 81.0916 135.153 81.0739 135.211 81.0402C135.269 81.0066 135.317 80.9582 135.35 80.9C136.644 77.6634 139.038 74.9866 142.11 73.34C144.63 71.83 146.02 70.25 144.8 65.58C144.787 65.5547 144.767 65.5338 144.742 65.5196C144.717 65.5054 144.689 65.4986 144.66 65.5C143.369 65.6566 142.133 66.1194 141.056 66.85C139.98 67.5805 139.093 68.5576 138.47 69.7C141.82 63.7 136.22 54.28 135.12 52.7C135.07 52.61 134.98 52.62 134.92 52.7C133.81 54.3 128.22 63.76 131.57 69.7C130.947 68.5563 130.058 67.5784 128.98 66.8478C127.901 66.1172 126.664 65.6551 125.37 65.5ZM135 63C136.64 66.35 137.69 70 135.89 73.55C137.41 71.78 139.43 71.78 141.2 70.26C140.81 72.67 136.6 74.26 135 77.49C133.4 74.28 129.19 72.67 128.8 70.26C130.57 71.78 132.59 71.78 134.11 73.55C132.33 69.94 133.38 66.34 135 63Z" fill="#FDD579"/>
<path d="M128.51 62.74C126.26 58.05 127.66 53.07 131.1 50.79C129.609 52.7918 128.832 55.2348 128.89 57.73C130.091 54.2603 132.201 51.1764 135 48.8C137.803 51.1752 139.916 54.2592 141.12 57.73C141.179 55.2348 140.401 52.7918 138.91 50.79C142.35 53.07 143.75 58.05 141.5 62.79C141.487 62.8232 141.487 62.8602 141.501 62.893C141.515 62.9259 141.542 62.9517 141.575 62.965C141.608 62.9783 141.645 62.9778 141.678 62.9637C141.711 62.9497 141.737 62.9232 141.75 62.89C144.29 59.89 146.56 55.95 144.44 51.97C143.07 49.4 136.44 44.58 135.12 41.65C135.12 41.6155 135.106 41.5825 135.082 41.5581C135.058 41.5337 135.025 41.52 134.99 41.52C134.956 41.52 134.923 41.5337 134.898 41.5581C134.874 41.5825 134.86 41.6155 134.86 41.65C133.62 44.65 126.86 49.4 125.54 51.97C123.42 55.97 125.69 59.97 128.22 62.89C128.24 62.9285 128.274 62.9574 128.316 62.9706C128.357 62.9837 128.402 62.9799 128.44 62.96C128.479 62.9401 128.508 62.9058 128.521 62.8645C128.534 62.8232 128.53 62.7785 128.51 62.74Z" fill="#FDD579"/>
<path d="M146.29 220.76C143.94 220.6 141.6 219.92 140.29 217.55C138.29 213.78 140.01 209.68 139.48 205.73C139.35 204.73 139 201.08 135.05 196.83C135.039 196.82 135.025 196.815 135.01 196.815C134.996 196.815 134.981 196.82 134.97 196.83C130.97 201.08 130.67 204.74 130.54 205.73C130.01 209.73 131.78 213.78 129.73 217.55C128.43 219.92 126.09 220.55 123.73 220.76C123.65 220.76 123.6 220.87 123.63 220.94C124.036 221.68 124.6 222.321 125.282 222.817C125.965 223.313 126.749 223.652 127.578 223.809C128.407 223.966 129.26 223.937 130.077 223.724C130.894 223.512 131.653 223.121 132.3 222.58C131.4 225.97 133.98 227.05 134.9 229.34C134.909 229.359 134.923 229.375 134.941 229.387C134.959 229.398 134.979 229.404 135 229.404C135.021 229.404 135.042 229.398 135.06 229.387C135.078 229.375 135.092 229.359 135.1 229.34C136.01 227.05 138.6 225.97 137.7 222.58C138.347 223.121 139.106 223.512 139.921 223.724C140.737 223.937 141.59 223.965 142.418 223.809C143.247 223.652 144.03 223.313 144.712 222.817C145.393 222.321 145.956 221.68 146.36 220.94C146.37 220.924 146.377 220.906 146.378 220.887C146.38 220.869 146.378 220.85 146.371 220.832C146.364 220.815 146.353 220.799 146.339 220.787C146.325 220.774 146.309 220.765 146.29 220.76ZM135.66 218.4C136.064 220.013 135.835 221.72 135.02 223.17C134.206 221.72 133.977 220.013 134.38 218.4C133.454 218.885 132.426 219.146 131.38 219.16C133.7 216.51 133.65 214.36 133.65 211.83C133.89 207.39 132.23 203.46 135.05 198.26C137.87 203.46 136.21 207.39 136.45 211.83C136.45 214.36 136.45 216.51 138.72 219.16C137.654 219.155 136.605 218.895 135.66 218.4Z" fill="#FDD579"/>
<path d="M75.3004 123.06C76.4104 124.53 78.1504 125.28 79.4804 126.55C80.9677 127.973 82.2469 129.599 83.2804 131.38C82.7404 124.99 77.1604 124.14 76.4904 118.29C77.8404 119.71 78.7604 120.29 80.2804 120.29C78.6104 117.8 77.9204 113.63 79.5204 110.68C79.2704 113.46 80.5204 115.74 82.0504 117.76C82.5604 112.96 86.8504 109.67 90.6504 107.14C88.3704 110.68 85.3404 113.21 84.3204 117.51C85.0048 116.808 85.8352 116.265 86.7529 115.919C87.6705 115.574 88.6528 115.434 89.6304 115.51C85.4104 117.62 80.7004 122.51 83.7204 127.35C84.4504 118.24 92.0604 119.35 92.7204 111.59C92.7204 111.47 92.6504 111.4 92.5504 111.43L90.0904 112.24C93.1731 108.943 94.8981 104.604 94.9204 100.09C94.9204 99.96 94.7204 99.89 94.6704 100.03C93.1504 104.38 89.5804 104.93 86.6704 106.03C84.1404 107.03 82.6704 109.42 81.7904 112.03C81.7968 109.509 80.9432 107.061 79.3704 105.09C79.3525 105.068 79.3279 105.052 79.3002 105.045C79.2725 105.038 79.2434 105.041 79.2172 105.052C79.1911 105.064 79.1694 105.083 79.1555 105.108C79.1416 105.133 79.1363 105.162 79.1404 105.19C79.2404 109.62 74.2404 109.68 76.6104 116.7C75.8344 115.94 74.8557 115.42 73.7915 115.201C72.7274 114.983 71.6229 115.077 70.6104 115.47C70.5895 115.481 70.5719 115.498 70.5597 115.518C70.5475 115.538 70.541 115.561 70.541 115.585C70.541 115.609 70.5475 115.632 70.5597 115.652C70.5719 115.672 70.5895 115.689 70.6104 115.7C73.3604 117.14 73.5804 120.8 75.3004 123.06Z" fill="#FDD579"/>
<path d="M116.29 75.27C119.41 74.79 122.5 71.83 121.17 68.48C121.157 68.448 121.132 68.422 121.101 68.4072C121.069 68.3925 121.034 68.3899 121 68.4C116.73 71.04 113.63 66.49 116.43 63.4C117.22 62.53 119.76 61.96 121.62 61.94C119.1 61.25 116.16 61.37 114.32 62.94C111.8 64.94 112.96 70.59 116.76 71.09C116.017 71.3042 115.229 71.3146 114.48 71.1202C113.731 70.9258 113.047 70.5337 112.502 69.9848C111.956 69.436 111.568 68.7506 111.377 68.0004C111.187 67.2501 111.202 66.4626 111.42 65.72C111.842 64.0659 112.879 62.6352 114.32 61.72C117.96 59.88 122.05 60.1 127.69 64.39C127.82 64.49 127.97 64.39 127.88 64.23C124.31 58.81 114.1 57.58 110.12 62.49C109.118 63.7624 108.499 65.2943 108.336 66.9061C108.173 68.5178 108.473 70.1426 109.2 71.59C109.872 72.8476 110.909 73.8723 112.175 74.5292C113.44 75.186 114.875 75.4443 116.29 75.27Z" fill="#FDD579"/>
<path d="M93.5304 176.69C94.1204 175.82 95.6204 173.91 94.0304 171.94C95.2987 172.099 96.5865 171.916 97.7604 171.41C97.779 171.398 97.7943 171.382 97.8049 171.363C97.8155 171.344 97.8211 171.322 97.8211 171.3C97.8211 171.278 97.8155 171.256 97.8049 171.237C97.7943 171.218 97.779 171.202 97.7604 171.19C95.7604 169.29 100.19 166.57 102.18 166.48C97.2804 165.37 94.9104 168.34 95.4204 170.37C94.0004 170.43 93.7204 168.6 94.6604 167.59C92.6604 168.59 88.4004 172.86 87.3904 177.53C86.8473 175.994 86.849 174.318 87.3953 172.783C87.9415 171.248 88.999 169.948 90.3904 169.1C89.0367 169.012 87.6786 169.185 86.3904 169.61C90.7204 166.87 96.7204 163.07 106.16 166.46C106.78 166.57 107.16 165.62 106.04 165.46C100.43 164.46 95.5704 161.02 93.3104 157.28C90.7904 153.11 92.8204 151.65 91.9504 147.71C91.2204 144.43 87.4804 144.61 88.1604 140.71C88.1604 140.58 88.0904 140.52 87.9704 140.55C87.3732 140.71 86.8332 141.035 86.4123 141.488C85.9913 141.941 85.7065 142.503 85.5904 143.11C84.8004 146.11 86.5204 148.75 85.3404 149.64C85.0995 149.825 84.7999 149.917 84.4967 149.898C84.1935 149.88 83.9072 149.753 83.6904 149.54C82.2204 148.16 85.0004 143.78 85.0004 143C85.4804 135.75 81.4204 132.69 77.5104 131.49C77.3904 131.49 77.2804 131.49 77.3204 131.63C77.4892 132.174 77.5478 132.746 77.4929 133.312C77.4379 133.879 77.2705 134.429 77.0004 134.93C75.6504 130.93 73.5504 126.45 69.0004 125.56C68.9785 125.557 68.9564 125.56 68.9359 125.568C68.9154 125.576 68.8973 125.589 68.8834 125.606C68.8694 125.623 68.8599 125.644 68.8559 125.665C68.8519 125.687 68.8534 125.709 68.8604 125.73C69.3371 126.8 69.5792 127.959 69.5704 129.13C67.1804 123.43 59.0004 117.53 50.5704 120.52C50.4604 120.52 50.4104 120.72 50.5704 120.76C52.1729 121.338 53.5192 122.464 54.3704 123.94C55.2389 125.756 55.5586 127.785 55.2904 129.78C55.1804 132.31 55.1504 135.48 57.2904 137.19L53.7604 136.26C53.6804 136.26 53.5804 136.35 53.6304 136.43C55.4797 139.978 58.6462 142.66 62.4504 143.9L59.6604 143.77C59.5504 143.77 59.5104 143.86 59.5404 143.97C61.5404 151.47 67.7204 146.54 75.7504 149.32C74.5904 146.95 69.8004 146.08 67.4104 145.84C68.8437 145.224 70.4053 144.967 71.9604 145.09C68.9604 142.43 64.9604 142.18 60.8304 140.79C64.0307 140.38 67.2814 140.904 70.1904 142.3C67.8504 137.06 60.5804 135.73 60.5804 126.63C64.8804 134.63 69.4304 134.21 71.4504 138.83C73.2204 137.31 72.9704 133.71 72.7204 131.69C76.0004 134.21 74.0004 141 77.7504 143.57C78.533 141.453 79.0437 139.245 79.2704 137C82.7404 142.88 76.9904 147.88 79.4704 153C74.5904 149 67.3004 150.52 66.9204 154.67C66.9204 154.73 67.0004 154.77 67.0604 154.75C69.4604 154.22 71.7904 155.25 73.7204 156.63C76.7204 158.78 79.1304 161.36 82.6504 162.85C86.5604 164.51 88.6504 164.25 90.1404 162.91C81.3304 161.73 81.8404 156.71 75.9804 154.73C81.2904 154.18 83.8204 160.42 88.3704 159.79C86.3704 157.79 86.6404 154.69 87.6504 152.41C88.0457 151.472 88.2317 150.459 88.1955 149.442C88.1592 148.425 87.9015 147.427 87.4404 146.52C88.0359 146.946 88.5197 147.509 88.8506 148.162C89.1814 148.815 89.3494 149.538 89.3404 150.27C89.6504 155.87 89.2504 159.53 93.8504 163.79C90.0604 163.79 88.6704 165.28 87.4304 166.07C85.7504 167.13 85.0804 168.64 82.0204 168.14C82.0006 168.134 81.9797 168.132 81.9592 168.135C81.9388 168.138 81.9192 168.146 81.902 168.157C81.8848 168.169 81.8703 168.184 81.8597 168.202C81.849 168.22 81.8424 168.239 81.8404 168.26C81.9311 169.108 82.3412 169.891 82.9875 170.448C83.6337 171.005 84.4678 171.295 85.3204 171.26C81.4604 172.89 81.5404 180.05 88.3204 181.33C88.4104 181.33 88.4404 181.23 88.4204 181.16C87.7304 178.42 91.8904 179.08 93.5304 176.69Z" fill="#FDD579"/>
<path d="M128.78 210.75C128.327 208.001 128.568 205.182 129.48 202.55C124.75 205.22 126.48 210.23 122.75 213.55C125.75 207.48 123.75 205.88 125.48 203.55C124.375 204.36 123.089 204.889 121.733 205.089C120.377 205.29 118.993 205.156 117.7 204.7C125.28 203.27 125.48 198.8 130.44 197.89C117.5 198.49 116.44 207.77 106.18 206.03C106.05 206.03 106.1 206.17 106.18 206.27C110.02 213.21 118.24 210.77 120.49 208.1C121.63 210.1 117.66 211.27 119.02 214.01C120.18 216.33 119.5 219.19 117.54 220.34C117.46 220.39 117.54 220.49 117.67 220.51C123.84 221.62 131 216.38 128.78 210.75Z" fill="#FDD579"/>
<path d="M106.87 203C107.473 203 108.069 202.881 108.625 202.649C109.181 202.418 109.686 202.078 110.11 201.65C110.979 200.619 112.017 199.743 113.18 199.06C110.32 198.24 107.58 201.95 105.31 201.19C107.08 200.68 108.09 198.91 109.61 198.19C107.33 198.19 105.06 198.44 102.78 197.19C104.035 197.4 105.316 197.4 106.57 197.19C104.38 196.39 101.26 194.41 101.26 191.38C102.53 195.38 108.81 197.24 111.08 195.55C112.08 195.05 111.63 192.9 112.64 191.63C112.4 194.46 112.64 197.86 116.74 198.04C113.05 195.67 114.43 190.89 115.9 190.16C115.919 190.148 115.934 190.132 115.945 190.113C115.955 190.094 115.961 190.072 115.961 190.05C115.961 190.028 115.955 190.006 115.945 189.987C115.934 189.968 115.919 189.952 115.9 189.94C115.62 189.756 115.302 189.636 114.97 189.59C116.1 188.68 114.75 185.99 116.29 185.38C116.43 185.33 116.36 185.17 116.22 185.14C112.87 184.55 109.88 186.32 109.75 188.98C109.593 188.398 109.254 187.881 108.783 187.505C108.312 187.13 107.733 186.914 107.13 186.89C107.101 186.895 107.073 186.908 107.05 186.928C107.028 186.947 107.01 186.972 107 187C106.23 188.94 106.9 193.36 110.29 194.42C107.07 195.32 104.85 191.88 103.42 189.56C102.15 187.49 100.42 185.21 97.8102 185.07C97.7102 185.07 97.6202 185.19 97.7002 185.27C98.3592 186.005 98.7164 186.963 98.7002 187.95C97.902 186.887 96.8266 186.065 95.5918 185.573C94.3571 185.08 93.0107 184.938 91.7002 185.16C91.6793 185.171 91.6618 185.188 91.6495 185.208C91.6373 185.228 91.6309 185.251 91.6309 185.275C91.6309 185.299 91.6373 185.322 91.6495 185.342C91.6618 185.362 91.6793 185.379 91.7002 185.39C93.9602 187.39 93.7002 190.76 95.1202 193.2C95.4519 193.758 95.8977 194.24 96.4284 194.614C96.9592 194.988 97.563 195.246 98.2002 195.37C99.7202 195.7 101.33 195.57 102.8 196.07C102.337 196.107 101.887 196.241 101.479 196.463C101.071 196.685 100.714 196.99 100.431 197.358C100.149 197.727 99.9464 198.151 99.8377 198.602C99.729 199.054 99.7162 199.523 99.8002 199.98C99.8031 199.998 99.8102 200.016 99.8211 200.031C99.8319 200.046 99.8462 200.059 99.8627 200.068C99.8792 200.076 99.8975 200.081 99.9162 200.082C99.9348 200.082 99.9534 200.078 99.9702 200.07C101.67 199.433 103.52 199.308 105.29 199.71C104.668 199.808 104.087 200.082 103.616 200.499C103.145 200.917 102.803 201.461 102.63 202.066C102.458 202.672 102.462 203.314 102.643 203.917C102.824 204.52 103.173 205.059 103.65 205.47C103.75 205.56 103.93 205.55 103.89 205.4C103.32 203.61 105.65 203.11 106.87 203Z" fill="#FDD579"/>
<path d="M86.2204 165.6C86.3304 165.6 86.3804 165.38 86.2204 165.36C79.7404 164.3 74.9804 161.56 73.4404 157.65C73.4404 157.59 73.3204 157.6 73.2704 157.65C71.7504 158.83 71.7804 162.58 74.4504 163.78C73.7045 163.998 72.9258 164.083 72.1504 164.03C72.1254 164.029 72.1005 164.034 72.0787 164.047C72.0569 164.059 72.0392 164.077 72.0275 164.099C72.0159 164.122 72.011 164.147 72.0132 164.172C72.0155 164.197 72.025 164.22 72.0404 164.24C72.5767 164.921 73.246 165.486 74.0076 165.901C74.7692 166.315 75.6071 166.57 76.4704 166.65C75.9349 166.747 75.4342 166.983 75.0183 167.334C74.6025 167.684 74.2859 168.138 74.1004 168.65C74.1004 168.72 74.0304 168.8 74.1004 168.85C75.8904 170 77.8804 169.12 79.3904 167.94C79.266 168.58 79.3538 169.244 79.6404 169.83C79.6555 169.854 79.6779 169.872 79.7043 169.882C79.7307 169.892 79.7597 169.893 79.7868 169.886C79.8139 169.878 79.8377 169.861 79.8546 169.838C79.8715 169.816 79.8806 169.788 79.8804 169.76C79.7904 168.18 81.6304 165.39 86.2204 165.6Z" fill="#FDD579"/>
<path d="M117 57.89C118.19 58.05 120.59 57.83 123 59.24C123.042 59.259 123.089 59.2637 123.133 59.2536C123.178 59.2434 123.218 59.2189 123.248 59.1837C123.277 59.1486 123.294 59.1048 123.297 59.0589C123.299 59.0131 123.286 58.9678 123.26 58.93C122 57.52 120.12 57 119 56.6C119.811 56.3477 120.679 56.3477 121.49 56.6C121.17 56.09 121.38 55.6 121.3 55.23C122.162 55.7261 122.897 56.4148 123.449 57.2423C124.001 58.0698 124.354 59.0136 124.48 60C124.48 60.1 124.79 60.11 124.78 60C124.52 56.44 122.87 53.62 122.15 53C120.07 51.38 119.24 53.65 119.85 54.5C115.42 52.54 113.21 57.39 117 57.89Z" fill="#FDD579"/>
<path d="M83.1704 106.39C83.1886 106.405 83.2116 106.414 83.2355 106.414C83.2593 106.414 83.2823 106.405 83.3004 106.39C84.9504 103.57 88.8904 104.2 91.1404 102.16C91.7404 101.61 92.1404 100.9 92.7604 100.33C93.3942 99.6784 94.198 99.2177 95.0805 99C95.4969 98.9012 95.9293 98.8902 96.3502 98.9679C96.7711 99.0455 97.1712 99.21 97.525 99.4509C97.8788 99.6917 98.1784 100.004 98.4049 100.367C98.6314 100.73 98.7798 101.136 98.8405 101.56C98.8419 101.579 98.848 101.598 98.8582 101.614C98.8685 101.631 98.8826 101.645 98.8993 101.655C98.916 101.664 98.9348 101.67 98.9542 101.671C98.9735 101.672 98.9929 101.668 99.0104 101.66C101.64 100.24 99.7004 97.66 98.8904 97.49C99.4902 97.3601 100.111 97.3601 100.71 97.49C100.85 97.49 100.83 97.37 100.8 97.26C100.13 94.96 96.0005 94.37 94.3105 95.59C94.7005 93.02 95.7305 87.39 98.7405 84.89C98.4005 85.89 97.3904 87.58 98.2304 88.89C99.4904 85.89 102.53 84.34 105.31 83.33C102.53 84.85 102.53 88.64 100 89.65C98.1405 90.58 96.2804 91.94 96.1904 93.92C98.3504 92.8 100.32 93.92 102.42 91.86C103.598 90.5122 104.498 88.9457 105.07 87.25C106.45 83.96 112.37 81.13 114.46 80.77C114.484 80.7601 114.504 80.7435 114.519 80.7221C114.533 80.7008 114.54 80.6757 114.54 80.65C114.54 80.6243 114.533 80.5992 114.519 80.5779C114.504 80.5565 114.484 80.5399 114.46 80.53C109.46 78.08 103.89 79.53 100.24 83.78C100.43 83.31 100.62 82.78 100.82 82.36C100.82 82.25 100.75 82.21 100.65 82.2C97.1905 81.94 93.6505 86.93 94.6505 89.84C94.4286 89.2267 94.0889 88.6628 93.6505 88.18C93.6343 88.1632 93.6139 88.1511 93.5914 88.1449C93.5689 88.1387 93.5452 88.1387 93.5227 88.1448C93.5002 88.151 93.4797 88.163 93.4635 88.1798C93.4473 88.1965 93.4359 88.2173 93.4305 88.24L93.3704 88.67C93.0789 87.7042 92.4692 86.8654 91.6404 86.29C91.62 86.2768 91.5964 86.2697 91.5721 86.2693C91.5478 86.2689 91.5239 86.2753 91.5031 86.2878C91.4823 86.3003 91.4654 86.3183 91.4543 86.3399C91.4433 86.3615 91.4384 86.3858 91.4404 86.41C91.781 87.3773 91.8055 88.4278 91.5104 89.41C89.9804 92.9 92.5104 94.81 90.5704 97.11C90.557 96.7498 90.4681 96.3963 90.3097 96.0725C90.1512 95.7487 89.9266 95.4617 89.6505 95.23C89.5705 95.16 89.4705 95.23 89.4505 95.32C89.3205 95.92 89.1904 96.53 89.0504 97.13C88.9674 96.7389 88.8033 96.3695 88.5687 96.0457C88.3341 95.7219 88.0342 95.4509 87.6884 95.2501C87.3425 95.0494 86.9585 94.9235 86.5609 94.8804C86.1634 94.8373 85.7613 94.878 85.3805 95C85.3597 95.0045 85.3403 95.0141 85.3241 95.0278C85.3079 95.0415 85.2952 95.059 85.2873 95.0788C85.2794 95.0985 85.2765 95.1199 85.2788 95.141C85.2811 95.1622 85.2885 95.1824 85.3004 95.2C88.0504 99.36 83.1904 101.07 82.9604 106.34C83.0004 106.48 83.1104 106.46 83.1704 106.39Z" fill="#FDD579"/>
<path d="M183.4 106.07C180.4 104.93 176.87 104.38 175.35 100.07C175.35 99.93 175.1 100 175.1 100.13C175.122 104.644 176.847 108.983 179.93 112.28L177.47 111.47C177.447 111.463 177.422 111.461 177.398 111.466C177.375 111.471 177.353 111.483 177.335 111.499C177.316 111.515 177.303 111.535 177.295 111.558C177.287 111.582 177.285 111.606 177.29 111.63C177.98 119.41 185.59 118.28 186.29 127.39C189.29 122.54 184.6 117.66 180.38 115.55C181.356 115.473 182.337 115.613 183.253 115.958C184.169 116.304 184.998 116.848 185.68 117.55C184.68 113.25 181.68 110.72 179.36 107.18C183.16 109.71 187.45 113 187.96 117.8C189.48 115.8 190.74 113.5 190.49 110.72C192.09 113.72 191.4 117.84 189.73 120.33C191.25 120.33 192.17 119.73 193.52 118.33C192.85 124.18 187.27 125.03 186.73 131.42C187.76 129.637 189.04 128.011 190.53 126.59C191.86 125.32 193.6 124.59 194.71 123.1C196.42 120.84 196.65 117.18 199.39 115.81C199.411 115.799 199.429 115.782 199.441 115.762C199.453 115.742 199.459 115.719 199.459 115.695C199.459 115.671 199.453 115.648 199.441 115.628C199.429 115.608 199.411 115.591 199.39 115.58C198.378 115.187 197.273 115.093 196.209 115.311C195.145 115.53 194.166 116.05 193.39 116.81C195.76 109.81 190.76 109.73 190.86 105.3C190.864 105.272 190.859 105.243 190.845 105.218C190.831 105.193 190.809 105.174 190.783 105.162C190.757 105.151 190.728 105.148 190.7 105.155C190.673 105.162 190.648 105.178 190.63 105.2C189.059 107.172 188.202 109.618 188.2 112.14C187.44 109.46 185.92 107 183.4 106.07Z" fill="#FDD579"/>
<path d="M142.2 64.2C142.11 64.33 142.26 64.46 142.39 64.36C148.03 60.07 152.12 59.85 155.76 61.69C157.201 62.6052 158.238 64.0359 158.66 65.69C158.879 66.4326 158.893 67.2201 158.703 67.9704C158.513 68.7206 158.125 69.406 157.579 69.9548C157.033 70.5037 156.35 70.8958 155.601 71.0902C154.852 71.2846 154.064 71.2742 153.32 71.06C157.11 70.56 158.32 64.93 155.76 62.91C153.92 61.39 150.98 61.27 148.46 61.91C150.32 61.91 152.86 62.5 153.65 63.37C156.45 66.43 153.35 70.98 149.08 68.37C149.062 68.3583 149.041 68.351 149.019 68.3488C148.997 68.3466 148.976 68.3494 148.955 68.3572C148.935 68.365 148.916 68.3774 148.902 68.3935C148.887 68.4096 148.876 68.429 148.87 68.45C147.54 71.8 150.63 74.76 153.75 75.24C155.175 75.4202 156.621 75.1615 157.895 74.4987C159.169 73.8358 160.21 72.8002 160.88 71.53C161.605 70.082 161.904 68.4577 161.741 66.8465C161.578 65.2352 160.961 63.7035 159.96 62.43C156 57.55 145.77 58.78 142.2 64.2Z" fill="#FDD579"/>
<path d="M219.43 120.52C211 117.52 202.82 123.43 200.43 129.13C200.422 127.959 200.664 126.8 201.14 125.73C201.147 125.709 201.149 125.687 201.145 125.665C201.141 125.644 201.131 125.623 201.117 125.606C201.103 125.589 201.085 125.576 201.065 125.568C201.044 125.56 201.022 125.557 201 125.56C196.45 126.45 194.35 130.95 193 134.93C192.465 133.918 192.354 132.734 192.69 131.64C192.69 131.53 192.62 131.46 192.5 131.5C188.59 132.7 184.5 135.76 185.01 143.01C185.07 143.78 187.83 148.16 186.39 149.53C186.175 149.742 185.891 149.869 185.589 149.887C185.288 149.906 184.99 149.814 184.75 149.63C183.57 148.74 185.29 146.06 184.5 143.1C184.384 142.493 184.1 141.931 183.679 141.478C183.258 141.025 182.718 140.7 182.12 140.54C182 140.54 181.91 140.54 181.93 140.7C182.61 144.58 178.87 144.4 178.14 147.7C177.27 151.64 179.3 153.1 176.78 157.27C175.593 159.368 173.953 161.175 171.979 162.559C170.005 163.943 167.748 164.869 165.37 165.27C164.24 165.46 164.63 166.42 165.25 166.27C174.69 162.87 179.37 166.87 183.7 169.61C182.412 169.185 181.054 169.012 179.7 169.1C181.56 170.1 184.39 172.39 183.1 176.73C182.1 172.07 177.39 168.57 175.4 167.59C176.34 168.59 176.06 170.43 174.64 170.37C175.15 168.37 172.78 165.37 167.88 166.48C169.88 166.57 174.26 169.29 172.29 171.19C172.274 171.203 172.26 171.22 172.251 171.239C172.242 171.258 172.237 171.279 172.237 171.3C172.237 171.321 172.242 171.342 172.251 171.361C172.26 171.38 172.274 171.397 172.29 171.41C173.464 171.916 174.752 172.099 176.02 171.94C174.43 173.94 176.32 175.73 177.19 176.32C179.076 177.751 181.355 178.567 183.72 178.66C185.64 178.66 185.96 177.46 186.65 176.41C188.95 172.88 187.08 172.25 184.73 171.18C185.583 171.215 186.417 170.925 187.063 170.368C187.71 169.811 188.12 169.028 188.21 168.18C188.208 168.159 188.202 168.14 188.191 168.122C188.181 168.104 188.166 168.089 188.149 168.077C188.132 168.066 188.112 168.058 188.092 168.055C188.071 168.052 188.05 168.054 188.03 168.06C184.97 168.56 184.3 167.06 182.62 165.99C181.38 165.2 179.99 163.71 176.2 163.71C180.8 159.45 180.4 155.79 180.71 150.19C180.699 149.458 180.866 148.733 181.197 148.08C181.528 147.427 182.013 146.864 182.61 146.44C182.149 147.347 181.892 148.345 181.855 149.362C181.819 150.379 182.005 151.392 182.4 152.33C183.4 154.61 183.72 157.69 181.68 159.71C186.23 160.34 188.76 154.1 194.07 154.65C188.21 156.65 188.72 161.65 179.91 162.83C181.38 164.17 183.49 164.43 187.4 162.77C190.92 161.28 193.34 158.7 196.33 156.55C198.26 155.17 200.59 154.14 202.99 154.67C203.04 154.67 203.13 154.67 203.12 154.59C202.75 150.44 195.46 148.88 190.58 152.92C193.06 147.83 187.31 142.83 190.78 136.92C191.001 139.17 191.512 141.381 192.3 143.5C196.09 140.97 194.07 134.14 197.35 131.62C197.1 133.62 196.85 137.24 198.62 138.76C200.62 134.14 205.19 134.59 209.49 126.56C209.49 135.66 202.22 136.99 199.88 142.23C202.789 140.834 206.04 140.31 209.24 140.72C205.13 142.11 201.15 142.36 198.11 145.02C199.666 144.897 201.227 145.154 202.66 145.77C200.27 146.01 195.48 146.88 194.32 149.25C202.32 146.47 208.54 151.4 210.53 143.9C210.53 143.79 210.53 143.7 210.41 143.7L207.62 143.83C211.425 142.59 214.591 139.908 216.44 136.36C216.447 136.339 216.449 136.317 216.445 136.295C216.441 136.274 216.431 136.253 216.417 136.236C216.403 136.219 216.385 136.206 216.365 136.198C216.344 136.19 216.322 136.187 216.3 136.19L212.77 137.12C214.9 135.41 214.87 132.24 214.77 129.71C214.511 127.714 214.834 125.686 215.7 123.87C216.552 122.394 217.898 121.268 219.5 120.69C219.59 120.72 219.54 120.56 219.43 120.52Z" fill="#FDD579"/>
<path d="M163.86 206.08C153.55 207.82 152.53 198.54 139.6 197.94C144.6 198.85 144.76 203.32 152.34 204.75C151.046 205.205 149.66 205.338 148.303 205.138C146.946 204.938 145.658 204.41 144.55 203.6C146.32 205.93 144.29 207.53 147.29 213.6C143.54 210.23 145.29 205.22 140.55 202.6C141.469 205.231 141.713 208.05 141.26 210.8C139.06 216.43 146.2 221.67 152.38 220.61C152.47 220.61 152.6 220.49 152.52 220.44C150.52 219.29 149.88 216.44 151.03 214.11C152.4 211.37 148.42 210.17 149.57 208.2C151.82 210.87 160.04 213.31 163.88 206.37C163.94 206.22 164 206.05 163.86 206.08Z" fill="#FDD579"/>
<path d="M171.33 187.91C171.314 186.923 171.671 185.965 172.33 185.23C172.41 185.15 172.33 185.02 172.22 185.03C169.57 185.17 167.88 187.45 166.61 189.52C165.18 191.84 162.96 195.28 159.74 194.38C163.13 193.32 163.8 188.9 163.03 186.96C163.019 186.931 163.001 186.905 162.976 186.885C162.951 186.866 162.921 186.854 162.89 186.85C162.288 186.874 161.709 187.09 161.238 187.465C160.766 187.841 160.427 188.358 160.27 188.94C160.14 186.28 157.15 184.51 153.8 185.1C153.66 185.1 153.59 185.29 153.72 185.34C155.27 185.95 153.92 188.64 155.05 189.55C154.718 189.596 154.4 189.716 154.12 189.9C154.102 189.912 154.086 189.928 154.076 189.947C154.065 189.966 154.06 189.988 154.06 190.01C154.06 190.032 154.065 190.054 154.076 190.073C154.086 190.092 154.102 190.108 154.12 190.12C155.58 190.85 156.97 195.63 153.28 198C157.38 197.82 157.61 194.42 157.38 191.59C158.38 192.86 157.93 195.01 158.94 195.51C161.21 197.2 167.49 195.38 168.76 191.34C168.76 194.34 165.64 196.34 163.45 197.15C164.705 197.36 165.986 197.36 167.24 197.15C164.96 198.42 162.69 198.15 160.41 198.15C161.93 198.9 162.94 200.67 164.71 201.15C162.44 201.91 159.71 198.2 156.84 199.02C158.003 199.703 159.042 200.579 159.91 201.61C160.334 202.038 160.839 202.378 161.395 202.609C161.951 202.841 162.548 202.96 163.15 202.96C164.37 203.06 166.7 203.56 166.15 205.31C166.15 205.46 166.29 205.47 166.39 205.38C166.867 204.968 167.217 204.429 167.397 203.825C167.577 203.221 167.581 202.578 167.407 201.972C167.234 201.366 166.89 200.823 166.418 200.406C165.945 199.989 165.363 199.716 164.74 199.62C166.514 199.218 168.367 199.343 170.07 199.98C170.087 199.988 170.106 199.992 170.124 199.992C170.143 199.991 170.161 199.986 170.178 199.978C170.194 199.969 170.209 199.956 170.219 199.941C170.23 199.926 170.237 199.908 170.24 199.89C170.323 199.433 170.309 198.965 170.199 198.514C170.09 198.063 169.888 197.64 169.605 197.271C169.323 196.903 168.966 196.598 168.559 196.376C168.152 196.153 167.703 196.019 167.24 195.98C168.72 195.48 170.33 195.61 171.85 195.28C172.488 195.156 173.091 194.898 173.622 194.524C174.153 194.15 174.599 193.668 174.93 193.11C176.39 190.67 176.09 187.26 178.35 185.3C178.371 185.289 178.389 185.272 178.401 185.252C178.413 185.232 178.42 185.209 178.42 185.185C178.42 185.161 178.413 185.138 178.401 185.118C178.389 185.098 178.371 185.081 178.35 185.07C177.032 184.849 175.678 184.998 174.439 185.499C173.2 186 172.124 186.835 171.33 187.91Z" fill="#FDD579"/>
<path d="M195.56 163.77C198.23 162.57 198.26 158.77 196.74 157.64C196.69 157.64 196.59 157.64 196.56 157.64C195.03 161.55 190.26 164.29 183.79 165.35C183.66 165.35 183.71 165.6 183.79 165.59C188.38 165.38 190.22 168.17 190.1 169.74C190.1 169.768 190.109 169.796 190.126 169.818C190.143 169.841 190.167 169.858 190.194 169.866C190.221 169.873 190.25 169.872 190.276 169.862C190.303 169.852 190.325 169.834 190.34 169.81C190.627 169.224 190.715 168.56 190.59 167.92C192.1 169.1 194.09 169.98 195.88 168.83C195.95 168.78 195.88 168.7 195.88 168.63C195.694 168.117 195.376 167.662 194.958 167.311C194.54 166.96 194.038 166.725 193.5 166.63C194.365 166.551 195.205 166.297 195.969 165.882C196.732 165.468 197.403 164.902 197.94 164.22C197.956 164.2 197.965 164.177 197.967 164.152C197.97 164.127 197.965 164.102 197.953 164.079C197.942 164.057 197.924 164.039 197.902 164.027C197.88 164.014 197.855 164.009 197.83 164.01C197.065 164.063 196.297 163.981 195.56 163.77Z" fill="#FDD579"/>
<path d="M145.56 60C145.688 59.0153 146.042 58.0735 146.593 57.2479C147.145 56.4223 147.88 55.7351 148.74 55.24C148.66 55.66 148.87 56.1 148.55 56.61C149.361 56.3577 150.229 56.3577 151.04 56.61C149.92 57.05 148.04 57.53 146.76 58.94C146.734 58.9778 146.721 59.0231 146.724 59.0689C146.726 59.1148 146.743 59.1586 146.772 59.1937C146.802 59.2289 146.842 59.2534 146.887 59.2636C146.932 59.2737 146.978 59.269 147.02 59.25C149.47 57.84 151.87 58.06 153.02 57.9C156.79 57.4 154.58 52.55 150.15 54.52C150.75 53.67 149.93 51.4 147.85 53.02C147.13 53.59 145.48 56.41 145.22 60.02C145.25 60.1 145.55 60.09 145.56 60Z" fill="#FDD579"/>
<path d="M169.19 82.43L169.77 83.85C166.12 79.58 160.56 78.15 155.55 80.6C155.527 80.6099 155.506 80.6265 155.492 80.6479C155.478 80.6692 155.47 80.6943 155.47 80.72C155.47 80.7457 155.478 80.7708 155.492 80.7921C155.506 80.8135 155.527 80.8301 155.55 80.84C157.64 81.2 163.55 84.03 164.94 87.32C165.508 89.0176 166.409 90.5848 167.59 91.93C169.69 94.02 171.66 92.87 173.82 93.99C173.73 91.99 171.87 90.65 170.01 89.72C167.48 88.72 167.48 84.92 164.7 83.4C167.48 84.4 170.52 85.93 171.78 88.96C172.62 87.61 171.61 85.96 171.27 84.96C174.27 87.46 175.27 93.09 175.7 95.66C174.01 94.44 169.88 95.03 169.21 97.33C169.21 97.44 169.21 97.59 169.29 97.56C169.893 97.4299 170.517 97.4299 171.12 97.56C170.31 97.76 168.37 100.31 171 101.73C171.018 101.738 171.037 101.742 171.056 101.741C171.076 101.74 171.095 101.734 171.111 101.725C171.128 101.715 171.142 101.701 171.152 101.684C171.163 101.668 171.169 101.649 171.17 101.63C171.219 101.192 171.362 100.769 171.588 100.391C171.815 100.013 172.12 99.6883 172.484 99.4388C172.847 99.1893 173.26 99.0209 173.694 98.9452C174.128 98.8695 174.574 98.8882 175 99C175.875 99.1979 176.678 99.634 177.32 100.26C177.91 100.83 178.32 101.54 178.94 102.09C181.19 104.09 185.13 103.5 186.78 106.32C186.798 106.335 186.821 106.344 186.845 106.344C186.869 106.344 186.892 106.335 186.91 106.32C186.97 106.39 187.12 106.41 187.12 106.32C186.89 101.05 182.03 99.32 184.77 95.18C184.785 95.164 184.795 95.1443 184.8 95.123C184.804 95.1016 184.802 95.0795 184.795 95.059C184.788 95.0384 184.775 95.0202 184.759 95.0063C184.742 94.9924 184.722 94.9833 184.7 94.98C184.314 94.8534 183.905 94.8106 183.501 94.8543C183.098 94.898 182.707 95.0273 182.357 95.2336C182.007 95.4398 181.705 95.7183 181.471 96.0505C181.237 96.3827 181.077 96.7609 181 97.16C180.86 96.56 180.73 95.95 180.6 95.35C180.6 95.26 180.48 95.19 180.4 95.26C180.124 95.4917 179.899 95.7787 179.741 96.1025C179.583 96.4263 179.494 96.7798 179.48 97.14C177.54 94.84 180.07 92.93 178.54 89.44C178.245 88.4578 178.27 87.4073 178.61 86.44C178.612 86.4158 178.607 86.3915 178.596 86.3699C178.585 86.3483 178.568 86.3303 178.548 86.3178C178.527 86.3053 178.503 86.2989 178.479 86.2993C178.454 86.2997 178.431 86.3068 178.41 86.32C177.581 86.8954 176.972 87.7342 176.68 88.7L176.62 88.27C176.615 88.2473 176.603 88.2265 176.587 88.2098C176.571 88.193 176.55 88.181 176.528 88.1748C176.505 88.1687 176.482 88.1687 176.459 88.1749C176.437 88.1811 176.416 88.1932 176.4 88.21C175.962 88.6928 175.622 89.2567 175.4 89.87C176.4 86.96 172.83 81.97 169.4 82.23C169.26 82.28 169.15 82.32 169.19 82.43Z" fill="#FDD579"/>
<path d="M162 77.92C163.16 78.26 165.55 78.43 167.76 80.2C167.796 80.2398 167.846 80.2637 167.9 80.2665C167.953 80.2693 168.006 80.2508 168.045 80.215C168.085 80.1792 168.109 80.1291 168.112 80.0756C168.115 80.0222 168.096 79.9698 168.06 79.93C167.06 78.34 165.24 77.58 164.2 76.93C165.041 76.8102 165.898 76.9461 166.66 77.32C166.43 76.77 166.66 76.32 166.66 75.94C167.43 76.5659 168.046 77.3603 168.46 78.2619C168.875 79.1634 169.077 80.1481 169.05 81.14C169.05 81.24 169.34 81.3 169.35 81.14C169.66 77.59 168.46 74.53 167.84 73.86C166.04 71.93 164.84 74.05 165.34 74.98C161.27 72.39 158.33 76.84 162 77.92Z" fill="#FDD579"/>
<path d="M101 81.17C100.977 80.1839 101.18 79.2057 101.592 78.3097C102.005 77.4138 102.616 76.6238 103.38 76C103.38 76.43 103.64 76.83 103.38 77.38C104.152 77.0034 105.021 76.8709 105.87 77C104.87 77.62 103.03 78.38 102.01 80C101.974 80.0398 101.956 80.0922 101.959 80.1456C101.962 80.1991 101.985 80.2492 102.025 80.285C102.065 80.3208 102.117 80.3393 102.171 80.3365C102.224 80.3337 102.274 80.3098 102.31 80.27C104.51 78.5 106.91 78.33 108.06 77.99C111.71 76.91 108.77 72.46 104.7 75.1C105.17 74.17 104 72.05 102.2 73.98C101.57 74.65 100.38 77.71 100.69 81.26C100.7 81.33 101 81.27 101 81.17Z" fill="#FDD579"/>
<path d="M178.23 137.06C177.891 136.719 177.458 136.487 176.986 136.392C176.514 136.298 176.025 136.345 175.581 136.529C175.136 136.713 174.756 137.024 174.489 137.424C174.221 137.824 174.079 138.294 174.079 138.775C174.079 139.256 174.221 139.726 174.489 140.126C174.756 140.526 175.136 140.837 175.581 141.021C176.025 141.205 176.514 141.252 176.986 141.158C177.458 141.063 177.891 140.831 178.23 140.49C178.456 140.265 178.635 139.998 178.758 139.704C178.88 139.409 178.943 139.094 178.943 138.775C178.943 138.456 178.88 138.141 178.758 137.846C178.635 137.552 178.456 137.285 178.23 137.06Z" fill="#FDD579"/>
<path d="M181.64 133.31C181.36 133.032 181.004 132.843 180.616 132.767C180.229 132.691 179.827 132.732 179.463 132.884C179.098 133.036 178.787 133.292 178.568 133.621C178.349 133.949 178.232 134.335 178.232 134.73C178.232 135.125 178.349 135.511 178.568 135.839C178.787 136.168 179.098 136.424 179.463 136.576C179.827 136.728 180.229 136.769 180.616 136.693C181.004 136.617 181.36 136.428 181.64 136.15C181.828 135.964 181.977 135.743 182.078 135.499C182.18 135.255 182.232 134.994 182.232 134.73C182.232 134.466 182.18 134.205 182.078 133.961C181.977 133.717 181.828 133.496 181.64 133.31Z" fill="#FDD579"/>
<path d="M180.12 130.73C180.267 130.879 180.442 130.997 180.636 131.078C180.829 131.159 181.036 131.201 181.245 131.201C181.455 131.201 181.662 131.159 181.855 131.078C182.048 130.997 182.223 130.879 182.37 130.73C182.592 130.508 182.744 130.224 182.805 129.916C182.866 129.607 182.834 129.288 182.714 128.997C182.594 128.707 182.39 128.459 182.128 128.284C181.867 128.11 181.56 128.016 181.245 128.016C180.931 128.016 180.624 128.11 180.362 128.284C180.101 128.459 179.897 128.707 179.776 128.997C179.656 129.288 179.624 129.607 179.686 129.916C179.747 130.224 179.898 130.508 180.12 130.73Z" fill="#FDD579"/>
<path d="M179 125.78C179.11 125.89 179.24 125.977 179.383 126.036C179.526 126.096 179.68 126.126 179.835 126.126C179.99 126.126 180.144 126.096 180.287 126.036C180.43 125.977 180.56 125.89 180.67 125.78C180.78 125.671 180.866 125.542 180.926 125.4C180.985 125.257 181.015 125.104 181.015 124.95C181.015 124.796 180.985 124.643 180.926 124.501C180.866 124.358 180.78 124.229 180.67 124.12C180.445 123.922 180.154 123.818 179.855 123.827C179.556 123.836 179.271 123.958 179.059 124.169C178.847 124.38 178.723 124.664 178.712 124.963C178.701 125.262 178.804 125.554 179 125.78Z" fill="#FDD579"/>
<path d="M175.56 121.78C175.453 121.886 175.38 122.021 175.351 122.169C175.321 122.317 175.335 122.47 175.393 122.609C175.45 122.748 175.547 122.867 175.673 122.951C175.798 123.035 175.945 123.08 176.095 123.08C176.246 123.08 176.393 123.035 176.518 122.951C176.644 122.867 176.741 122.748 176.798 122.609C176.856 122.47 176.87 122.317 176.84 122.169C176.81 122.021 176.737 121.886 176.63 121.78C176.561 121.709 176.477 121.653 176.386 121.614C176.294 121.575 176.195 121.556 176.095 121.556C175.996 121.556 175.897 121.575 175.805 121.614C175.714 121.653 175.63 121.709 175.56 121.78Z" fill="#FDD579"/>
<path d="M91.6203 137.06C91.9598 136.719 92.3928 136.487 92.8644 136.392C93.336 136.298 93.8251 136.345 94.2696 136.529C94.7142 136.713 95.0943 137.024 95.3617 137.424C95.6291 137.824 95.7719 138.294 95.7719 138.775C95.7719 139.256 95.6291 139.726 95.3617 140.126C95.0943 140.526 94.7142 140.837 94.2696 141.021C93.8251 141.205 93.336 141.252 92.8644 141.158C92.3928 141.063 91.9598 140.831 91.6203 140.49C91.3945 140.265 91.2153 139.998 91.093 139.704C90.9707 139.409 90.9077 139.094 90.9077 138.775C90.9077 138.456 90.9707 138.141 91.093 137.846C91.2153 137.552 91.3945 137.285 91.6203 137.06Z" fill="#FDD579"/>
<path d="M88.2 133.31C88.4804 133.032 88.8367 132.843 89.2243 132.767C89.6118 132.691 90.0131 132.732 90.3776 132.884C90.742 133.036 91.0534 133.292 91.2725 133.621C91.4915 133.949 91.6084 134.335 91.6084 134.73C91.6084 135.125 91.4915 135.511 91.2725 135.839C91.0534 136.168 90.742 136.424 90.3776 136.576C90.0131 136.728 89.6118 136.769 89.2243 136.693C88.8367 136.617 88.4804 136.428 88.2 136.15C88.0125 135.964 87.8638 135.743 87.7622 135.499C87.6607 135.255 87.6084 134.994 87.6084 134.73C87.6084 134.466 87.6607 134.205 87.7622 133.961C87.8638 133.717 88.0125 133.496 88.2 133.31Z" fill="#FDD579"/>
<path d="M89.7304 130.73C89.5827 130.878 89.4071 130.996 89.2139 131.077C89.0206 131.157 88.8133 131.199 88.6039 131.2C88.3945 131.2 88.1871 131.159 87.9935 131.08C87.7998 131 87.6238 130.883 87.4754 130.735C87.327 130.587 87.2092 130.412 87.1286 130.218C87.048 130.025 87.0063 129.818 87.0059 129.609C87.0054 129.399 87.0462 129.192 87.1259 128.998C87.2056 128.804 87.3227 128.628 87.4704 128.48C87.7688 128.18 88.174 128.011 88.5969 128.01C89.0197 128.01 89.4257 128.177 89.7254 128.475C90.0251 128.773 90.194 129.179 90.1949 129.601C90.1959 130.024 90.0288 130.43 89.7304 130.73Z" fill="#FDD579"/>
<path d="M90.8804 125.78C90.7164 125.943 90.5079 126.054 90.2812 126.098C90.0544 126.143 89.8196 126.119 89.6062 126.03C89.3929 125.941 89.2106 125.791 89.0824 125.599C88.9542 125.407 88.8857 125.181 88.8857 124.95C88.8857 124.719 88.9542 124.493 89.0824 124.301C89.2106 124.109 89.3929 123.959 89.6062 123.87C89.8196 123.781 90.0544 123.757 90.2812 123.802C90.5079 123.846 90.7164 123.957 90.8804 124.12C90.9898 124.229 91.0767 124.358 91.136 124.501C91.1952 124.643 91.2257 124.796 91.2257 124.95C91.2257 125.104 91.1952 125.257 91.136 125.399C91.0767 125.542 90.9898 125.671 90.8804 125.78Z" fill="#FDD579"/>
<path d="M94.2902 121.78C94.3605 121.851 94.4161 121.935 94.4539 122.027C94.4916 122.12 94.5108 122.219 94.5104 122.319C94.5099 122.418 94.4898 122.517 94.4511 122.609C94.4125 122.701 94.3561 122.785 94.2852 122.855C94.2143 122.925 94.1303 122.981 94.0378 123.019C93.9454 123.056 93.8465 123.076 93.7467 123.075C93.6469 123.075 93.5481 123.055 93.4561 123.016C93.364 122.977 93.2805 122.921 93.2102 122.85C93.1392 122.78 93.0827 122.697 93.0442 122.605C93.0057 122.513 92.9858 122.415 92.9858 122.315C92.9858 122.215 93.0057 122.117 93.0442 122.025C93.0827 121.933 93.1392 121.85 93.2102 121.78C93.2809 121.709 93.365 121.652 93.4577 121.613C93.5504 121.575 93.6498 121.555 93.7502 121.555C93.8506 121.555 93.9501 121.575 94.0428 121.613C94.1354 121.652 94.2196 121.709 94.2902 121.78Z" fill="#FDD579"/>
</g>
<defs>
<clipPath id="clip0_24_50">
<rect width="176.04" height="194.91" fill="white" transform="translate(47 38)"/>
</clipPath>
</defs>
</svg>
