<svg xmlns="http://www.w3.org/2000/svg" viewBox="0 0 169.04 187.91"><defs><style>.cls-1{fill:#fdd579;}</style></defs><g id="Layer_2" data-name="Layer 2"><g id="Layer_2-2" data-name="Layer 2"><path class="cls-1" d="M74.87,24a.14.14,0,0,0-.13.08c-1.22,4.67.17,6.25,2.69,7.76a14.78,14.78,0,0,1,6.76,7.56.38.38,0,0,0,.66,0,14.82,14.82,0,0,1,6.76-7.56c2.52-1.51,3.91-3.09,2.69-7.76a.15.15,0,0,0-.14-.08A8.17,8.17,0,0,0,88,28.2c3.35-6-2.25-15.42-3.35-17a.11.11,0,0,0-.2,0c-1.11,1.6-6.7,11.06-3.35,17A8.17,8.17,0,0,0,74.87,24Zm9.65-2.51c1.64,3.35,2.69,7,.89,10.55,1.52-1.77,3.54-1.77,5.31-3.29-.39,2.41-4.6,4-6.2,7.23-1.6-3.21-5.81-4.82-6.2-7.23,1.77,1.52,3.79,1.52,5.31,3.29C81.83,28.44,82.88,24.84,84.52,21.49Z"/><path class="cls-1" d="M84.12,117.91c.32.29.51.3.8,0,1-.9,4.77-4.84,2.29-9a6.56,6.56,0,0,0,5.16,0c.15-.07.06-.21-.09-.24a3.25,3.25,0,0,1-2.37-4.16c.54-1.6,3-4.41-.19-9a7,7,0,0,0,8.52,1.92c.11,0,.15-.18,0-.24A10.7,10.7,0,0,1,95,94.45a8.51,8.51,0,0,0,8.85-3.32.13.13,0,0,0-.11-.2c-7.81-.49-11.43-7-11.35-10.6-2,4.67.32,9,3.37,11.37-2.17-.39-3.89-3.07-4.84-4.89a24.67,24.67,0,0,0,.87,4.72c-9.17-12.68,3.56-32.16,9.54-31.18-3.67,2.59-5.6,7.48-5.9,11.38,4.56-7.76,13-13.45,21.2-7.26.11.08.11-.07.14-.21C118,56.69,109.58,51.47,100,56c-5.15,2.44-7.49,6.56-9.07,12.7-3.43-9,3.16-21.38,10.43-21.76-3.35,1.65-7.46,6.8-8.19,10.66a18,18,0,0,1,7.53-6.38c4.17-1.58,9.34-.9,12.44,2.47a.13.13,0,0,0,.23-.08c1.83-9.45-10-15.26-20-7.2-4.35,3.5-5.65,8.48-5.93,15.2C85.54,58,84.2,45.85,90.72,41.9c-1.77,2.59-2.59,4.61-2.67,7,2.91-6.57,9.89-8.4,13.53-7,.12,0,.15-.06.13-.21-.5-5-9.47-9.13-16.09.14a8.51,8.51,0,0,0-1.1,2.66,8.51,8.51,0,0,0-1.1-2.66c-6.62-9.27-15.59-5.09-16.09-.14,0,.15,0,.26.13.21,3.63-1.37,10.62.46,13.53,7-.08-2.4-.9-4.42-2.67-7,6.52,4,5.18,16.12,3.35,19.72-.28-6.72-1.58-11.7-5.93-15.2-10-8.06-21.88-2.25-20,7.2,0,.13.15.17.22.08,3.11-3.37,8.28-4.05,12.45-2.47a18,18,0,0,1,7.53,6.38c-.73-3.86-4.84-9-8.19-10.66,7.27.38,13.85,12.72,10.43,21.76-1.58-6.14-3.92-10.26-9.07-12.7-9.6-4.54-18,.68-16.8,8.25,0,.14,0,.29.13.21C60.62,58.28,69,64,73.6,71.73c-.3-3.9-2.23-8.79-5.9-11.38,6-1,18.71,18.5,9.54,31.18a25.47,25.47,0,0,0,.87-4.72c-1,1.82-2.67,4.5-4.85,4.89,3.06-2.35,5.36-6.7,3.37-11.37.09,3.58-3.53,10.11-11.34,10.6a.13.13,0,0,0-.11.2A8.51,8.51,0,0,0,74,94.45a10.82,10.82,0,0,1-3.27,2.67c-.12.06-.08.19,0,.24a7,7,0,0,0,8.52-1.92c-3.19,4.61-.73,7.42-.19,9a3.25,3.25,0,0,1-2.37,4.16c-.16,0-.25.17-.09.24a6.56,6.56,0,0,0,5.16,0C79.35,113.07,83.14,117,84.12,117.91Zm-3-11.54c3-1.77.76-5.06,1-7.59.21-1.44,1.42-2.72,2.41-4.1,1,1.38,2.2,2.66,2.41,4.1.25,2.53-2,5.82,1,7.59-1,.25-1.77-.51-2.78-.76a6.59,6.59,0,0,1-.64,6.88,6.59,6.59,0,0,1-.64-6.88C82.87,105.86,82.11,106.62,81.1,106.37Z"/><path class="cls-1" d="M78,21.24c-2.25-4.69-.85-9.67,2.59-11.95a11.18,11.18,0,0,0-2.21,6.94A20.45,20.45,0,0,1,84.51,7.3h0a20.45,20.45,0,0,1,6.12,8.93,11.18,11.18,0,0,0-2.21-6.94c3.44,2.28,4.84,7.26,2.59,12a.13.13,0,0,0,.25.1c2.54-3,4.81-6.94,2.69-10.92C92.6,7.85,86,3,84.65.1a.13.13,0,0,0-.26,0c-1.24,3-8,7.75-9.32,10.32-2.12,4,.15,8,2.68,10.92A.14.14,0,0,0,78,21.24Z"/><path class="cls-1" d="M95.79,179.26c-2.35-.16-4.69-.84-6-3.21-2-3.77-.28-7.87-.81-11.82-.13-1-.48-4.65-4.43-8.9a.06.06,0,0,0-.08,0c-4,4.25-4.3,7.91-4.43,8.9-.53,4,1.24,8.05-.81,11.82-1.3,2.37-3.64,3-6,3.21-.08,0-.13.11-.1.18a5.71,5.71,0,0,0,8.67,1.64c-.9,3.39,1.68,4.47,2.6,6.76a.11.11,0,0,0,.2,0c.91-2.29,3.5-3.37,2.6-6.76a5.7,5.7,0,0,0,8.66-1.64A.12.12,0,0,0,95.79,179.26ZM85.16,176.9a6.51,6.51,0,0,1-.64,4.77,6.51,6.51,0,0,1-.64-4.77,6.66,6.66,0,0,1-3,.76c2.32-2.65,2.27-4.8,2.27-7.33.24-4.44-1.42-8.37,1.4-13.57,2.82,5.2,1.16,9.13,1.4,13.57,0,2.53,0,4.68,2.27,7.33A6.66,6.66,0,0,1,85.16,176.9Z"/><path class="cls-1" d="M62.14,87.85c-.11.05-.22.2-.09.23,7.88,1.94,12.08-2,12.58-7,.53-5.36-3.12-12-11-14.39-20.26-6.09-33.17,20-18.93,31.22.47.23.88.24.68-.23-2.77-6.62-4-14.11-.71-19.13,4-6.83,14.66-8.09,20-4.55-5.56-.76-14.92,2-17,8.81a11.41,11.41,0,0,1,6.4-3.92C63.66,76.66,68.59,84.59,62.14,87.85Z"/><path class="cls-1" d="M24.8,81.56C25.91,83,27.65,83.78,29,85.05a21.91,21.91,0,0,1,3.8,4.83c-.54-6.39-6.12-7.24-6.79-13.09,1.35,1.42,2.27,2,3.79,2-1.67-2.49-2.36-6.66-.76-9.61-.25,2.78,1,5.06,2.53,7.08.5-4.8,4.8-8.09,8.6-10.62C37.87,69.2,34.84,71.73,33.82,76a6.69,6.69,0,0,1,5.31-2c-4.22,2.11-8.93,7-5.91,11.84.73-9.11,8.34-8,9-15.76,0-.12-.07-.19-.17-.16l-2.46.81a17.92,17.92,0,0,0,4.83-12.15c0-.13-.2-.2-.25-.06-1.52,4.35-5.09,4.9-8,6-2.53,1-4,3.39-4.88,6a11.08,11.08,0,0,0-2.42-6.94.13.13,0,0,0-.23.1c.1,4.43-4.9,4.49-2.53,11.51a5.65,5.65,0,0,0-6-1.23.13.13,0,0,0,0,.23C22.86,75.64,23.08,79.3,24.8,81.56Z"/><path class="cls-1" d="M65.79,33.77c3.12-.48,6.21-3.44,4.88-6.79a.14.14,0,0,0-.21-.08c-4.28,2.64-7.37-1.91-4.57-5,.79-.87,3.33-1.44,5.19-1.46-2.52-.69-5.46-.57-7.3,1-2.52,2-1.36,7.65,2.44,8.15a4.32,4.32,0,0,1-5.34-5.37,6.7,6.7,0,0,1,2.9-4c3.64-1.84,7.73-1.62,13.37,2.67.13.1.28,0,.19-.16C73.77,17.28,63.56,16.05,59.58,21a8.52,8.52,0,0,0-.92,9.1A7.06,7.06,0,0,0,65.79,33.77Z"/><path class="cls-1" d="M43,135.19c.6-.87,2.1-2.78.51-4.75a7.17,7.17,0,0,0,3.73-.53.13.13,0,0,0,0-.22c-2-1.9,2.43-4.62,4.42-4.71-4.9-1.11-7.27,1.86-6.76,3.89-1.42.06-1.7-1.77-.76-2.78-2,1-6.26,5.27-7.27,9.94a7.1,7.1,0,0,1,3-8.43,10.57,10.57,0,0,0-4,.51c4.33-2.74,10.33-6.54,19.77-3.15.62.11,1-.84-.12-1-5.61-1-10.47-4.44-12.73-8.18-2.52-4.17-.49-5.63-1.36-9.57-.73-3.28-4.47-3.1-3.79-7,0-.13-.07-.19-.19-.16a3.29,3.29,0,0,0-2.38,2.56c-.79,3,.93,5.64-.25,6.53a1.26,1.26,0,0,1-1.65-.1c-1.43-1.37,1.33-5.75,1.39-6.52C35,94.26,31,91.2,27.05,90c-.12,0-.23,0-.19.14a4.28,4.28,0,0,1-.32,3.29c-1.35-4-3.45-8.48-8-9.37a.13.13,0,0,0-.14.17,8.2,8.2,0,0,1,.71,3.4C16.72,81.93,8.54,76,.11,79c-.11,0-.16.2,0,.24a7.21,7.21,0,0,1,3.8,3.18,10.34,10.34,0,0,1,.92,5.84c-.11,2.53-.14,5.7,2,7.41l-3.53-.93c-.08,0-.18.09-.13.17a15.29,15.29,0,0,0,8.82,7.47l-2.79-.13c-.11,0-.15.09-.12.2,2,7.5,8.18,2.57,16.21,5.35-1.16-2.37-5.95-3.24-8.34-3.48a9.61,9.61,0,0,1,4.55-.75c-3-2.66-7-2.91-11.13-4.3a16.72,16.72,0,0,1,9.36,1.51c-2.34-5.24-9.61-6.57-9.61-15.67,4.3,8,8.85,7.58,10.87,12.2,1.77-1.52,1.52-5.12,1.27-7.14,3.28,2.52,1.26,9.35,5.05,11.88a26.67,26.67,0,0,0,1.52-6.58c3.47,5.88-2.28,10.88.2,16-4.88-4-12.17-2.48-12.55,1.67,0,.06.08.1.14.08,2.4-.53,4.73.5,6.66,1.88,3,2.15,5.41,4.73,8.93,6.22,3.91,1.66,6,1.4,7.49.06-8.81-1.18-8.3-6.2-14.16-8.18,5.31-.55,7.84,5.69,12.39,5.06-2-2-1.73-5.1-.72-7.38a7,7,0,0,0-.21-5.89,4.54,4.54,0,0,1,1.9,3.75c.31,5.6-.09,9.26,4.51,13.52-3.79,0-5.18,1.49-6.42,2.28-1.68,1.06-2.35,2.57-5.41,2.07a.14.14,0,0,0-.18.12,3.36,3.36,0,0,0,3.48,3c-3.86,1.63-3.78,8.79,3,10.07.09,0,.12-.1.1-.17C37.23,136.92,41.39,137.58,43,135.19Z"/><path class="cls-1" d="M74.82,145c.11-.06,0-.21-.09-.23-9-1.45-9,5.83-8.46,7.31,1.21,3.3,5.16,4.6,8.38,4.35,10.25-.79,10.48-11.16,6.74-17.19-6-9.65-13.84-11.76-19.85-11.76-5.47,0-12.74,1.61-13.13,7.5a5.51,5.51,0,0,0,2.18,4.33c4.49,3.86,11.26,3.23,14.25,1.69,2.15-1.11,4.57-3.12,5.45-7.8-.71-.63-1.55-.71-2.93-1-.56,2.84-4.53,6.2-7.7,6.4-6.9.44-4.74-5.27-.5-6.92,2.53-1,9.66-3.81,19.06,6.46a4.49,4.49,0,0,0-4.48,3.08c0,.12.11.15.2.12,4.09-1.33,9.21,5.22,6.66,10-1.68,4.06-10.66,3.54-10.62-2,1.41,3.22,5.14,4.63,7.83,2.49a2.55,2.55,0,0,0,.3-.26C73.92,153.84,70.15,147.24,74.82,145Z"/><path class="cls-1" d="M55.44,122.12c4,1.37,10.74,2.1,11.7,4.72a6.87,6.87,0,0,1,3.49,1.56c-2.86-8.19-10.26-7-15.25-11.23C49.14,111.84,47.94,105.33,49,103c4-8.68,16.87-6.62,18.59,1.22,1,4.42-3.16,8.43-6.7,7.42a4.93,4.93,0,0,1-3.29-3c1.67,2.22,5.14,2.23,6.26.47-2.24-.08-4.46-1.85-3.63-5.32,0-.05-.1,0-.15,0-6.27-.46-7.89,6.93-2.89,10.2,7,4.55,12.19-1.54,12.92-5.48,2.22-11.9-15.67-19-22.26-8-1.11,1.85-2.89,6.32.44,12.55a11.66,11.66,0,0,1-4.22-7.14.12.12,0,0,0-.22-.07C40.52,111.5,44,118.2,55.44,122.12Z"/><path class="cls-1" d="M73,115c-7.3-2.45-7.58,12.75,4.43,14.2-6.82-2.66-7.22-8.52-5.7-10.2.25,1,0,2.27,1,3a4,4,0,0,1,1.52-3.29c-2.28,4.77,1.89,8.69,5.81,9.36a7,7,0,0,1,1.26-3c.62,2.47-1.85,6.49.48,8.83.34.34.64.12.52-.31-.81-3.08.42-4.45.68-5.4.56-2-1.48-4.53.1-6.33a.13.13,0,0,0-.12-.2,3.51,3.51,0,0,0-3.21,3.12,7.16,7.16,0,0,1-.44-2.48c0-.12-.16-.15-.23-.07a4.51,4.51,0,0,0-1,2.18c-4.53-2.43-2.38-6.8,1.35-6.33.08,0,.11-.13.06-.19a6.3,6.3,0,0,0-7.42-1.47l.94-1.2A.14.14,0,0,0,73,115Z"/><path class="cls-1" d="M78.28,169.25a16.73,16.73,0,0,1,.7-8.2c-4.73,2.67-3,7.68-6.73,11,3-6.07,1-7.67,2.73-10a8.42,8.42,0,0,1-7.78,1.15c7.58-1.43,7.78-5.9,12.74-6.81-12.94.6-14,9.88-24.26,8.14-.13,0-.08.14,0,.24,3.84,6.94,12.06,4.5,14.31,1.83,1.14,2-2.83,3.17-1.47,5.91,1.16,2.32.48,5.18-1.48,6.33-.08.05,0,.15.13.17C73.34,180.12,80.48,174.88,78.28,169.25Z"/><path class="cls-1" d="M56.36,160.51a4.61,4.61,0,0,0,3.25-1.35,11.87,11.87,0,0,1,3.07-2.59c-2.86-.82-5.6,2.89-7.87,2.13,1.77-.51,2.78-2.28,4.3-3-2.28,0-4.55.26-6.83-1a11.47,11.47,0,0,0,3.79,0c-2.19-.8-5.31-2.78-5.31-5.81,1.27,4,7.55,5.86,9.82,4.17,1-.51.55-2.65,1.56-3.92-.24,2.83,0,6.23,4.1,6.41-3.69-2.38-2.31-7.15-.85-7.88a.13.13,0,0,0,0-.22,2.26,2.26,0,0,0-.93-.35c1.13-.92-.22-3.6,1.32-4.21.14-.05.07-.21-.07-.24-3.35-.59-6.34,1.18-6.47,3.84a2.81,2.81,0,0,0-2.62-2.09.17.17,0,0,0-.14.11c-.77,1.93-.1,6.36,3.28,7.42-3.21.9-5.43-2.54-6.86-4.87-1.27-2.06-3-4.34-5.61-4.48a.12.12,0,0,0-.11.2,3.92,3.92,0,0,1,1,2.68,7.22,7.22,0,0,0-7-2.79.13.13,0,0,0,0,.23c2.26,2,2,5.37,3.42,7.81a4.64,4.64,0,0,0,3.08,2.17c1.52.33,3.13.2,4.6.7a3.32,3.32,0,0,0-3,3.91.12.12,0,0,0,.17.09,9.3,9.3,0,0,1,5.32-.36,3.3,3.3,0,0,0-1.64,5.76c.1.09.28.08.24-.07C52.82,161.11,55.15,160.61,56.36,160.51Z"/><path class="cls-1" d="M35.72,124.1c.11,0,.16-.22,0-.24-6.48-1.06-11.24-3.8-12.78-7.71,0-.06-.12-.05-.17,0-1.52,1.18-1.49,4.93,1.18,6.13a6.59,6.59,0,0,1-2.3.25.13.13,0,0,0-.11.21A6.39,6.39,0,0,0,26,125.14a3.11,3.11,0,0,0-2.37,2c0,.07-.07.15,0,.2,1.79,1.15,3.78.27,5.29-.91a3,3,0,0,0,.25,1.89.13.13,0,0,0,.24-.07C29.29,126.68,31.13,123.89,35.72,124.1Z"/><path class="cls-1" d="M66.48,16.39c1.19.16,3.59-.06,6,1.35a.21.21,0,0,0,.26-.31C71.52,16,69.62,15.54,68.5,15.1a4.19,4.19,0,0,1,2.49,0c-.32-.51-.11-.95-.19-1.37A6.45,6.45,0,0,1,74,18.49c0,.1.31.11.3,0-.26-3.56-1.91-6.38-2.63-7-2.08-1.62-2.91.65-2.3,1.5C64.92,11,62.71,15.89,66.48,16.39Z"/><path class="cls-1" d="M44.2,53.75h0v0Z"/><path class="cls-1" d="M32.67,64.89a.1.1,0,0,0,.13,0c1.65-2.82,5.59-2.19,7.84-4.23.6-.55,1-1.26,1.62-1.83a4.86,4.86,0,0,1,2.32-1.26,3.06,3.06,0,0,1,3.75,2.56.13.13,0,0,0,.18.1c2.63-1.42.69-4-.12-4.17a4.3,4.3,0,0,1,1.82,0c.14,0,.12-.12.09-.23-.67-2.3-4.8-2.89-6.49-1.67.39-2.57,1.42-8.2,4.43-10.7-.34,1-1.35,2.69-.51,4,1.26-3,4.3-4.55,7.08-5.56C52,43.42,52,47.21,49.5,48.22c-1.86.93-3.72,2.29-3.81,4.27,2.16-1.12,4.13,0,6.23-2.06a13.63,13.63,0,0,0,2.65-4.61C56,42.53,61.87,39.7,64,39.34a.13.13,0,0,0,0-.24c-5-2.45-10.57-1-14.22,3.25.19-.47.38-1,.58-1.42,0-.11-.07-.15-.17-.16-3.46-.26-7,4.73-6,7.64a5,5,0,0,0-1-1.66.13.13,0,0,0-.22.06l-.06.43a4.47,4.47,0,0,0-1.73-2.38.13.13,0,0,0-.2.12,4.84,4.84,0,0,1,.07,3c-1.53,3.49,1,5.4-.94,7.7a2.58,2.58,0,0,0-.92-1.88c-.08-.07-.18,0-.2.09-.13.6-.26,1.21-.4,1.81a2.86,2.86,0,0,0-3.64-2.13.13.13,0,0,0-.08.2c2.75,4.16-2.11,5.87-2.34,11.14C32.46,65,32.61,65,32.67,64.89Z"/><path class="cls-1" d="M105.38,66.7c-7.85,2.36-11.5,9-11,14.39.5,5,4.7,8.93,12.58,7,.13,0,0-.18-.09-.23-6.45-3.26-1.52-11.19,8.07-8.95a11.35,11.35,0,0,1,6.39,3.92c-2.07-6.79-11.43-9.57-17-8.81,5.31-3.54,15.93-2.28,20,4.55,3.28,5,2.06,12.51-.71,19.13-.2.47.21.46.68.23C138.54,86.65,125.64,60.61,105.38,66.7Z"/><path class="cls-1" d="M132.9,64.57c-3-1.14-6.53-1.69-8.05-6,0-.14-.25-.07-.25.06a17.92,17.92,0,0,0,4.83,12.15L127,69.93c-.09,0-.18,0-.17.16.69,7.78,8.3,6.65,9,15.76,3-4.85-1.69-9.73-5.92-11.84a6.66,6.66,0,0,1,5.31,2c-1-4.3-4-6.83-6.32-10.37,3.8,2.53,8.09,5.82,8.6,10.62,1.52-2,2.78-4.3,2.53-7.08,1.6,3,.91,7.12-.76,9.61,1.52,0,2.44-.6,3.79-2-.67,5.85-6.25,6.7-6.79,13.09a21.62,21.62,0,0,1,3.8-4.83c1.33-1.27,3.07-2,4.18-3.49,1.71-2.26,1.94-5.92,4.68-7.29a.13.13,0,0,0,0-.23,5.65,5.65,0,0,0-6,1.23c2.37-7-2.63-7.08-2.53-11.51a.13.13,0,0,0-.23-.1,11.15,11.15,0,0,0-2.43,6.94C136.94,68,135.42,65.54,132.9,64.57Z"/><path class="cls-1" d="M91.7,22.7c-.09.13.06.26.19.16,5.64-4.29,9.73-4.51,13.37-2.67a6.7,6.7,0,0,1,2.9,4,4.32,4.32,0,0,1-5.34,5.37c3.79-.5,5-6.13,2.44-8.15-1.84-1.52-4.78-1.64-7.3-1,1.86,0,4.4.59,5.19,1.46,2.8,3.06-.3,7.61-4.57,5a.14.14,0,0,0-.21.08c-1.33,3.35,1.76,6.31,4.88,6.79a7.06,7.06,0,0,0,7.13-3.71,8.54,8.54,0,0,0-.92-9.1C105.48,16.05,95.27,17.28,91.7,22.7Z"/><path class="cls-1" d="M168.93,79c-8.43-3-16.61,2.91-19,8.61a8.2,8.2,0,0,1,.71-3.4.13.13,0,0,0-.14-.17c-4.55.89-6.65,5.39-8,9.37a4.32,4.32,0,0,1-.31-3.29c0-.11-.07-.18-.2-.14-3.9,1.2-8,4.26-7.48,11.51.06.77,2.82,5.15,1.38,6.52a1.25,1.25,0,0,1-1.64.1c-1.18-.89.54-3.57-.25-6.53A3.29,3.29,0,0,0,131.61,99c-.12,0-.21,0-.19.16.68,3.88-3.06,3.7-3.79,7-.87,3.94,1.16,5.4-1.36,9.57-2.26,3.74-7.12,7.19-12.73,8.18-1.14.19-.74,1.14-.12,1,9.44-3.39,15.44.41,19.77,3.15a10.57,10.57,0,0,0-4-.51,7.1,7.1,0,0,1,3,8.43c-1-4.67-5.28-9-7.27-9.94.94,1,.66,2.84-.76,2.78.51-2-1.86-5-6.76-3.89,2,.09,6.38,2.81,4.41,4.71a.14.14,0,0,0,0,.22,7.17,7.17,0,0,0,3.73.53c-1.59,2-.09,3.88.5,4.75,1.64,2.39,5.8,1.73,5.12,4.39,0,.07,0,.19.1.17,6.76-1.28,6.85-8.44,3-10.07a3.36,3.36,0,0,0,3.48-3,.14.14,0,0,0-.18-.12c-3.06.5-3.73-1-5.41-2.07-1.24-.79-2.63-2.28-6.42-2.28,4.6-4.26,4.2-7.92,4.51-13.52a4.51,4.51,0,0,1,1.9-3.75,7,7,0,0,0-.21,5.89c1,2.28,1.32,5.36-.72,7.38,4.55.63,7.08-5.61,12.39-5.06-5.86,2-5.35,7-14.16,8.18,1.47,1.34,3.58,1.6,7.49-.06,3.52-1.49,5.94-4.07,8.93-6.22,1.93-1.38,4.26-2.41,6.66-1.88.05,0,.14,0,.13-.08-.37-4.15-7.66-5.71-12.54-1.67,2.48-5.09-3.27-10.09.2-16a26.22,26.22,0,0,0,1.52,6.58c3.79-2.53,1.77-9.36,5.05-11.88-.25,2-.5,5.62,1.27,7.14,2-4.62,6.57-4.17,10.87-12.2,0,9.1-7.27,10.43-9.61,15.67a16.72,16.72,0,0,1,9.36-1.51c-4.11,1.39-8.09,1.64-11.13,4.3a9.61,9.61,0,0,1,4.55.75c-2.39.24-7.18,1.11-8.34,3.48,8-2.78,14.22,2.15,16.21-5.35,0-.11,0-.2-.12-.2l-2.79.13a15.29,15.29,0,0,0,8.82-7.47.13.13,0,0,0-.14-.17l-3.53.93c2.13-1.71,2.1-4.88,2-7.41a10.43,10.43,0,0,1,.93-5.84,7.21,7.21,0,0,1,3.8-3.18C169.09,79.22,169,79.06,168.93,79Z"/><path class="cls-1" d="M109.38,138.6c-3.17-.2-7.14-3.56-7.71-6.4-1.37.25-2.21.33-2.92,1,.88,4.68,3.3,6.69,5.45,7.8,3,1.54,9.76,2.17,14.25-1.69a5.51,5.51,0,0,0,2.18-4.33c-.39-5.89-7.66-7.5-13.13-7.5-6,0-13.86,2.11-19.85,11.76-3.75,6-3.51,16.4,6.74,17.19,3.22.25,7.17-1,8.38-4.35.54-1.48.51-8.76-8.46-7.31-.13,0-.2.17-.09.23,4.67,2.28.9,8.88-3.29,6.65l.29.26c2.7,2.14,6.43.73,7.84-2.49,0,5.53-8.94,6.05-10.62,2-2.56-4.81,2.57-11.36,6.66-10,.09,0,.23,0,.2-.12a4.49,4.49,0,0,0-4.48-3.08c9.4-10.27,16.52-7.44,19.06-6.46C114.12,133.33,116.28,139,109.38,138.6Z"/><path class="cls-1" d="M125.2,105.83a.12.12,0,0,0-.22.07,11.66,11.66,0,0,1-4.22,7.14c3.33-6.23,1.55-10.7.44-12.55-6.59-11-24.48-3.92-22.26,8,.73,3.94,5.94,10,12.92,5.48,5-3.27,3.38-10.66-2.89-10.2,0,0-.16,0-.15,0,.83,3.47-1.39,5.24-3.63,5.32,1.12,1.76,4.59,1.75,6.26-.47a5,5,0,0,1-3.29,3c-3.54,1-7.67-3-6.7-7.42,1.72-7.84,14.58-9.9,18.59-1.22,1,2.29-.16,8.8-6.39,14.13-5,4.28-12.39,3-15.25,11.23a6.87,6.87,0,0,1,3.49-1.56c.95-2.62,7.7-3.35,11.7-4.72C125,118.2,128.51,111.5,125.2,105.83Z"/><path class="cls-1" d="M91.59,129.21c12-1.45,11.73-16.65,4.43-14.2a.14.14,0,0,0-.08.21l.94,1.2a6.3,6.3,0,0,0-7.42,1.47c0,.06,0,.2.05.19,3.74-.47,5.89,3.9,1.36,6.33a4.44,4.44,0,0,0-1-2.18.12.12,0,0,0-.22.07,7.16,7.16,0,0,1-.44,2.48A3.51,3.51,0,0,0,86,121.66a.13.13,0,0,0-.12.2c1.58,1.8-.46,4.29.1,6.33.26.95,1.49,2.32.67,5.4-.11.43.19.65.53.31,2.33-2.34-.14-6.36.47-8.83a6.91,6.91,0,0,1,1.27,3c3.92-.67,8.09-4.59,5.81-9.36A4,4,0,0,1,96.28,122c1-.76.76-2,1-3C98.81,120.69,98.41,126.55,91.59,129.21Z"/><path class="cls-1" d="M113.36,164.58C103.05,166.32,102,157,89.1,156.44c5,.91,5.16,5.38,12.74,6.81a8.45,8.45,0,0,1-7.79-1.15c1.77,2.33-.26,3.93,2.74,10-3.75-3.37-2-8.38-6.74-11a16.65,16.65,0,0,1,.71,8.2c-2.2,5.63,4.94,10.87,11.12,9.81.09,0,.22-.12.14-.17-2-1.15-2.64-4-1.49-6.33,1.37-2.74-2.61-3.94-1.46-5.91,2.25,2.67,10.47,5.11,14.31-1.83C113.44,164.72,113.49,164.55,113.36,164.58Z"/><path class="cls-1" d="M120.83,145.41a3.92,3.92,0,0,1,1-2.68.12.12,0,0,0-.11-.2c-2.65.14-4.34,2.42-5.61,4.48-1.43,2.33-3.65,5.77-6.87,4.87,3.39-1.06,4.06-5.49,3.29-7.42a.17.17,0,0,0-.14-.11,2.81,2.81,0,0,0-2.62,2.09c-.13-2.66-3.12-4.43-6.47-3.84-.14,0-.21.19-.08.24,1.55.61.2,3.29,1.33,4.21a2.26,2.26,0,0,0-.93.35.13.13,0,0,0,0,.22c1.46.73,2.85,5.5-.84,7.88,4.1-.18,4.33-3.58,4.1-6.41,1,1.27.55,3.41,1.56,3.92,2.27,1.69,8.55-.13,9.82-4.17,0,3-3.12,5-5.31,5.81a11.47,11.47,0,0,0,3.79,0c-2.28,1.27-4.55,1-6.83,1,1.52.76,2.53,2.53,4.3,3-2.27.76-5-2.95-7.87-2.13a11.87,11.87,0,0,1,3.07,2.59,4.6,4.6,0,0,0,3.24,1.35c1.22.1,3.55.6,3,2.35,0,.15.14.16.24.07a3.3,3.3,0,0,0-1.65-5.76,9.33,9.33,0,0,1,5.33.36.12.12,0,0,0,.17-.09,3.32,3.32,0,0,0-3-3.91c1.48-.5,3.09-.37,4.61-.7a4.64,4.64,0,0,0,3.08-2.17c1.46-2.44,1.16-5.85,3.42-7.81a.13.13,0,0,0,0-.23A7.22,7.22,0,0,0,120.83,145.41Z"/><path class="cls-1" d="M145.06,122.27c2.67-1.2,2.7-5,1.18-6.13-.05,0-.15,0-.18,0-1.53,3.91-6.3,6.65-12.77,7.71-.13,0-.08.25,0,.24,4.59-.21,6.43,2.58,6.31,4.15a.13.13,0,0,0,.24.07,3,3,0,0,0,.25-1.89c1.51,1.18,3.5,2.06,5.29.91.07,0,0-.13,0-.2a3.11,3.11,0,0,0-2.38-2,6.39,6.39,0,0,0,4.44-2.41.13.13,0,0,0-.11-.21A6.59,6.59,0,0,1,145.06,122.27Z"/><path class="cls-1" d="M95.06,18.49a6.45,6.45,0,0,1,3.18-4.76c-.08.42.13.86-.19,1.37a4.19,4.19,0,0,1,2.49,0c-1.12.44-3,.92-4.28,2.33a.21.21,0,0,0,.26.31c2.45-1.41,4.85-1.19,6-1.35,3.77-.5,1.56-5.35-2.87-3.38.6-.85-.22-3.12-2.3-1.5-.72.57-2.37,3.39-2.63,7C94.75,18.6,95,18.59,95.06,18.49Z"/><path class="cls-1" d="M124.84,53.75v0Z"/><path class="cls-1" d="M118.69,40.93c.19.47.38,1,.58,1.42-3.65-4.27-9.21-5.7-14.22-3.25a.13.13,0,0,0,0,.24c2.09.36,8,3.19,9.39,6.48a13.46,13.46,0,0,0,2.65,4.61c2.1,2.09,4.07.94,6.23,2.06-.09-2-1.95-3.34-3.81-4.27-2.53-1-2.53-4.8-5.31-6.32,2.78,1,5.82,2.53,7.08,5.56.84-1.35-.17-3-.51-4,3,2.5,4,8.13,4.43,10.7-1.69-1.22-5.82-.63-6.49,1.67,0,.11,0,.26.08.23a4.34,4.34,0,0,1,1.83,0c-.81.2-2.75,2.75-.12,4.17a.12.12,0,0,0,.17-.1,3.07,3.07,0,0,1,3.76-2.56,4.86,4.86,0,0,1,2.32,1.26c.59.57,1,1.28,1.62,1.83,2.25,2,6.19,1.41,7.84,4.23a.1.1,0,0,0,.13,0c.06.07.21.09.21,0-.23-5.27-5.1-7-2.35-11.14a.12.12,0,0,0-.07-.2,2.86,2.86,0,0,0-3.64,2.13c-.14-.6-.27-1.21-.4-1.81,0-.09-.12-.16-.2-.09a2.58,2.58,0,0,0-.92,1.88c-1.94-2.3.59-4.21-.94-7.7a4.84,4.84,0,0,1,.07-3,.13.13,0,0,0-.2-.12,4.47,4.47,0,0,0-1.73,2.38l-.06-.43a.13.13,0,0,0-.22-.06,5,5,0,0,0-1,1.66c1-2.91-2.57-7.9-6-7.64C118.76,40.78,118.65,40.82,118.69,40.93Z"/><path class="cls-1" d="M111.47,36.42c1.16.34,3.55.51,5.76,2.28a.2.2,0,0,0,.3-.27c-1-1.59-2.82-2.35-3.86-3a4.15,4.15,0,0,1,2.46.39c-.24-.55,0-1,0-1.38a6.48,6.48,0,0,1,2.39,5.2c0,.1.29.16.3,0,.3-3.55-.89-6.61-1.51-7.28-1.8-1.93-3,.19-2.5,1.12C110.77,30.89,107.83,35.34,111.47,36.42Z"/><path class="cls-1" d="M50.49,39.67a6.48,6.48,0,0,1,2.39-5.2c0,.43.26.83,0,1.38a4.15,4.15,0,0,1,2.46-.39c-1,.62-2.84,1.38-3.86,3a.2.2,0,0,0,.3.27c2.2-1.77,4.6-1.94,5.75-2.28,3.65-1.08.71-5.53-3.36-2.89.47-.93-.7-3.05-2.5-1.12-.63.67-1.82,3.73-1.51,7.28C50.2,39.83,50.49,39.77,50.49,39.67Z"/><path class="cls-1" d="M112.31,83.08a2.43,2.43,0,1,0-2.42,2.43A2.42,2.42,0,0,0,112.31,83.08Z"/><circle class="cls-1" cx="115.37" cy="83.32" r="2.01"/><circle class="cls-1" cx="119.72" cy="86.22" r="1.59"/><path class="cls-1" d="M123.16,90.53a1.18,1.18,0,0,0-2.35,0,1.18,1.18,0,1,0,2.35,0Z"/><circle class="cls-1" cx="121.23" cy="95.02" r="0.76"/><path class="cls-1" d="M56.73,83.08a2.43,2.43,0,1,0,2.42-2.42A2.42,2.42,0,0,0,56.73,83.08Z"/><path class="cls-1" d="M51.66,83.32a2,2,0,1,0,2-2A2,2,0,0,0,51.66,83.32Z"/><path class="cls-1" d="M50.91,86.22a1.59,1.59,0,1,0-1.59,1.59A1.6,1.6,0,0,0,50.91,86.22Z"/><path class="cls-1" d="M48.23,90.53a1.18,1.18,0,1,0-1.18,1.18A1.17,1.17,0,0,0,48.23,90.53Z"/><path class="cls-1" d="M47.81,95.78a.76.76,0,1,0-.76-.76A.76.76,0,0,0,47.81,95.78Z"/><path class="cls-1" d="M51.9,110.19A1.21,1.21,0,1,0,50.7,109,1.2,1.2,0,0,0,51.9,110.19Z"/><path class="cls-1" d="M52.69,104.75a1.21,1.21,0,1,0-1.2,1.21A1.2,1.2,0,0,0,52.69,104.75Z"/><path class="cls-1" d="M54.36,101.68a1.21,1.21,0,1,0-1.2,1.21A1.2,1.2,0,0,0,54.36,101.68Z"/><path class="cls-1" d="M57.32,99.9a1.21,1.21,0,1,0-1.21,1.21A1.21,1.21,0,0,0,57.32,99.9Z"/><path class="cls-1" d="M60.77,99.54a1.21,1.21,0,1,0-1.21,1.21A1.21,1.21,0,0,0,60.77,99.54Z"/><path class="cls-1" d="M62.72,99.52a1.21,1.21,0,1,0,1.21,1.21A1.21,1.21,0,0,0,62.72,99.52Z"/><path class="cls-1" d="M64.79,104.79a1.21,1.21,0,1,0-1.2-1.2A1.21,1.21,0,0,0,64.79,104.79Z"/><circle class="cls-1" cx="117.14" cy="108.98" r="1.2"/><path class="cls-1" d="M118.75,104.75a1.2,1.2,0,1,0-1.2,1.21A1.2,1.2,0,0,0,118.75,104.75Z"/><path class="cls-1" d="M115.88,100.48a1.21,1.21,0,1,0,1.21,1.2A1.2,1.2,0,0,0,115.88,100.48Z"/><path class="cls-1" d="M111.72,99.9a1.21,1.21,0,1,0,1.21-1.2A1.21,1.21,0,0,0,111.72,99.9Z"/><path class="cls-1" d="M108.27,99.54a1.21,1.21,0,1,0,1.21-1.2A1.21,1.21,0,0,0,108.27,99.54Z"/><path class="cls-1" d="M106.32,101.93a1.21,1.21,0,1,0-1.21-1.2A1.2,1.2,0,0,0,106.32,101.93Z"/><path class="cls-1" d="M104.25,102.38a1.21,1.21,0,1,0,1.2,1.21A1.21,1.21,0,0,0,104.25,102.38Z"/></g></g></svg>