<svg xmlns="http://www.w3.org/2000/svg" viewBox="0 0 595.28 15.85"><defs><style>.cls-1{fill:#99252e;}</style></defs><g id="Layer_2" data-name="Layer 2"><g id="Layer_1-2" data-name="Layer 1"><path class="cls-1" d="M7.15,8a4.06,4.06,0,0,0-1.78.3A2.34,2.34,0,0,0,4.06,9.55a1.65,1.65,0,0,0,.38,1.8,1.85,1.85,0,0,0,1.75.42,2,2,0,0,0,1.35-1.08c.17-.41-.16-.58-.34-.28a1.6,1.6,0,0,1-2,.53.84.84,0,0,1-.45-.76,1.18,1.18,0,0,1,.46-.92,3,3,0,0,1,2.72-.4,1.34,1.34,0,0,1,.86.9,2.63,2.63,0,0,1,0,1.44A5.32,5.32,0,0,1,5.1,14.78a5.49,5.49,0,0,1-2.7.12A2.91,2.91,0,0,1,.26,13.42c-.07-.18-.28-.18-.26,0a2.61,2.61,0,0,0,1.79,1.94,5.36,5.36,0,0,0,3,.21,6,6,0,0,0,2.69-1.29A6.47,6.47,0,0,0,9.1,12.1a4.53,4.53,0,0,0,.45-1.75,2.26,2.26,0,0,0-.67-1.74A2.7,2.7,0,0,0,7.15,8Z"/><path class="cls-1" d="M20.12,13.38a3.7,3.7,0,0,1-2,1,7.35,7.35,0,0,1-2.44.07,5.89,5.89,0,0,1-2.38-.83,4.75,4.75,0,0,1-1.65-1.75,3.57,3.57,0,0,1-.45-1.51A1.7,1.7,0,0,1,11.68,9a3,3,0,0,1,3-.28,1.89,1.89,0,0,1,1.09,1,1.25,1.25,0,0,1-.24,1.36,1.79,1.79,0,0,1-2.71-.45c-.18-.31-.57-.41-.44.11A2.31,2.31,0,0,0,15.62,12a2.12,2.12,0,0,0,.77-.75,1.87,1.87,0,0,0,.26-1.07,2.35,2.35,0,0,0-.95-1.76,3.77,3.77,0,0,0-1.85-.68A3.84,3.84,0,0,0,11.91,8a2.25,2.25,0,0,0-1.32,1.56,3.32,3.32,0,0,0,.17,1.91A5.86,5.86,0,0,0,15.07,15a7,7,0,0,0,2.78,0,3.63,3.63,0,0,0,2.44-1.45C20.4,13.37,20.24,13.25,20.12,13.38Z"/><path class="cls-1" d="M15.52,7c.2.1.35,0,.19-.18h0c.23.08.38-.07.16-.37a42.59,42.59,0,0,0-4.61-5.34l-1.05-1L10.11,0S10.05,0,10,0L9.88.2,9.59.55l-.46.55L7.93,2.62,6.75,4.16l-.58.76-.73.93-.72.88-.34.42c0,.06-.14.15-.14.18v.09c.44-.13,1-.28,1.39-.38a3.64,3.64,0,0,1,.58-.11c.18,0,.37,0,.45,0A5,5,0,0,1,8,7.05a4.74,4.74,0,0,1,1.24.5l.28.19.3.25.15.15L10,8.2l.07-.08a2.73,2.73,0,0,1,.27-.31,4.14,4.14,0,0,1,2.44-1.16A5,5,0,0,1,15.52,7Z"/><path class="cls-1" d="M29,7.9a4,4,0,0,0,1.78-.31A2.32,2.32,0,0,0,32.11,6.3a1.62,1.62,0,0,0-.39-1.79A1.87,1.87,0,0,0,30,4.08a2.06,2.06,0,0,0-1.36,1.09c-.16.4.17.58.35.28a1.59,1.59,0,0,1,2-.53.84.84,0,0,1,.45.75,1.17,1.17,0,0,1-.46.92A3,3,0,0,1,28.23,7a1.34,1.34,0,0,1-.85-.9,2.58,2.58,0,0,1,.05-1.45,5.3,5.3,0,0,1,3.64-3.58A5.6,5.6,0,0,1,33.77,1a2.88,2.88,0,0,1,2.14,1.48c.07.18.27.17.26,0A2.62,2.62,0,0,0,34.38.49a5.46,5.46,0,0,0-3-.21,6,6,0,0,0-2.69,1.29,6.43,6.43,0,0,0-1.67,2.18,4.41,4.41,0,0,0-.45,1.76,2.24,2.24,0,0,0,.67,1.74A2.81,2.81,0,0,0,29,7.9Z"/><path class="cls-1" d="M16,2.48a3.7,3.7,0,0,1,2-1,7.7,7.7,0,0,1,2.45-.08,5.79,5.79,0,0,1,2.37.83A4.7,4.7,0,0,1,24.52,4,3.76,3.76,0,0,1,25,5.52a1.72,1.72,0,0,1-.48,1.37,3,3,0,0,1-3,.27,1.86,1.86,0,0,1-1.08-1,1.24,1.24,0,0,1,.24-1.36,1.78,1.78,0,0,1,2.71.44c.17.32.57.42.44-.1a2.25,2.25,0,0,0-4-.5,2,2,0,0,0-.25,1.07,2.31,2.31,0,0,0,.95,1.76,3.69,3.69,0,0,0,1.85.69,3.81,3.81,0,0,0,1.93-.27,2.23,2.23,0,0,0,1.33-1.56,3.32,3.32,0,0,0-.17-1.91A5.84,5.84,0,0,0,21.1.85a6.9,6.9,0,0,0-2.79,0,3.56,3.56,0,0,0-2.43,1.46C15.76,2.49,15.93,2.61,16,2.48Z"/><path class="cls-1" d="M31.79,8.71c0-.06.13-.16.13-.19V8.43c-.44.14-1,.28-1.39.39a3.53,3.53,0,0,1-.58.1,2.88,2.88,0,0,1-.46,0,5.34,5.34,0,0,1-1.32-.14,5.12,5.12,0,0,1-1.24-.5l-.28-.19-.31-.26-.14-.14a.46.46,0,0,1-.07-.07l-.07.08a4.15,4.15,0,0,1-.27.32A4.13,4.13,0,0,1,23.35,9.2a4.89,4.89,0,0,1-2.7-.37c-.2-.1-.35.05-.2.17l0,0c-.22-.08-.37.06-.16.37a43.41,43.41,0,0,0,4.62,5.34l1.05,1,.08.08s.06.06.08,0l.15-.18.29-.35.46-.54,1.2-1.53,1.18-1.53.58-.77c.2-.26.34-.45.73-.92l.72-.89Z"/><path class="cls-1" d="M39.1,8a4.07,4.07,0,0,0-1.79.3A2.34,2.34,0,0,0,36,9.55a1.64,1.64,0,0,0,.39,1.8,1.84,1.84,0,0,0,1.74.42,2,2,0,0,0,1.36-1.08c.16-.41-.17-.58-.35-.28a1.6,1.6,0,0,1-2,.53.84.84,0,0,1-.45-.76,1.18,1.18,0,0,1,.46-.92,3,3,0,0,1,2.72-.4,1.34,1.34,0,0,1,.86.9,2.63,2.63,0,0,1,0,1.44A5.3,5.3,0,0,1,37,14.78a5.48,5.48,0,0,1-2.7.12,2.93,2.93,0,0,1-2.14-1.48c-.07-.18-.27-.18-.26,0a2.61,2.61,0,0,0,1.79,1.94,5.36,5.36,0,0,0,3,.21,6,6,0,0,0,2.69-1.29A6.47,6.47,0,0,0,41,12.1a4.53,4.53,0,0,0,.45-1.75,2.26,2.26,0,0,0-.67-1.74A2.69,2.69,0,0,0,39.1,8Z"/><path class="cls-1" d="M52.06,13.38a3.7,3.7,0,0,1-2,1,7.35,7.35,0,0,1-2.44.07,5.89,5.89,0,0,1-2.38-.83,4.75,4.75,0,0,1-1.65-1.75,3.72,3.72,0,0,1-.45-1.51A1.7,1.7,0,0,1,43.62,9a3,3,0,0,1,3-.28,1.9,1.9,0,0,1,1.08,1,1.25,1.25,0,0,1-.24,1.36,1.79,1.79,0,0,1-2.71-.45c-.18-.31-.57-.41-.44.11A2.31,2.31,0,0,0,47.56,12a2.23,2.23,0,0,0,.78-.75,1.94,1.94,0,0,0,.25-1.07,2.35,2.35,0,0,0-1-1.76A4.07,4.07,0,0,0,43.86,8a2.27,2.27,0,0,0-1.33,1.56,3.32,3.32,0,0,0,.17,1.91A5.86,5.86,0,0,0,47,15a7,7,0,0,0,2.78,0,3.61,3.61,0,0,0,2.44-1.45C52.35,13.37,52.18,13.25,52.06,13.38Z"/><path class="cls-1" d="M47.46,7c.2.1.35,0,.19-.18h0c.23.08.38-.07.17-.37a43.52,43.52,0,0,0-4.62-5.34l-1-1L42.05,0S42,0,42,0L41.82.2l-.29.35-.46.55-1.2,1.52L38.69,4.16l-.58.76c-.2.26-.34.45-.73.93l-.72.88-.34.42c0,.06-.14.15-.13.18v.09c.44-.13,1-.28,1.39-.38a3.64,3.64,0,0,1,.58-.11c.18,0,.37,0,.45,0a4.94,4.94,0,0,1,1.33.15,4.74,4.74,0,0,1,1.24.5l.28.19a3.61,3.61,0,0,1,.3.25l.15.15L42,8.2,42,8.12a2.73,2.73,0,0,1,.27-.31,4.14,4.14,0,0,1,2.45-1.16A4.92,4.92,0,0,1,47.46,7Z"/><path class="cls-1" d="M61,7.9a4.08,4.08,0,0,0,1.79-.31A2.34,2.34,0,0,0,64.05,6.3a1.62,1.62,0,0,0-.39-1.79,1.87,1.87,0,0,0-1.74-.43,2,2,0,0,0-1.35,1.09c-.17.4.16.58.34.28a1.59,1.59,0,0,1,2-.53.84.84,0,0,1,.45.75,1.17,1.17,0,0,1-.46.92A3,3,0,0,1,60.18,7a1.38,1.38,0,0,1-.86-.9,2.67,2.67,0,0,1,0-1.45A5.3,5.3,0,0,1,63,1.07,5.6,5.6,0,0,1,65.71,1a2.86,2.86,0,0,1,2.14,1.48c.07.18.27.17.26,0A2.62,2.62,0,0,0,66.32.49,5.46,5.46,0,0,0,63.37.28a6.08,6.08,0,0,0-2.69,1.29A6.56,6.56,0,0,0,59,3.75a4.58,4.58,0,0,0-.45,1.76,2.27,2.27,0,0,0,.67,1.74A2.81,2.81,0,0,0,61,7.9Z"/><path class="cls-1" d="M48,2.48a3.63,3.63,0,0,1,2-1,7.62,7.62,0,0,1,2.44-.08,5.89,5.89,0,0,1,2.38.83A4.75,4.75,0,0,1,56.46,4a3.61,3.61,0,0,1,.45,1.51,1.72,1.72,0,0,1-.48,1.37,3,3,0,0,1-3,.27,1.86,1.86,0,0,1-1.08-1,1.25,1.25,0,0,1,.24-1.36,1.78,1.78,0,0,1,2.71.44c.18.32.57.42.44-.1a2.32,2.32,0,0,0-3.26-1.25,2.21,2.21,0,0,0-.77.75,1.91,1.91,0,0,0-.26,1.07,2.35,2.35,0,0,0,.95,1.76,3.69,3.69,0,0,0,1.85.69,3.81,3.81,0,0,0,1.93-.27,2.21,2.21,0,0,0,1.33-1.56,3.32,3.32,0,0,0-.17-1.91A5.83,5.83,0,0,0,53,.85a6.85,6.85,0,0,0-2.78,0,3.58,3.58,0,0,0-2.44,1.46C47.7,2.49,47.87,2.61,48,2.48Z"/><path class="cls-1" d="M63.73,8.71c0-.06.14-.16.14-.19V8.43c-.44.14-1,.28-1.39.39a3.53,3.53,0,0,1-.58.1,2.83,2.83,0,0,1-.45,0,5.42,5.42,0,0,1-1.33-.14,5.12,5.12,0,0,1-1.24-.5l-.28-.19-.3-.26-.15-.14-.07-.07L58,7.73a4.15,4.15,0,0,1-.27.32A4.13,4.13,0,0,1,55.29,9.2a4.92,4.92,0,0,1-2.7-.37c-.2-.1-.35.05-.19.17l0,0c-.23-.08-.38.06-.16.37a43.31,43.31,0,0,0,4.61,5.34l1.05,1,.08.08s.06.06.08,0l.15-.18.29-.35.46-.54,1.2-1.53,1.18-1.53.58-.77c.21-.26.34-.45.73-.92l.72-.89Z"/><path class="cls-1" d="M71,8a4,4,0,0,0-1.78.3,2.32,2.32,0,0,0-1.32,1.29,1.64,1.64,0,0,0,.39,1.8,1.84,1.84,0,0,0,1.74.42,2,2,0,0,0,1.36-1.08c.16-.41-.17-.58-.35-.28a1.6,1.6,0,0,1-2,.53.84.84,0,0,1-.45-.76,1.18,1.18,0,0,1,.46-.92,3,3,0,0,1,2.73-.4,1.3,1.3,0,0,1,.85.9,2.54,2.54,0,0,1,0,1.44A5.3,5.3,0,0,1,69,14.78a5.48,5.48,0,0,1-2.7.12,2.93,2.93,0,0,1-2.14-1.48c-.06-.18-.27-.18-.26,0a2.61,2.61,0,0,0,1.79,1.94,5.37,5.37,0,0,0,3,.21,5.92,5.92,0,0,0,2.69-1.29A6.34,6.34,0,0,0,73,12.1a4.36,4.36,0,0,0,.45-1.75,2.22,2.22,0,0,0-.67-1.74A2.69,2.69,0,0,0,71,8Z"/><path class="cls-1" d="M84,13.38a3.77,3.77,0,0,1-2,1,7.42,7.42,0,0,1-2.45.07,5.84,5.84,0,0,1-2.37-.83,4.7,4.7,0,0,1-1.66-1.75,3.88,3.88,0,0,1-.45-1.51A1.7,1.7,0,0,1,75.56,9a3,3,0,0,1,3-.28,1.9,1.9,0,0,1,1.08,1,1.24,1.24,0,0,1-.24,1.36,1.79,1.79,0,0,1-2.71-.45c-.17-.31-.57-.41-.44.11A2.31,2.31,0,0,0,79.5,12a2.23,2.23,0,0,0,.78-.75,1.94,1.94,0,0,0,.25-1.07,2.31,2.31,0,0,0-1-1.76A4.07,4.07,0,0,0,75.8,8a2.29,2.29,0,0,0-1.33,1.56,3.32,3.32,0,0,0,.17,1.91A5.88,5.88,0,0,0,79,15a7.08,7.08,0,0,0,2.79,0,3.59,3.59,0,0,0,2.43-1.45C84.29,13.37,84.12,13.25,84,13.38Z"/><path class="cls-1" d="M79.4,7c.21.1.35,0,.2-.18h0c.22.08.38-.07.16-.37a42.68,42.68,0,0,0-4.62-5.34l-1.05-1L74,0s-.06-.06-.08,0L73.76.2l-.29.35L73,1.1,71.81,2.62,70.63,4.16l-.58.76c-.2.26-.34.45-.73.93l-.72.88-.34.42c0,.06-.13.15-.13.18v.09c.44-.13,1-.28,1.39-.38a3.86,3.86,0,0,1,.58-.11c.18,0,.37,0,.46,0a4.91,4.91,0,0,1,1.32.15,4.74,4.74,0,0,1,1.24.5l.28.19L73.7,8l.14.15.07.06L74,8.12a2.73,2.73,0,0,1,.27-.31A4.17,4.17,0,0,1,76.7,6.65,4.9,4.9,0,0,1,79.4,7Z"/><path class="cls-1" d="M92.9,7.9a4.06,4.06,0,0,0,1.78-.31A2.34,2.34,0,0,0,96,6.3a1.63,1.63,0,0,0-.38-1.79,1.89,1.89,0,0,0-1.75-.43,2,2,0,0,0-1.35,1.09c-.17.4.16.58.34.28a1.59,1.59,0,0,1,2-.53.85.85,0,0,1,.46.75,1.21,1.21,0,0,1-.47.92A3,3,0,0,1,92.12,7a1.38,1.38,0,0,1-.86-.9,2.67,2.67,0,0,1,0-1.45A5.32,5.32,0,0,1,95,1.07,5.61,5.61,0,0,1,97.65,1,2.9,2.9,0,0,1,99.8,2.44c.06.18.27.17.25,0A2.62,2.62,0,0,0,98.26.49a5.46,5.46,0,0,0-3-.21,6.13,6.13,0,0,0-2.69,1.29A6.56,6.56,0,0,0,91,3.75a4.77,4.77,0,0,0-.45,1.76,2.27,2.27,0,0,0,.67,1.74A2.83,2.83,0,0,0,92.9,7.9Z"/><path class="cls-1" d="M79.93,2.48a3.63,3.63,0,0,1,2-1,7.62,7.62,0,0,1,2.44-.08,5.89,5.89,0,0,1,2.38.83A4.75,4.75,0,0,1,88.4,4a3.61,3.61,0,0,1,.45,1.51,1.72,1.72,0,0,1-.48,1.37,3,3,0,0,1-3,.27,1.85,1.85,0,0,1-1.09-1,1.25,1.25,0,0,1,.24-1.36,1.78,1.78,0,0,1,2.71.44c.18.32.57.42.44-.1a2.32,2.32,0,0,0-3.26-1.25,2.21,2.21,0,0,0-.77.75A1.91,1.91,0,0,0,83.4,5.7a2.35,2.35,0,0,0,.95,1.76,3.69,3.69,0,0,0,1.86.69,3.82,3.82,0,0,0,1.93-.27,2.22,2.22,0,0,0,1.32-1.56,3.32,3.32,0,0,0-.17-1.91A5.83,5.83,0,0,0,85,.85a6.85,6.85,0,0,0-2.78,0,3.61,3.61,0,0,0-2.44,1.46C79.65,2.49,79.81,2.61,79.93,2.48Z"/><path class="cls-1" d="M95.67,8.71c0-.06.14-.16.14-.19V8.43c-.44.14-1,.28-1.39.39a3.53,3.53,0,0,1-.58.1,2.83,2.83,0,0,1-.45,0,5.42,5.42,0,0,1-1.33-.14,4.89,4.89,0,0,1-1.23-.5l-.29-.19-.3-.26-.15-.14L90,7.65,90,7.73a4.15,4.15,0,0,1-.27.32A4.13,4.13,0,0,1,87.24,9.2a4.89,4.89,0,0,1-2.7-.37c-.21-.1-.36.05-.2.17l0,0c-.23-.08-.38.06-.16.37a43.31,43.31,0,0,0,4.61,5.34l1,1,.08.08s.06.06.08,0l.15-.18.3-.35.45-.54,1.2-1.53L93.3,11.7l.58-.77.73-.92.72-.89Z"/><path class="cls-1" d="M103,8a4,4,0,0,0-1.78.3,2.32,2.32,0,0,0-1.32,1.29,1.64,1.64,0,0,0,.39,1.8,1.84,1.84,0,0,0,1.74.42,2,2,0,0,0,1.36-1.08c.16-.41-.17-.58-.35-.28a1.6,1.6,0,0,1-2,.53.84.84,0,0,1-.45-.76,1.21,1.21,0,0,1,.46-.92,3,3,0,0,1,2.73-.4,1.3,1.3,0,0,1,.85.9,2.54,2.54,0,0,1,0,1.44,5.32,5.32,0,0,1-3.65,3.58,5.48,5.48,0,0,1-2.7.12,2.93,2.93,0,0,1-2.14-1.48c-.06-.18-.27-.18-.25,0a2.59,2.59,0,0,0,1.78,1.94,5.37,5.37,0,0,0,3,.21,5.92,5.92,0,0,0,2.69-1.29,6.22,6.22,0,0,0,1.67-2.18,4.36,4.36,0,0,0,.45-1.75,2.22,2.22,0,0,0-.67-1.74A2.67,2.67,0,0,0,103,8Z"/><path class="cls-1" d="M116,13.38a3.73,3.73,0,0,1-2,1,7.41,7.41,0,0,1-2.45.07,5.9,5.9,0,0,1-2.37-.83,4.78,4.78,0,0,1-1.66-1.75,3.88,3.88,0,0,1-.45-1.51A1.74,1.74,0,0,1,107.5,9a3,3,0,0,1,3-.28,1.9,1.9,0,0,1,1.08,1,1.22,1.22,0,0,1-.24,1.36,1.79,1.79,0,0,1-2.71-.45c-.17-.31-.57-.41-.44.11A2.31,2.31,0,0,0,111.44,12a2.23,2.23,0,0,0,.78-.75,2,2,0,0,0,.26-1.07,2.36,2.36,0,0,0-1-1.76A4.07,4.07,0,0,0,107.74,8a2.29,2.29,0,0,0-1.33,1.56,3.32,3.32,0,0,0,.18,1.91,5.85,5.85,0,0,0,4.3,3.57,7.08,7.08,0,0,0,2.79,0,3.59,3.59,0,0,0,2.43-1.45C116.23,13.37,116.07,13.25,116,13.38Z"/><path class="cls-1" d="M111.34,7c.21.1.35,0,.2-.18h0c.23.08.38-.07.16-.37a42.68,42.68,0,0,0-4.62-5.34l-1-1L105.93,0s-.05-.06-.08,0L105.7.2l-.29.35L105,1.1l-1.21,1.52-1.17,1.54-.59.76c-.2.26-.34.45-.73.93l-.72.88-.33.42c0,.06-.14.15-.14.18v.09c.44-.13,1-.28,1.39-.38a3.86,3.86,0,0,1,.58-.11c.19,0,.37,0,.46,0a4.91,4.91,0,0,1,1.32.15,4.61,4.61,0,0,1,1.24.5l.28.19.31.25.14.15s0,0,.08.06l.06-.08a2.73,2.73,0,0,1,.27-.31,4.17,4.17,0,0,1,2.45-1.16A4.9,4.9,0,0,1,111.34,7Z"/><path class="cls-1" d="M124.84,7.9a4,4,0,0,0,1.78-.31,2.35,2.35,0,0,0,1.32-1.29,1.66,1.66,0,0,0-.39-1.79,1.88,1.88,0,0,0-1.75-.43,2,2,0,0,0-1.35,1.09c-.17.4.16.58.34.28a1.59,1.59,0,0,1,2-.53.83.83,0,0,1,.46.75,1.21,1.21,0,0,1-.47.92,3,3,0,0,1-2.72.41,1.38,1.38,0,0,1-.86-.9,2.67,2.67,0,0,1,0-1.45,5.32,5.32,0,0,1,3.64-3.58A5.64,5.64,0,0,1,129.6,1a2.9,2.9,0,0,1,2.14,1.48c.06.18.27.17.25,0A2.62,2.62,0,0,0,130.2.49a5.46,5.46,0,0,0-2.95-.21,6.13,6.13,0,0,0-2.69,1.29,6.56,6.56,0,0,0-1.67,2.18,4.77,4.77,0,0,0-.45,1.76,2.27,2.27,0,0,0,.67,1.74A2.83,2.83,0,0,0,124.84,7.9Z"/><path class="cls-1" d="M111.87,2.48a3.63,3.63,0,0,1,2-1,7.68,7.68,0,0,1,2.45-.08,5.9,5.9,0,0,1,2.37.83A4.67,4.67,0,0,1,120.34,4a3.61,3.61,0,0,1,.45,1.51,1.72,1.72,0,0,1-.48,1.37,3,3,0,0,1-3,.27,1.88,1.88,0,0,1-1.09-1,1.25,1.25,0,0,1,.24-1.36,1.78,1.78,0,0,1,2.71.44c.18.32.57.42.45-.1a2.33,2.33,0,0,0-3.26-1.25,2.15,2.15,0,0,0-.78.75,2,2,0,0,0-.26,1.07,2.35,2.35,0,0,0,1,1.76,3.69,3.69,0,0,0,1.86.69,3.81,3.81,0,0,0,1.93-.27,2.25,2.25,0,0,0,1.33-1.56,3.4,3.4,0,0,0-.18-1.91,5.83,5.83,0,0,0-4.3-3.56,6.9,6.9,0,0,0-2.79,0,3.61,3.61,0,0,0-2.44,1.46C111.59,2.49,111.75,2.61,111.87,2.48Z"/><path class="cls-1" d="M127.61,8.71c0-.06.14-.16.14-.19V8.43c-.45.14-1,.28-1.39.39a3.83,3.83,0,0,1-.59.1,2.77,2.77,0,0,1-.45,0A5.47,5.47,0,0,1,124,8.81a4.89,4.89,0,0,1-1.23-.5l-.28-.19-.31-.26L122,7.72,122,7.65l-.07.08c-.09.11-.17.22-.26.32a4.16,4.16,0,0,1-2.45,1.15,4.89,4.89,0,0,1-2.7-.37c-.21-.1-.36.05-.2.17l0,0c-.23-.08-.38.06-.16.37a43.31,43.31,0,0,0,4.61,5.34l1,1,.09.08s0,.06.07,0l.15-.18.3-.35.45-.54,1.2-1.53,1.18-1.53.59-.77c.2-.26.34-.45.72-.92l.72-.89Z"/><path class="cls-1" d="M134.92,8a4,4,0,0,0-1.78.3,2.32,2.32,0,0,0-1.32,1.29,1.66,1.66,0,0,0,.39,1.8,1.84,1.84,0,0,0,1.74.42,2,2,0,0,0,1.36-1.08c.17-.41-.16-.58-.35-.28a1.6,1.6,0,0,1-2,.53.84.84,0,0,1-.45-.76,1.21,1.21,0,0,1,.46-.92,3,3,0,0,1,2.73-.4,1.34,1.34,0,0,1,.86.9,2.63,2.63,0,0,1-.05,1.44,5.32,5.32,0,0,1-3.65,3.58,5.48,5.48,0,0,1-2.7.12A2.93,2.93,0,0,1,128,13.42c-.06-.18-.27-.18-.25,0a2.59,2.59,0,0,0,1.79,1.94,5.36,5.36,0,0,0,2.95.21,6,6,0,0,0,2.69-1.29,6.31,6.31,0,0,0,1.66-2.18,4.36,4.36,0,0,0,.45-1.75,2.25,2.25,0,0,0-.66-1.74A2.72,2.72,0,0,0,134.92,8Z"/><path class="cls-1" d="M147.89,13.38a3.73,3.73,0,0,1-2,1,7.4,7.4,0,0,1-2.45.07,5.9,5.9,0,0,1-2.37-.83,4.67,4.67,0,0,1-1.65-1.75,3.73,3.73,0,0,1-.46-1.51A1.71,1.71,0,0,1,139.45,9a3,3,0,0,1,3-.28,2,2,0,0,1,1.09,1,1.24,1.24,0,0,1-.25,1.36,1.79,1.79,0,0,1-2.71-.45c-.17-.31-.57-.41-.44.11A2.31,2.31,0,0,0,143.38,12a2.23,2.23,0,0,0,.78-.75,2,2,0,0,0,.26-1.07,2.36,2.36,0,0,0-1-1.76,3.7,3.7,0,0,0-1.85-.68,3.8,3.8,0,0,0-1.93.26,2.29,2.29,0,0,0-1.33,1.56,3.32,3.32,0,0,0,.18,1.91,5.86,5.86,0,0,0,4.3,3.57,7.08,7.08,0,0,0,2.79,0,3.63,3.63,0,0,0,2.44-1.45C148.17,13.37,148,13.25,147.89,13.38Z"/><path class="cls-1" d="M143.28,7c.21.1.36,0,.2-.18h0c.23.08.38-.07.16-.37A42.59,42.59,0,0,0,139,1.13L138,.12,137.87,0s-.05-.06-.08,0l-.14.17-.3.35-.45.55-1.21,1.52-1.17,1.54-.59.76c-.2.26-.34.45-.73.93l-.71.88-.34.42c-.05.06-.14.15-.14.18v.09c.44-.13,1-.28,1.39-.38a4.11,4.11,0,0,1,.58-.11c.19,0,.37,0,.46,0a4.91,4.91,0,0,1,1.32.15,4.48,4.48,0,0,1,1.24.5l.28.19.31.25.14.15s.05,0,.08.06l.06-.08c.1-.11.18-.22.27-.31a4.17,4.17,0,0,1,2.45-1.16A4.9,4.9,0,0,1,143.28,7Z"/><path class="cls-1" d="M156.78,7.9a4,4,0,0,0,1.78-.31,2.32,2.32,0,0,0,1.32-1.29,1.64,1.64,0,0,0-.39-1.79,1.88,1.88,0,0,0-1.75-.43,2,2,0,0,0-1.35,1.09c-.17.4.16.58.35.28a1.59,1.59,0,0,1,2-.53.84.84,0,0,1,.45.75,1.21,1.21,0,0,1-.47.92A3,3,0,0,1,156,7a1.38,1.38,0,0,1-.86-.9,2.67,2.67,0,0,1,.05-1.45,5.32,5.32,0,0,1,3.65-3.58,5.6,5.6,0,0,1,2.7-.11,2.9,2.9,0,0,1,2.14,1.48c.06.18.27.17.25,0A2.6,2.6,0,0,0,162.14.49a5.45,5.45,0,0,0-2.95-.21,6.13,6.13,0,0,0-2.69,1.29,6.4,6.4,0,0,0-1.66,2.18,4.41,4.41,0,0,0-.45,1.76,2.23,2.23,0,0,0,.66,1.74A2.83,2.83,0,0,0,156.78,7.9Z"/><path class="cls-1" d="M143.81,2.48a3.66,3.66,0,0,1,2-1,7.68,7.68,0,0,1,2.45-.08,5.9,5.9,0,0,1,2.37.83A4.67,4.67,0,0,1,152.28,4a3.78,3.78,0,0,1,.46,1.51,1.76,1.76,0,0,1-.49,1.37,3,3,0,0,1-3,.27,1.91,1.91,0,0,1-1.09-1,1.25,1.25,0,0,1,.24-1.36,1.78,1.78,0,0,1,2.71.44c.18.32.58.42.45-.1a2.32,2.32,0,0,0-3.26-1.25,2.23,2.23,0,0,0-.78.75,2.09,2.09,0,0,0-.26,1.07,2.36,2.36,0,0,0,1,1.76,3.63,3.63,0,0,0,1.85.69A3.81,3.81,0,0,0,152,7.88a2.25,2.25,0,0,0,1.33-1.56,3.32,3.32,0,0,0-.18-1.91,5.83,5.83,0,0,0-4.3-3.56,6.9,6.9,0,0,0-2.79,0,3.61,3.61,0,0,0-2.44,1.46C143.53,2.49,143.69,2.61,143.81,2.48Z"/><path class="cls-1" d="M159.55,8.71c0-.06.14-.16.14-.19V8.43c-.44.14-1,.28-1.39.39a3.83,3.83,0,0,1-.59.1,2.77,2.77,0,0,1-.45,0A5.34,5.34,0,0,1,156,8.81a4.81,4.81,0,0,1-1.24-.5l-.28-.19-.31-.26L154,7.72a.46.46,0,0,0-.07-.07l-.06.08-.27.32a4.16,4.16,0,0,1-2.45,1.15,4.89,4.89,0,0,1-2.7-.37c-.21-.1-.36.05-.2.17l0,0c-.23-.08-.38.06-.16.37a43.31,43.31,0,0,0,4.61,5.34l1.06,1,.08.08s0,.06.08,0l.14-.18.3-.35.45-.54,1.2-1.53,1.18-1.53.59-.77c.2-.26.34-.45.73-.92l.71-.89Z"/><path class="cls-1" d="M166.86,8a4,4,0,0,0-1.78.3,2.35,2.35,0,0,0-1.32,1.29,1.66,1.66,0,0,0,.39,1.8,1.85,1.85,0,0,0,1.75.42,2,2,0,0,0,1.35-1.08c.17-.41-.16-.58-.34-.28a1.6,1.6,0,0,1-2,.53.83.83,0,0,1-.46-.76,1.23,1.23,0,0,1,.47-.92,3,3,0,0,1,2.72-.4,1.34,1.34,0,0,1,.86.9,2.63,2.63,0,0,1-.05,1.44,5.32,5.32,0,0,1-3.64,3.58,5.52,5.52,0,0,1-2.71.12A3,3,0,0,1,160,13.42c-.06-.18-.27-.18-.25,0a2.61,2.61,0,0,0,1.79,1.94,5.36,5.36,0,0,0,2.95.21,6,6,0,0,0,2.69-1.29,6.31,6.31,0,0,0,1.66-2.18,4.54,4.54,0,0,0,.46-1.75,2.26,2.26,0,0,0-.67-1.74A2.72,2.72,0,0,0,166.86,8Z"/><path class="cls-1" d="M179.83,13.38a3.7,3.7,0,0,1-2,1,7.4,7.4,0,0,1-2.45.07,5.9,5.9,0,0,1-2.37-.83,4.67,4.67,0,0,1-1.65-1.75,3.57,3.57,0,0,1-.45-1.51A1.7,1.7,0,0,1,171.39,9a3,3,0,0,1,3-.28,2,2,0,0,1,1.09,1,1.25,1.25,0,0,1-.24,1.36,1.79,1.79,0,0,1-2.71-.45c-.18-.31-.58-.41-.45.11A2.32,2.32,0,0,0,175.32,12a2.15,2.15,0,0,0,.78-.75,2,2,0,0,0,.26-1.07,2.38,2.38,0,0,0-1-1.76A4.09,4.09,0,0,0,171.62,8a2.29,2.29,0,0,0-1.33,1.56,3.4,3.4,0,0,0,.18,1.91,5.86,5.86,0,0,0,4.3,3.57,7.08,7.08,0,0,0,2.79,0A3.63,3.63,0,0,0,180,13.58C180.11,13.37,180,13.25,179.83,13.38Z"/><path class="cls-1" d="M175.22,7c.21.1.36,0,.2-.18h0c.23.08.38-.07.16-.37A42.59,42.59,0,0,0,171,1.13l-1.06-1L169.81,0s-.05-.06-.08,0l-.14.17-.3.35-.45.55-1.2,1.52-1.18,1.54-.59.76c-.2.26-.34.45-.72.93l-.72.88-.34.42c-.05.06-.14.15-.14.18v.09c.44-.13,1-.28,1.39-.38a4,4,0,0,1,.59-.11c.18,0,.36,0,.45,0a4.91,4.91,0,0,1,1.32.15,4.48,4.48,0,0,1,1.24.5l.28.19.31.25.15.15s0,0,.07.06l.07-.08c.09-.11.17-.22.26-.31a4.17,4.17,0,0,1,2.45-1.16A4.9,4.9,0,0,1,175.22,7Z"/><path class="cls-1" d="M188.72,7.9a4,4,0,0,0,1.78-.31,2.32,2.32,0,0,0,1.32-1.29,1.64,1.64,0,0,0-.39-1.79,1.87,1.87,0,0,0-1.74-.43,2,2,0,0,0-1.36,1.09c-.17.4.17.58.35.28a1.59,1.59,0,0,1,2-.53.84.84,0,0,1,.45.75,1.2,1.2,0,0,1-.46.92,3,3,0,0,1-2.73.41,1.34,1.34,0,0,1-.85-.9,2.57,2.57,0,0,1,0-1.45,5.32,5.32,0,0,1,3.65-3.58,5.6,5.6,0,0,1,2.7-.11,2.88,2.88,0,0,1,2.14,1.48c.06.18.27.17.25,0A2.61,2.61,0,0,0,194.09.49a5.46,5.46,0,0,0-3-.21,6.11,6.11,0,0,0-2.7,1.29,6.4,6.4,0,0,0-1.66,2.18,4.41,4.41,0,0,0-.45,1.76A2.24,2.24,0,0,0,187,7.25,2.78,2.78,0,0,0,188.72,7.9Z"/><path class="cls-1" d="M175.75,2.48a3.66,3.66,0,0,1,2-1,7.69,7.69,0,0,1,2.45-.08,5.9,5.9,0,0,1,2.37.83A4.78,4.78,0,0,1,184.23,4a3.93,3.93,0,0,1,.45,1.51,1.76,1.76,0,0,1-.48,1.37,3,3,0,0,1-3,.27,1.91,1.91,0,0,1-1.09-1,1.24,1.24,0,0,1,.25-1.36,1.78,1.78,0,0,1,2.71.44c.17.32.57.42.44-.1a2.25,2.25,0,0,0-4-.5,2.09,2.09,0,0,0-.26,1.07,2.36,2.36,0,0,0,1,1.76,3.63,3.63,0,0,0,1.85.69A3.81,3.81,0,0,0,184,7.88a2.25,2.25,0,0,0,1.33-1.56,3.32,3.32,0,0,0-.18-1.91,5.83,5.83,0,0,0-4.3-3.56,6.9,6.9,0,0,0-2.79,0,3.56,3.56,0,0,0-2.43,1.46C175.47,2.49,175.63,2.61,175.75,2.48Z"/><path class="cls-1" d="M191.49,8.71c0-.06.14-.16.14-.19V8.43c-.44.14-1,.28-1.39.39a3.93,3.93,0,0,1-.58.1,3,3,0,0,1-.46,0,5.34,5.34,0,0,1-1.32-.14,4.81,4.81,0,0,1-1.24-.5l-.28-.19-.31-.26-.14-.14-.08-.07-.06.08a4.15,4.15,0,0,1-.27.32,4.16,4.16,0,0,1-2.45,1.15,4.89,4.89,0,0,1-2.7-.37c-.21-.1-.36.05-.2.17l0,0c-.23-.08-.38.06-.16.37a43.41,43.41,0,0,0,4.62,5.34l1.05,1,.08.08s0,.06.08,0l.15-.18.29-.35.45-.54L188,13.23l1.17-1.53.59-.77c.2-.26.34-.45.73-.92l.71-.89Z"/><path class="cls-1" d="M198.8,8a4.06,4.06,0,0,0-1.78.3,2.34,2.34,0,0,0-1.31,1.29,1.65,1.65,0,0,0,.38,1.8,1.85,1.85,0,0,0,1.75.42,2,2,0,0,0,1.35-1.08c.17-.41-.16-.58-.34-.28a1.6,1.6,0,0,1-2,.53.83.83,0,0,1-.46-.76,1.23,1.23,0,0,1,.47-.92,3,3,0,0,1,2.72-.4,1.34,1.34,0,0,1,.86.9,2.63,2.63,0,0,1-.05,1.44,5.32,5.32,0,0,1-3.64,3.58,5.49,5.49,0,0,1-2.7.12,3,3,0,0,1-2.15-1.48c-.06-.18-.27-.18-.25,0a2.61,2.61,0,0,0,1.79,1.94,5.36,5.36,0,0,0,2.95.21,6,6,0,0,0,2.69-1.29,6.47,6.47,0,0,0,1.67-2.18,4.71,4.71,0,0,0,.45-1.75,2.26,2.26,0,0,0-.67-1.74A2.72,2.72,0,0,0,198.8,8Z"/><path class="cls-1" d="M211.77,13.38a3.7,3.7,0,0,1-2,1,7.35,7.35,0,0,1-2.44.07,5.89,5.89,0,0,1-2.38-.83,4.75,4.75,0,0,1-1.65-1.75,3.57,3.57,0,0,1-.45-1.51A1.7,1.7,0,0,1,203.33,9a3,3,0,0,1,3-.28,1.89,1.89,0,0,1,1.09,1,1.25,1.25,0,0,1-.24,1.36,1.79,1.79,0,0,1-2.71-.45c-.18-.31-.57-.41-.44.11A2.3,2.3,0,0,0,207.26,12a2.07,2.07,0,0,0,.78-.75,1.87,1.87,0,0,0,.26-1.07,2.35,2.35,0,0,0-1-1.76,3.77,3.77,0,0,0-1.86-.68,3.81,3.81,0,0,0-1.93.26,2.25,2.25,0,0,0-1.32,1.56,3.32,3.32,0,0,0,.17,1.91A5.86,5.86,0,0,0,206.72,15a7,7,0,0,0,2.78,0,3.63,3.63,0,0,0,2.44-1.45C212.05,13.37,211.89,13.25,211.77,13.38Z"/><path class="cls-1" d="M207.16,7c.21.1.36,0,.2-.18h0c.23.08.38-.07.16-.37a42.59,42.59,0,0,0-4.61-5.34l-1-1L201.75,0s-.05-.06-.07,0l-.15.17-.3.35-.45.55-1.2,1.52L198.4,4.16l-.58.76-.73.93-.72.88-.34.42c0,.06-.14.15-.14.18v.09c.44-.13,1-.28,1.39-.38a3.64,3.64,0,0,1,.58-.11c.18,0,.37,0,.45,0a5,5,0,0,1,1.33.15,4.54,4.54,0,0,1,1.23.5l.29.19.3.25.15.15.07.06.07-.08a2.73,2.73,0,0,1,.27-.31,4.14,4.14,0,0,1,2.44-1.16A4.9,4.9,0,0,1,207.16,7Z"/><path class="cls-1" d="M220.66,7.9a4,4,0,0,0,1.78-.31,2.32,2.32,0,0,0,1.32-1.29,1.62,1.62,0,0,0-.39-1.79,1.87,1.87,0,0,0-1.74-.43,2.06,2.06,0,0,0-1.36,1.09c-.16.4.17.58.35.28a1.59,1.59,0,0,1,2-.53.84.84,0,0,1,.45.75,1.17,1.17,0,0,1-.46.92,3,3,0,0,1-2.73.41,1.34,1.34,0,0,1-.85-.9,2.58,2.58,0,0,1,.05-1.45,5.3,5.3,0,0,1,3.64-3.58,5.6,5.6,0,0,1,2.7-.11,2.88,2.88,0,0,1,2.14,1.48c.06.18.27.17.26,0A2.62,2.62,0,0,0,226,.49a5.46,5.46,0,0,0-2.95-.21,6,6,0,0,0-2.69,1.29,6.43,6.43,0,0,0-1.67,2.18,4.41,4.41,0,0,0-.45,1.76,2.24,2.24,0,0,0,.67,1.74A2.81,2.81,0,0,0,220.66,7.9Z"/><path class="cls-1" d="M207.69,2.48a3.66,3.66,0,0,1,2-1,7.7,7.7,0,0,1,2.45-.08,5.84,5.84,0,0,1,2.37.83A4.78,4.78,0,0,1,216.17,4a3.93,3.93,0,0,1,.45,1.51,1.72,1.72,0,0,1-.48,1.37,3,3,0,0,1-3,.27,1.86,1.86,0,0,1-1.08-1,1.22,1.22,0,0,1,.24-1.36,1.78,1.78,0,0,1,2.71.44c.17.32.57.42.44-.1a2.25,2.25,0,0,0-4-.5,2,2,0,0,0-.25,1.07,2.31,2.31,0,0,0,1,1.76,3.69,3.69,0,0,0,1.85.69,3.81,3.81,0,0,0,1.93-.27,2.25,2.25,0,0,0,1.33-1.56,3.24,3.24,0,0,0-.18-1.91,5.81,5.81,0,0,0-4.3-3.56,6.9,6.9,0,0,0-2.79,0,3.56,3.56,0,0,0-2.43,1.46C207.41,2.49,207.58,2.61,207.69,2.48Z"/><path class="cls-1" d="M223.44,8.71c0-.06.13-.16.13-.19V8.43c-.44.14-1,.28-1.39.39a3.72,3.72,0,0,1-.58.1,2.88,2.88,0,0,1-.46,0,5.34,5.34,0,0,1-1.32-.14,5.12,5.12,0,0,1-1.24-.5l-.28-.19L218,7.86l-.14-.14-.07-.07-.07.08a4.15,4.15,0,0,1-.27.32A4.16,4.16,0,0,1,215,9.2a4.89,4.89,0,0,1-2.7-.37c-.21-.1-.35.05-.2.17l0,0c-.22-.08-.38.06-.16.37a43.41,43.41,0,0,0,4.62,5.34l1,1,.08.08s.06.06.08,0l.15-.18.29-.35.45-.54,1.21-1.53,1.17-1.53.59-.77c.2-.26.34-.45.73-.92l.72-.89Z"/><path class="cls-1" d="M230.74,8a4.06,4.06,0,0,0-1.78.3,2.34,2.34,0,0,0-1.31,1.29,1.64,1.64,0,0,0,.39,1.8,1.83,1.83,0,0,0,1.74.42,2,2,0,0,0,1.35-1.08c.17-.41-.16-.58-.34-.28a1.6,1.6,0,0,1-2,.53.84.84,0,0,1-.45-.76,1.18,1.18,0,0,1,.46-.92,3,3,0,0,1,2.72-.4,1.34,1.34,0,0,1,.86.9,2.63,2.63,0,0,1,0,1.44,5.3,5.3,0,0,1-3.64,3.58,5.49,5.49,0,0,1-2.7.12,2.91,2.91,0,0,1-2.14-1.48c-.07-.18-.27-.18-.26,0a2.61,2.61,0,0,0,1.79,1.94,5.36,5.36,0,0,0,3,.21A6,6,0,0,0,231,14.28a6.47,6.47,0,0,0,1.67-2.18,4.53,4.53,0,0,0,.45-1.75,2.26,2.26,0,0,0-.67-1.74A2.7,2.7,0,0,0,230.74,8Z"/><path class="cls-1" d="M243.71,13.38a3.7,3.7,0,0,1-2,1,7.35,7.35,0,0,1-2.44.07,5.89,5.89,0,0,1-2.38-.83,4.75,4.75,0,0,1-1.65-1.75,3.57,3.57,0,0,1-.45-1.51A1.7,1.7,0,0,1,235.27,9a3,3,0,0,1,3-.28,1.89,1.89,0,0,1,1.09,1,1.25,1.25,0,0,1-.24,1.36,1.79,1.79,0,0,1-2.71-.45c-.18-.31-.57-.41-.44.11A2.31,2.31,0,0,0,239.21,12a2.12,2.12,0,0,0,.77-.75,1.87,1.87,0,0,0,.26-1.07,2.35,2.35,0,0,0-1-1.76A4.07,4.07,0,0,0,235.51,8a2.24,2.24,0,0,0-1.33,1.56,3.32,3.32,0,0,0,.17,1.91A5.86,5.86,0,0,0,238.66,15a7,7,0,0,0,2.78,0,3.63,3.63,0,0,0,2.44-1.45C244,13.37,243.83,13.25,243.71,13.38Z"/><path class="cls-1" d="M239.11,7c.2.1.35,0,.19-.18h0c.23.08.38-.07.16-.37a42.59,42.59,0,0,0-4.61-5.34l-1.05-1L233.7,0s-.06-.06-.08,0l-.15.17-.29.35-.46.55-1.2,1.52-1.18,1.54-.58.76c-.21.26-.34.45-.73.93l-.72.88-.34.42c0,.06-.14.15-.14.18v.09c.44-.13,1-.28,1.39-.38a3.64,3.64,0,0,1,.58-.11c.18,0,.37,0,.45,0a5,5,0,0,1,1.33.15,4.74,4.74,0,0,1,1.24.5l.28.19.3.25.15.15.07.06.07-.08a2.73,2.73,0,0,1,.27-.31,4.14,4.14,0,0,1,2.44-1.16A5,5,0,0,1,239.11,7Z"/><path class="cls-1" d="M252.6,7.9a4,4,0,0,0,1.78-.31A2.32,2.32,0,0,0,255.7,6.3a1.62,1.62,0,0,0-.39-1.79,1.87,1.87,0,0,0-1.74-.43,2.06,2.06,0,0,0-1.36,1.09c-.16.4.17.58.35.28a1.59,1.59,0,0,1,2-.53.84.84,0,0,1,.45.75,1.17,1.17,0,0,1-.46.92,3,3,0,0,1-2.72.41,1.35,1.35,0,0,1-.86-.9A2.67,2.67,0,0,1,251,4.65a5.3,5.3,0,0,1,3.64-3.58,5.6,5.6,0,0,1,2.7-.11,2.88,2.88,0,0,1,2.14,1.48c.07.18.27.17.26,0A2.62,2.62,0,0,0,258,.49a5.46,5.46,0,0,0-3-.21,6.08,6.08,0,0,0-2.69,1.29,6.43,6.43,0,0,0-1.67,2.18,4.41,4.41,0,0,0-.45,1.76,2.27,2.27,0,0,0,.67,1.74A2.81,2.81,0,0,0,252.6,7.9Z"/><path class="cls-1" d="M239.63,2.48a3.7,3.7,0,0,1,2-1,7.7,7.7,0,0,1,2.45-.08,5.79,5.79,0,0,1,2.37.83A4.7,4.7,0,0,1,248.11,4a3.76,3.76,0,0,1,.45,1.51,1.72,1.72,0,0,1-.48,1.37,3,3,0,0,1-3,.27,1.86,1.86,0,0,1-1.08-1,1.24,1.24,0,0,1,.24-1.36,1.78,1.78,0,0,1,2.71.44c.17.32.57.42.44-.1a2.25,2.25,0,0,0-4-.5,2,2,0,0,0-.25,1.07,2.31,2.31,0,0,0,.95,1.76,3.69,3.69,0,0,0,1.85.69,3.81,3.81,0,0,0,1.93-.27,2.23,2.23,0,0,0,1.33-1.56A3.32,3.32,0,0,0,249,4.41,5.83,5.83,0,0,0,244.69.85a6.9,6.9,0,0,0-2.79,0,3.59,3.59,0,0,0-2.43,1.46C239.35,2.49,239.52,2.61,239.63,2.48Z"/><path class="cls-1" d="M255.38,8.71c0-.06.13-.16.13-.19V8.43c-.44.14-1,.28-1.39.39a3.53,3.53,0,0,1-.58.1,2.88,2.88,0,0,1-.46,0,5.34,5.34,0,0,1-1.32-.14,5.12,5.12,0,0,1-1.24-.5l-.28-.19c-.1-.09-.21-.17-.3-.26l-.15-.14-.07-.07-.07.08a4.15,4.15,0,0,1-.27.32,4.13,4.13,0,0,1-2.45,1.15,4.89,4.89,0,0,1-2.7-.37c-.2-.1-.35.05-.19.17l0,0c-.23-.08-.38.06-.17.37a44.28,44.28,0,0,0,4.62,5.34l1,1,.08.08s.06.06.08,0l.15-.18.29-.35.46-.54,1.2-1.53L253,11.7l.58-.77c.2-.26.34-.45.73-.92l.72-.89Z"/><path class="cls-1" d="M262.69,8a4,4,0,0,0-1.78.3,2.32,2.32,0,0,0-1.32,1.29,1.64,1.64,0,0,0,.39,1.8,1.84,1.84,0,0,0,1.74.42,2,2,0,0,0,1.36-1.08c.16-.41-.17-.58-.35-.28a1.6,1.6,0,0,1-2,.53.84.84,0,0,1-.45-.76,1.18,1.18,0,0,1,.46-.92,3,3,0,0,1,2.72-.4,1.34,1.34,0,0,1,.86.9,2.63,2.63,0,0,1-.05,1.44,5.3,5.3,0,0,1-3.64,3.58,5.48,5.48,0,0,1-2.7.12,2.93,2.93,0,0,1-2.14-1.48c-.07-.18-.27-.18-.26,0a2.61,2.61,0,0,0,1.79,1.94,5.36,5.36,0,0,0,2.95.21A6,6,0,0,0,263,14.28a6.34,6.34,0,0,0,1.67-2.18,4.36,4.36,0,0,0,.45-1.75,2.22,2.22,0,0,0-.67-1.74A2.69,2.69,0,0,0,262.69,8Z"/><path class="cls-1" d="M275.66,13.38a3.77,3.77,0,0,1-2,1,7.42,7.42,0,0,1-2.45.07,5.89,5.89,0,0,1-2.38-.83,4.75,4.75,0,0,1-1.65-1.75,3.72,3.72,0,0,1-.45-1.51A1.7,1.7,0,0,1,267.21,9a3,3,0,0,1,3-.28,1.9,1.9,0,0,1,1.08,1,1.25,1.25,0,0,1-.24,1.36,1.79,1.79,0,0,1-2.71-.45c-.17-.31-.57-.41-.44.11A2.31,2.31,0,0,0,271.15,12a2.23,2.23,0,0,0,.78-.75,1.94,1.94,0,0,0,.25-1.07,2.31,2.31,0,0,0-.95-1.76A4.07,4.07,0,0,0,267.45,8a2.27,2.27,0,0,0-1.33,1.56,3.32,3.32,0,0,0,.17,1.91A5.86,5.86,0,0,0,270.6,15a7.08,7.08,0,0,0,2.79,0,3.61,3.61,0,0,0,2.43-1.45C275.94,13.37,275.77,13.25,275.66,13.38Z"/><path class="cls-1" d="M271.05,7c.2.1.35,0,.19-.18h0c.23.08.38-.07.17-.37a43.52,43.52,0,0,0-4.62-5.34l-1-1L265.64,0s-.06-.06-.08,0l-.15.17-.29.35-.46.55-1.2,1.52-1.18,1.54-.58.76c-.2.26-.34.45-.73.93l-.72.88-.34.42c0,.06-.13.15-.13.18v.09c.44-.13,1-.28,1.39-.38a3.64,3.64,0,0,1,.58-.11c.18,0,.37,0,.46,0a4.91,4.91,0,0,1,1.32.15,4.74,4.74,0,0,1,1.24.5l.28.19a3.61,3.61,0,0,1,.3.25l.15.15.07.06.07-.08a2.73,2.73,0,0,1,.27-.31,4.14,4.14,0,0,1,2.45-1.16A4.9,4.9,0,0,1,271.05,7Z"/><path class="cls-1" d="M284.55,7.9a4.06,4.06,0,0,0,1.78-.31,2.34,2.34,0,0,0,1.31-1.29,1.62,1.62,0,0,0-.39-1.79,1.86,1.86,0,0,0-1.74-.43,2,2,0,0,0-1.35,1.09c-.17.4.16.58.34.28a1.59,1.59,0,0,1,2-.53.84.84,0,0,1,.45.75,1.17,1.17,0,0,1-.46.92,3,3,0,0,1-2.72.41,1.38,1.38,0,0,1-.86-.9,2.67,2.67,0,0,1,0-1.45,5.3,5.3,0,0,1,3.64-3.58A5.61,5.61,0,0,1,289.3,1a2.86,2.86,0,0,1,2.14,1.48c.07.18.27.17.26,0A2.62,2.62,0,0,0,289.91.49a5.46,5.46,0,0,0-3-.21,6.08,6.08,0,0,0-2.69,1.29,6.56,6.56,0,0,0-1.67,2.18,4.58,4.58,0,0,0-.45,1.76,2.27,2.27,0,0,0,.67,1.74A2.81,2.81,0,0,0,284.55,7.9Z"/><path class="cls-1" d="M271.58,2.48a3.63,3.63,0,0,1,2-1A7.62,7.62,0,0,1,276,1.43a5.89,5.89,0,0,1,2.38.83A4.75,4.75,0,0,1,280.05,4a3.61,3.61,0,0,1,.45,1.51A1.72,1.72,0,0,1,280,6.89a3,3,0,0,1-3,.27,1.85,1.85,0,0,1-1.09-1,1.25,1.25,0,0,1,.24-1.36,1.78,1.78,0,0,1,2.71.44c.18.32.57.42.44-.1a2.32,2.32,0,0,0-3.26-1.25,2.21,2.21,0,0,0-.77.75,1.91,1.91,0,0,0-.26,1.07A2.35,2.35,0,0,0,276,7.46a3.69,3.69,0,0,0,1.85.69,3.81,3.81,0,0,0,1.93-.27,2.21,2.21,0,0,0,1.33-1.56,3.32,3.32,0,0,0-.17-1.91A5.83,5.83,0,0,0,276.63.85a6.85,6.85,0,0,0-2.78,0,3.61,3.61,0,0,0-2.44,1.46C271.29,2.49,271.46,2.61,271.58,2.48Z"/><path class="cls-1" d="M287.32,8.71c0-.06.14-.16.14-.19V8.43c-.44.14-1,.28-1.39.39a3.53,3.53,0,0,1-.58.1A2.83,2.83,0,0,1,285,9a5.42,5.42,0,0,1-1.33-.14,5.12,5.12,0,0,1-1.24-.5l-.28-.19-.3-.26-.15-.14-.07-.07-.07.08a4.15,4.15,0,0,1-.27.32,4.13,4.13,0,0,1-2.44,1.15,4.94,4.94,0,0,1-2.71-.37c-.2-.1-.35.05-.19.17l0,0c-.23-.08-.38.06-.16.37a43.31,43.31,0,0,0,4.61,5.34l1.05,1,.08.08s.06.06.08,0l.15-.18.29-.35.46-.54,1.2-1.53L285,11.7l.58-.77c.21-.26.34-.45.73-.92l.72-.89Z"/><path class="cls-1" d="M294.63,8a4,4,0,0,0-1.78.3,2.32,2.32,0,0,0-1.32,1.29,1.64,1.64,0,0,0,.39,1.8,1.84,1.84,0,0,0,1.74.42A2,2,0,0,0,295,10.69c.16-.41-.17-.58-.35-.28a1.6,1.6,0,0,1-2,.53.84.84,0,0,1-.45-.76,1.18,1.18,0,0,1,.46-.92,3,3,0,0,1,2.73-.4,1.3,1.3,0,0,1,.85.9,2.54,2.54,0,0,1-.05,1.44,5.3,5.3,0,0,1-3.64,3.58,5.48,5.48,0,0,1-2.7.12,2.93,2.93,0,0,1-2.14-1.48c-.06-.18-.27-.18-.26,0a2.61,2.61,0,0,0,1.79,1.94,5.37,5.37,0,0,0,2.95.21,5.92,5.92,0,0,0,2.69-1.29,6.34,6.34,0,0,0,1.67-2.18,4.36,4.36,0,0,0,.45-1.75,2.22,2.22,0,0,0-.67-1.74A2.69,2.69,0,0,0,294.63,8Z"/><path class="cls-1" d="M307.6,13.38a3.73,3.73,0,0,1-2,1,7.42,7.42,0,0,1-2.45.07,5.84,5.84,0,0,1-2.37-.83,4.78,4.78,0,0,1-1.66-1.75,3.88,3.88,0,0,1-.45-1.51A1.7,1.7,0,0,1,299.15,9a3,3,0,0,1,3-.28,1.9,1.9,0,0,1,1.08,1,1.22,1.22,0,0,1-.24,1.36,1.79,1.79,0,0,1-2.71-.45c-.17-.31-.57-.41-.44.11A2.31,2.31,0,0,0,303.09,12a2.23,2.23,0,0,0,.78-.75,1.94,1.94,0,0,0,.25-1.07,2.31,2.31,0,0,0-.95-1.76A4.07,4.07,0,0,0,299.39,8a2.29,2.29,0,0,0-1.33,1.56,3.24,3.24,0,0,0,.18,1.91,5.85,5.85,0,0,0,4.3,3.57,7.08,7.08,0,0,0,2.79,0,3.59,3.59,0,0,0,2.43-1.45C307.88,13.37,307.71,13.25,307.6,13.38Z"/><path class="cls-1" d="M303,7c.21.1.35,0,.2-.18h0c.22.08.38-.07.16-.37a42.68,42.68,0,0,0-4.62-5.34l-1-1L297.58,0s-.06-.06-.08,0l-.15.17-.29.35-.45.55L295.4,2.62l-1.18,1.54-.58.76c-.2.26-.34.45-.73.93l-.72.88-.34.42c0,.06-.13.15-.13.18v.09c.44-.13,1-.28,1.39-.38a3.86,3.86,0,0,1,.58-.11c.18,0,.37,0,.46,0a4.91,4.91,0,0,1,1.32.15,4.74,4.74,0,0,1,1.24.5l.28.19.31.25.14.15.07.06.07-.08a2.73,2.73,0,0,1,.27-.31,4.17,4.17,0,0,1,2.45-1.16A4.9,4.9,0,0,1,303,7Z"/><path class="cls-1" d="M316.49,7.9a4.06,4.06,0,0,0,1.78-.31,2.34,2.34,0,0,0,1.31-1.29,1.63,1.63,0,0,0-.38-1.79,1.89,1.89,0,0,0-1.75-.43,2,2,0,0,0-1.35,1.09c-.17.4.16.58.34.28a1.59,1.59,0,0,1,2-.53.83.83,0,0,1,.46.75,1.21,1.21,0,0,1-.47.92,3,3,0,0,1-2.72.41,1.38,1.38,0,0,1-.86-.9,2.67,2.67,0,0,1,0-1.45,5.32,5.32,0,0,1,3.64-3.58,5.61,5.61,0,0,1,2.7-.11,2.9,2.9,0,0,1,2.15,1.48c.06.18.27.17.25,0A2.62,2.62,0,0,0,321.85.49a5.46,5.46,0,0,0-3-.21,6.13,6.13,0,0,0-2.69,1.29,6.56,6.56,0,0,0-1.67,2.18,4.77,4.77,0,0,0-.45,1.76,2.27,2.27,0,0,0,.67,1.74A2.83,2.83,0,0,0,316.49,7.9Z"/><path class="cls-1" d="M303.52,2.48a3.63,3.63,0,0,1,2-1A7.62,7.62,0,0,1,308,1.43a5.89,5.89,0,0,1,2.38.83A4.75,4.75,0,0,1,312,4a3.61,3.61,0,0,1,.45,1.51A1.72,1.72,0,0,1,312,6.89a3,3,0,0,1-3,.27,1.85,1.85,0,0,1-1.09-1,1.25,1.25,0,0,1,.24-1.36,1.78,1.78,0,0,1,2.71.44c.18.32.57.42.44-.1A2.31,2.31,0,0,0,308,3.88a2.15,2.15,0,0,0-.78.75A1.91,1.91,0,0,0,307,5.7a2.35,2.35,0,0,0,.95,1.76,3.69,3.69,0,0,0,1.86.69,3.82,3.82,0,0,0,1.93-.27,2.22,2.22,0,0,0,1.32-1.56,3.32,3.32,0,0,0-.17-1.91A5.83,5.83,0,0,0,308.57.85a6.85,6.85,0,0,0-2.78,0,3.61,3.61,0,0,0-2.44,1.46C303.24,2.49,303.4,2.61,303.52,2.48Z"/><path class="cls-1" d="M319.26,8.71c0-.06.14-.16.14-.19V8.43c-.44.14-1,.28-1.39.39a3.53,3.53,0,0,1-.58.1A2.83,2.83,0,0,1,317,9a5.42,5.42,0,0,1-1.33-.14,4.89,4.89,0,0,1-1.23-.5l-.29-.19-.3-.26-.15-.14-.07-.07-.07.08a4.15,4.15,0,0,1-.27.32,4.13,4.13,0,0,1-2.44,1.15,4.89,4.89,0,0,1-2.7-.37c-.21-.1-.36.05-.2.17l0,0c-.23-.08-.38.06-.16.37a43.31,43.31,0,0,0,4.61,5.34l1.05,1,.09.08s0,.06.07,0l.15-.18.3-.35.45-.54,1.2-1.53,1.18-1.53.58-.77.73-.92.72-.89Z"/><path class="cls-1" d="M326.57,8a4,4,0,0,0-1.78.3,2.32,2.32,0,0,0-1.32,1.29,1.66,1.66,0,0,0,.39,1.8,1.84,1.84,0,0,0,1.74.42A2,2,0,0,0,327,10.69c.17-.41-.17-.58-.35-.28a1.6,1.6,0,0,1-2,.53.84.84,0,0,1-.45-.76,1.21,1.21,0,0,1,.46-.92,3,3,0,0,1,2.73-.4,1.3,1.3,0,0,1,.85.9,2.54,2.54,0,0,1,0,1.44,5.32,5.32,0,0,1-3.65,3.58,5.48,5.48,0,0,1-2.7.12,2.93,2.93,0,0,1-2.14-1.48c-.06-.18-.27-.18-.25,0a2.59,2.59,0,0,0,1.78,1.94,5.37,5.37,0,0,0,2.95.21,5.92,5.92,0,0,0,2.69-1.29,6.22,6.22,0,0,0,1.67-2.18,4.36,4.36,0,0,0,.45-1.75,2.22,2.22,0,0,0-.67-1.74A2.67,2.67,0,0,0,326.57,8Z"/><path class="cls-1" d="M339.54,13.38a3.73,3.73,0,0,1-2,1,7.41,7.41,0,0,1-2.45.07,5.9,5.9,0,0,1-2.37-.83,4.78,4.78,0,0,1-1.66-1.75,3.88,3.88,0,0,1-.45-1.51A1.74,1.74,0,0,1,331.09,9a3,3,0,0,1,3-.28,2,2,0,0,1,1.09,1,1.24,1.24,0,0,1-.25,1.36,1.79,1.79,0,0,1-2.71-.45c-.17-.31-.57-.41-.44.11A2.31,2.31,0,0,0,335,12a2.23,2.23,0,0,0,.78-.75,2,2,0,0,0,.26-1.07,2.36,2.36,0,0,0-1-1.76,3.7,3.7,0,0,0-1.85-.68,3.8,3.8,0,0,0-1.93.26A2.29,2.29,0,0,0,330,9.53a3.32,3.32,0,0,0,.18,1.91,5.86,5.86,0,0,0,4.3,3.57,7.08,7.08,0,0,0,2.79,0,3.59,3.59,0,0,0,2.43-1.45C339.82,13.37,339.66,13.25,339.54,13.38Z"/><path class="cls-1" d="M334.93,7c.21.1.36,0,.2-.18h0c.23.08.38-.07.16-.37a42.68,42.68,0,0,0-4.62-5.34l-1-1L329.52,0s0-.06-.08,0l-.15.17L329,.55l-.45.55-1.21,1.52-1.17,1.54-.59.76c-.2.26-.34.45-.73.93l-.71.88-.34.42c-.05.06-.14.15-.14.18v.09c.44-.13,1-.28,1.39-.38a4.11,4.11,0,0,1,.58-.11c.19,0,.37,0,.46,0a4.91,4.91,0,0,1,1.32.15,4.48,4.48,0,0,1,1.24.5l.28.19.31.25.14.15s.05,0,.08.06l.06-.08a2.73,2.73,0,0,1,.27-.31,4.17,4.17,0,0,1,2.45-1.16A4.9,4.9,0,0,1,334.93,7Z"/><path class="cls-1" d="M348.43,7.9a4,4,0,0,0,1.78-.31,2.35,2.35,0,0,0,1.32-1.29,1.64,1.64,0,0,0-.39-1.79,1.88,1.88,0,0,0-1.75-.43A2,2,0,0,0,348,5.17c-.17.4.16.58.34.28a1.59,1.59,0,0,1,2-.53.83.83,0,0,1,.46.75,1.21,1.21,0,0,1-.47.92,3,3,0,0,1-2.72.41,1.38,1.38,0,0,1-.86-.9,2.67,2.67,0,0,1,0-1.45,5.32,5.32,0,0,1,3.64-3.58A5.64,5.64,0,0,1,353.19,1a2.9,2.9,0,0,1,2.14,1.48c.06.18.27.17.25,0A2.62,2.62,0,0,0,353.79.49a5.46,5.46,0,0,0-3-.21,6.13,6.13,0,0,0-2.69,1.29,6.4,6.4,0,0,0-1.66,2.18A4.59,4.59,0,0,0,346,5.51a2.27,2.27,0,0,0,.67,1.74A2.83,2.83,0,0,0,348.43,7.9Z"/><path class="cls-1" d="M335.46,2.48a3.63,3.63,0,0,1,2-1,7.68,7.68,0,0,1,2.45-.08,5.9,5.9,0,0,1,2.37.83A4.67,4.67,0,0,1,343.93,4a3.61,3.61,0,0,1,.45,1.51,1.72,1.72,0,0,1-.48,1.37,3,3,0,0,1-3,.27,1.91,1.91,0,0,1-1.09-1,1.25,1.25,0,0,1,.24-1.36,1.78,1.78,0,0,1,2.71.44c.18.32.58.42.45-.1A2.33,2.33,0,0,0,340,3.88a2.23,2.23,0,0,0-.78.75,2.09,2.09,0,0,0-.26,1.07,2.38,2.38,0,0,0,.95,1.76,3.69,3.69,0,0,0,1.86.69,3.81,3.81,0,0,0,1.93-.27A2.25,2.25,0,0,0,345,6.32a3.4,3.4,0,0,0-.18-1.91,5.83,5.83,0,0,0-4.3-3.56,6.9,6.9,0,0,0-2.79,0,3.61,3.61,0,0,0-2.44,1.46C335.18,2.49,335.34,2.61,335.46,2.48Z"/><path class="cls-1" d="M351.2,8.71c0-.06.14-.16.14-.19V8.43c-.44.14-1,.28-1.39.39a3.83,3.83,0,0,1-.59.1,2.77,2.77,0,0,1-.45,0,5.34,5.34,0,0,1-1.32-.14,4.81,4.81,0,0,1-1.24-.5l-.28-.19-.31-.26-.15-.14-.07-.07-.07.08c-.09.11-.17.22-.26.32a4.16,4.16,0,0,1-2.45,1.15,4.89,4.89,0,0,1-2.7-.37c-.21-.1-.36.05-.2.17l0,0c-.23-.08-.38.06-.16.37a43.31,43.31,0,0,0,4.61,5.34l1.06,1,.08.08s0,.06.08,0l.14-.18.3-.35.45-.54,1.2-1.53,1.18-1.53.59-.77c.2-.26.34-.45.72-.92l.72-.89Z"/><path class="cls-1" d="M358.51,8a4,4,0,0,0-1.78.3,2.32,2.32,0,0,0-1.32,1.29,1.66,1.66,0,0,0,.39,1.8,1.85,1.85,0,0,0,1.75.42,2,2,0,0,0,1.35-1.08c.17-.41-.16-.58-.35-.28a1.6,1.6,0,0,1-2,.53.84.84,0,0,1-.45-.76,1.23,1.23,0,0,1,.47-.92,3,3,0,0,1,2.72-.4,1.34,1.34,0,0,1,.86.9,2.63,2.63,0,0,1,0,1.44,5.32,5.32,0,0,1-3.65,3.58,5.48,5.48,0,0,1-2.7.12,3,3,0,0,1-2.14-1.48c-.06-.18-.27-.18-.25,0a2.59,2.59,0,0,0,1.79,1.94,5.36,5.36,0,0,0,3,.21,6,6,0,0,0,2.69-1.29,6.31,6.31,0,0,0,1.66-2.18,4.36,4.36,0,0,0,.45-1.75,2.21,2.21,0,0,0-.66-1.74A2.72,2.72,0,0,0,358.51,8Z"/><path class="cls-1" d="M371.48,13.38a3.73,3.73,0,0,1-2,1,7.4,7.4,0,0,1-2.45.07,5.9,5.9,0,0,1-2.37-.83A4.67,4.67,0,0,1,363,11.84a3.73,3.73,0,0,1-.46-1.51A1.74,1.74,0,0,1,363,9a3,3,0,0,1,3-.28,2,2,0,0,1,1.09,1,1.25,1.25,0,0,1-.24,1.36,1.79,1.79,0,0,1-2.71-.45c-.18-.31-.58-.41-.45.11A2.31,2.31,0,0,0,367,12a2.15,2.15,0,0,0,.78-.75,2,2,0,0,0,.26-1.07,2.36,2.36,0,0,0-1-1.76,3.7,3.7,0,0,0-1.85-.68,3.8,3.8,0,0,0-1.93.26,2.29,2.29,0,0,0-1.33,1.56,3.32,3.32,0,0,0,.18,1.91,5.86,5.86,0,0,0,4.3,3.57,7.08,7.08,0,0,0,2.79,0,3.63,3.63,0,0,0,2.44-1.45C371.76,13.37,371.6,13.25,371.48,13.38Z"/><path class="cls-1" d="M366.87,7c.21.1.36,0,.2-.18h0c.23.08.38-.07.16-.37a42.59,42.59,0,0,0-4.61-5.34l-1.06-1L361.46,0s0-.06-.08,0l-.14.17-.3.35-.45.55-1.2,1.52-1.18,1.54-.59.76c-.2.26-.34.45-.73.93l-.71.88-.34.42c-.05.06-.14.15-.14.18v.09c.44-.13,1-.28,1.39-.38a4,4,0,0,1,.59-.11c.18,0,.36,0,.45,0a4.91,4.91,0,0,1,1.32.15,4.48,4.48,0,0,1,1.24.5l.28.19.31.25.15.15s0,0,.07.06l.06-.08c.1-.11.18-.22.27-.31a4.17,4.17,0,0,1,2.45-1.16A4.9,4.9,0,0,1,366.87,7Z"/><path class="cls-1" d="M380.37,7.9a4,4,0,0,0,1.78-.31,2.32,2.32,0,0,0,1.32-1.29,1.64,1.64,0,0,0-.39-1.79,1.87,1.87,0,0,0-1.74-.43A2,2,0,0,0,380,5.17c-.17.4.16.58.35.28a1.59,1.59,0,0,1,2-.53.84.84,0,0,1,.45.75,1.23,1.23,0,0,1-.46.92,3,3,0,0,1-2.73.41,1.38,1.38,0,0,1-.86-.9,2.67,2.67,0,0,1,0-1.45,5.32,5.32,0,0,1,3.65-3.58,5.6,5.6,0,0,1,2.7-.11,2.88,2.88,0,0,1,2.14,1.48c.06.18.27.17.25,0A2.6,2.6,0,0,0,385.73.49a5.45,5.45,0,0,0-3-.21,6.13,6.13,0,0,0-2.69,1.29,6.4,6.4,0,0,0-1.66,2.18A4.41,4.41,0,0,0,378,5.51a2.26,2.26,0,0,0,.66,1.74A2.83,2.83,0,0,0,380.37,7.9Z"/><path class="cls-1" d="M367.4,2.48a3.66,3.66,0,0,1,2-1,7.68,7.68,0,0,1,2.45-.08,5.9,5.9,0,0,1,2.37.83A4.67,4.67,0,0,1,375.87,4a3.78,3.78,0,0,1,.46,1.51,1.73,1.73,0,0,1-.49,1.37,3,3,0,0,1-3,.27,1.91,1.91,0,0,1-1.09-1A1.24,1.24,0,0,1,372,4.79a1.77,1.77,0,0,1,2.7.44c.18.32.58.42.45-.1a2.25,2.25,0,0,0-4-.5,2.09,2.09,0,0,0-.26,1.07,2.36,2.36,0,0,0,1,1.76,3.63,3.63,0,0,0,1.85.69,3.81,3.81,0,0,0,1.93-.27,2.25,2.25,0,0,0,1.33-1.56,3.32,3.32,0,0,0-.18-1.91,5.83,5.83,0,0,0-4.3-3.56,6.9,6.9,0,0,0-2.79,0,3.61,3.61,0,0,0-2.44,1.46C367.12,2.49,367.28,2.61,367.4,2.48Z"/><path class="cls-1" d="M383.14,8.71c.05-.06.14-.16.14-.19V8.43c-.44.14-1,.28-1.39.39a3.93,3.93,0,0,1-.58.1,3,3,0,0,1-.46,0,5.34,5.34,0,0,1-1.32-.14,4.81,4.81,0,0,1-1.24-.5L378,8.12l-.31-.26-.14-.14-.08-.07-.06.08-.27.32a4.16,4.16,0,0,1-2.45,1.15,4.89,4.89,0,0,1-2.7-.37c-.21-.1-.36.05-.2.17l0,0c-.23-.08-.38.06-.16.37a43.31,43.31,0,0,0,4.61,5.34l1.06,1,.08.08s.05.06.08,0l.14-.18.3-.35.45-.54,1.21-1.53,1.17-1.53.59-.77c.2-.26.34-.45.73-.92l.71-.89Z"/><path class="cls-1" d="M390.45,8a4,4,0,0,0-1.78.3,2.35,2.35,0,0,0-1.32,1.29,1.68,1.68,0,0,0,.39,1.8,1.85,1.85,0,0,0,1.75.42,2,2,0,0,0,1.35-1.08c.17-.41-.16-.58-.34-.28a1.6,1.6,0,0,1-2,.53.83.83,0,0,1-.46-.76,1.23,1.23,0,0,1,.47-.92,3,3,0,0,1,2.72-.4,1.34,1.34,0,0,1,.86.9,2.63,2.63,0,0,1,0,1.44,5.32,5.32,0,0,1-3.64,3.58,5.52,5.52,0,0,1-2.71.12,3,3,0,0,1-2.14-1.48c-.06-.18-.27-.18-.25,0a2.61,2.61,0,0,0,1.79,1.94,5.36,5.36,0,0,0,3,.21,6,6,0,0,0,2.69-1.29,6.47,6.47,0,0,0,1.67-2.18,4.71,4.71,0,0,0,.45-1.75,2.26,2.26,0,0,0-.67-1.74A2.72,2.72,0,0,0,390.45,8Z"/><path class="cls-1" d="M403.42,13.38a3.7,3.7,0,0,1-2,1,7.4,7.4,0,0,1-2.45.07,5.9,5.9,0,0,1-2.37-.83A4.67,4.67,0,0,1,395,11.84a3.57,3.57,0,0,1-.45-1.51A1.7,1.7,0,0,1,395,9a3,3,0,0,1,3-.28,2,2,0,0,1,1.09,1,1.25,1.25,0,0,1-.24,1.36,1.79,1.79,0,0,1-2.71-.45c-.18-.31-.57-.41-.45.11A2.32,2.32,0,0,0,398.91,12a2.07,2.07,0,0,0,.78-.75,2,2,0,0,0,.26-1.07A2.35,2.35,0,0,0,399,8.39,4.09,4.09,0,0,0,395.21,8a2.29,2.29,0,0,0-1.33,1.56,3.4,3.4,0,0,0,.18,1.91,5.86,5.86,0,0,0,4.3,3.57,7.08,7.08,0,0,0,2.79,0,3.63,3.63,0,0,0,2.44-1.45C403.7,13.37,403.54,13.25,403.42,13.38Z"/><path class="cls-1" d="M398.81,7c.21.1.36,0,.2-.18h0c.23.08.38-.07.16-.37a42.59,42.59,0,0,0-4.61-5.34l-1.05-1L393.4,0s0-.06-.07,0l-.15.17-.3.35-.45.55-1.2,1.52-1.18,1.54-.59.76c-.2.26-.34.45-.72.93l-.72.88-.34.42c0,.06-.14.15-.14.18v.09c.45-.13,1-.28,1.39-.38a4,4,0,0,1,.59-.11c.18,0,.36,0,.45,0a5,5,0,0,1,1.33.15,4.54,4.54,0,0,1,1.23.5l.28.19.31.25.15.15s0,0,.07.06l.07-.08c.09-.11.17-.22.26-.31a4.17,4.17,0,0,1,2.45-1.16A4.9,4.9,0,0,1,398.81,7Z"/><path class="cls-1" d="M412.31,7.9a4,4,0,0,0,1.78-.31,2.32,2.32,0,0,0,1.32-1.29A1.62,1.62,0,0,0,415,4.51a1.87,1.87,0,0,0-1.74-.43,2.06,2.06,0,0,0-1.36,1.09c-.16.4.17.58.35.28a1.59,1.59,0,0,1,2-.53.84.84,0,0,1,.45.75,1.2,1.2,0,0,1-.46.92,3,3,0,0,1-2.73.41,1.34,1.34,0,0,1-.85-.9,2.57,2.57,0,0,1,0-1.45,5.32,5.32,0,0,1,3.65-3.58,5.6,5.6,0,0,1,2.7-.11,2.88,2.88,0,0,1,2.14,1.48c.06.18.27.17.25,0A2.61,2.61,0,0,0,417.68.49a5.46,5.46,0,0,0-2.95-.21A6,6,0,0,0,412,1.57a6.31,6.31,0,0,0-1.67,2.18,4.41,4.41,0,0,0-.45,1.76,2.24,2.24,0,0,0,.67,1.74A2.78,2.78,0,0,0,412.31,7.9Z"/><path class="cls-1" d="M399.34,2.48a3.66,3.66,0,0,1,2-1,7.69,7.69,0,0,1,2.45-.08,5.9,5.9,0,0,1,2.37.83A4.78,4.78,0,0,1,407.82,4a3.93,3.93,0,0,1,.45,1.51,1.76,1.76,0,0,1-.48,1.37,3,3,0,0,1-3,.27,1.86,1.86,0,0,1-1.08-1A1.22,1.22,0,0,1,404,4.79a1.78,1.78,0,0,1,2.71.44c.17.32.57.42.44-.1a2.25,2.25,0,0,0-4-.5,2.09,2.09,0,0,0-.26,1.07,2.36,2.36,0,0,0,1,1.76,3.66,3.66,0,0,0,1.85.69,3.81,3.81,0,0,0,1.93-.27,2.25,2.25,0,0,0,1.33-1.56,3.32,3.32,0,0,0-.18-1.91A5.81,5.81,0,0,0,404.4.85a6.9,6.9,0,0,0-2.79,0,3.56,3.56,0,0,0-2.43,1.46C399.06,2.49,399.22,2.61,399.34,2.48Z"/><path class="cls-1" d="M415.08,8.71c.05-.06.14-.16.14-.19V8.43c-.44.14-1,.28-1.39.39a3.72,3.72,0,0,1-.58.1,3,3,0,0,1-.46,0,5.34,5.34,0,0,1-1.32-.14,5,5,0,0,1-1.24-.5L410,8.12l-.31-.26-.14-.14-.08-.07-.06.08a4.15,4.15,0,0,1-.27.32,4.16,4.16,0,0,1-2.45,1.15,4.89,4.89,0,0,1-2.7-.37c-.21-.1-.36.05-.2.17l0,0c-.23-.08-.38.06-.16.37a43.41,43.41,0,0,0,4.62,5.34l1,1,.08.08s.05.06.08,0l.15-.18.29-.35.45-.54,1.21-1.53,1.17-1.53.59-.77c.2-.26.34-.45.73-.92l.72-.89Z"/><path class="cls-1" d="M422.39,8a4.06,4.06,0,0,0-1.78.3,2.34,2.34,0,0,0-1.31,1.29,1.65,1.65,0,0,0,.38,1.8,1.85,1.85,0,0,0,1.75.42,2,2,0,0,0,1.35-1.08c.17-.41-.16-.58-.34-.28a1.6,1.6,0,0,1-2,.53.83.83,0,0,1-.46-.76,1.23,1.23,0,0,1,.47-.92,3,3,0,0,1,2.72-.4,1.34,1.34,0,0,1,.86.9,2.63,2.63,0,0,1,0,1.44,5.32,5.32,0,0,1-3.64,3.58,5.49,5.49,0,0,1-2.7.12,3,3,0,0,1-2.15-1.48c-.06-.18-.27-.18-.25,0A2.61,2.61,0,0,0,417,15.36a5.36,5.36,0,0,0,3,.21,6,6,0,0,0,2.69-1.29,6.47,6.47,0,0,0,1.67-2.18,4.71,4.71,0,0,0,.45-1.75,2.26,2.26,0,0,0-.67-1.74A2.72,2.72,0,0,0,422.39,8Z"/><path class="cls-1" d="M435.36,13.38a3.7,3.7,0,0,1-2,1,7.35,7.35,0,0,1-2.44.07,5.89,5.89,0,0,1-2.38-.83,4.75,4.75,0,0,1-1.65-1.75,3.57,3.57,0,0,1-.45-1.51A1.7,1.7,0,0,1,426.92,9a3,3,0,0,1,3-.28,1.89,1.89,0,0,1,1.09,1,1.25,1.25,0,0,1-.24,1.36,1.79,1.79,0,0,1-2.71-.45c-.18-.31-.57-.41-.44.11A2.31,2.31,0,0,0,430.86,12a2.12,2.12,0,0,0,.77-.75,1.87,1.87,0,0,0,.26-1.07,2.35,2.35,0,0,0-.95-1.76,3.77,3.77,0,0,0-1.86-.68,3.81,3.81,0,0,0-1.93.26,2.25,2.25,0,0,0-1.32,1.56,3.32,3.32,0,0,0,.17,1.91A5.86,5.86,0,0,0,430.31,15a7,7,0,0,0,2.78,0,3.63,3.63,0,0,0,2.44-1.45C435.64,13.37,435.48,13.25,435.36,13.38Z"/><path class="cls-1" d="M430.75,7c.21.1.36,0,.2-.18h0c.23.08.38-.07.16-.37a42.59,42.59,0,0,0-4.61-5.34l-1.05-1L425.35,0s-.06-.06-.08,0l-.15.17-.3.35-.45.55-1.2,1.52L422,4.16l-.58.76-.73.93-.72.88-.34.42c0,.06-.14.15-.14.18v.09c.44-.13,1-.28,1.39-.38a3.64,3.64,0,0,1,.58-.11c.18,0,.37,0,.45,0a5,5,0,0,1,1.33.15,4.54,4.54,0,0,1,1.23.5l.29.19.3.25.15.15.07.06.07-.08a2.73,2.73,0,0,1,.27-.31,4.14,4.14,0,0,1,2.44-1.16A4.9,4.9,0,0,1,430.75,7Z"/><path class="cls-1" d="M444.25,7.9A4,4,0,0,0,446,7.59a2.32,2.32,0,0,0,1.32-1.29A1.62,1.62,0,0,0,447,4.51a1.87,1.87,0,0,0-1.74-.43,2.06,2.06,0,0,0-1.36,1.09c-.16.4.17.58.35.28a1.59,1.59,0,0,1,2-.53.84.84,0,0,1,.45.75,1.17,1.17,0,0,1-.46.92,3,3,0,0,1-2.73.41,1.34,1.34,0,0,1-.85-.9,2.58,2.58,0,0,1,.05-1.45,5.3,5.3,0,0,1,3.64-3.58A5.6,5.6,0,0,1,449,1a2.88,2.88,0,0,1,2.14,1.48c.06.18.27.17.26,0A2.62,2.62,0,0,0,449.62.49a5.46,5.46,0,0,0-2.95-.21A6,6,0,0,0,444,1.57a6.43,6.43,0,0,0-1.67,2.18,4.41,4.41,0,0,0-.45,1.76,2.24,2.24,0,0,0,.67,1.74A2.81,2.81,0,0,0,444.25,7.9Z"/><path class="cls-1" d="M431.28,2.48a3.7,3.7,0,0,1,2-1,7.7,7.7,0,0,1,2.45-.08,5.84,5.84,0,0,1,2.37.83A4.7,4.7,0,0,1,439.76,4a3.93,3.93,0,0,1,.45,1.51,1.72,1.72,0,0,1-.48,1.37,3,3,0,0,1-3,.27,1.86,1.86,0,0,1-1.08-1,1.24,1.24,0,0,1,.24-1.36,1.78,1.78,0,0,1,2.71.44c.17.32.57.42.44-.1a2.25,2.25,0,0,0-4-.5,2,2,0,0,0-.25,1.07,2.31,2.31,0,0,0,.95,1.76,3.69,3.69,0,0,0,1.85.69,3.81,3.81,0,0,0,1.93-.27,2.25,2.25,0,0,0,1.33-1.56,3.32,3.32,0,0,0-.17-1.91A5.84,5.84,0,0,0,436.34.85a6.9,6.9,0,0,0-2.79,0,3.56,3.56,0,0,0-2.43,1.46C431,2.49,431.17,2.61,431.28,2.48Z"/><path class="cls-1" d="M447,8.71c0-.06.13-.16.13-.19V8.43c-.44.14-1,.28-1.39.39a3.72,3.72,0,0,1-.58.1,2.88,2.88,0,0,1-.46,0,5.34,5.34,0,0,1-1.32-.14,5.12,5.12,0,0,1-1.24-.5l-.28-.19-.31-.26-.14-.14-.07-.07-.07.08a4.15,4.15,0,0,1-.27.32,4.16,4.16,0,0,1-2.45,1.15,4.89,4.89,0,0,1-2.7-.37c-.21-.1-.35.05-.2.17l0,0c-.22-.08-.38.06-.16.37a43.41,43.41,0,0,0,4.62,5.34l1.05,1,.08.08s.06.06.08,0l.15-.18.29-.35.45-.54,1.21-1.53,1.18-1.53.58-.77c.2-.26.34-.45.73-.92l.72-.89Z"/><path class="cls-1" d="M454.34,8a4.07,4.07,0,0,0-1.79.3,2.34,2.34,0,0,0-1.31,1.29,1.64,1.64,0,0,0,.39,1.8,1.84,1.84,0,0,0,1.74.42,2,2,0,0,0,1.35-1.08c.17-.41-.16-.58-.34-.28a1.6,1.6,0,0,1-2,.53.84.84,0,0,1-.45-.76,1.18,1.18,0,0,1,.46-.92,3,3,0,0,1,2.72-.4,1.34,1.34,0,0,1,.86.9,2.63,2.63,0,0,1-.05,1.44,5.3,5.3,0,0,1-3.64,3.58,5.48,5.48,0,0,1-2.7.12,2.91,2.91,0,0,1-2.14-1.48c-.07-.18-.27-.18-.26,0A2.61,2.61,0,0,0,449,15.36a5.36,5.36,0,0,0,2.95.21,6,6,0,0,0,2.69-1.29,6.47,6.47,0,0,0,1.67-2.18,4.53,4.53,0,0,0,.45-1.75,2.26,2.26,0,0,0-.67-1.74A2.69,2.69,0,0,0,454.34,8Z"/><path class="cls-1" d="M467.3,13.38a3.7,3.7,0,0,1-2,1,7.35,7.35,0,0,1-2.44.07,5.89,5.89,0,0,1-2.38-.83,4.75,4.75,0,0,1-1.65-1.75,3.57,3.57,0,0,1-.45-1.51A1.7,1.7,0,0,1,458.86,9a3,3,0,0,1,3-.28,1.9,1.9,0,0,1,1.08,1,1.25,1.25,0,0,1-.24,1.36,1.79,1.79,0,0,1-2.71-.45c-.18-.31-.57-.41-.44.11A2.31,2.31,0,0,0,462.8,12a2.12,2.12,0,0,0,.77-.75,1.87,1.87,0,0,0,.26-1.07,2.35,2.35,0,0,0-.95-1.76A4.07,4.07,0,0,0,459.1,8a2.24,2.24,0,0,0-1.33,1.56,3.32,3.32,0,0,0,.17,1.91A5.86,5.86,0,0,0,462.25,15,7,7,0,0,0,465,15a3.63,3.63,0,0,0,2.44-1.45C467.59,13.37,467.42,13.25,467.3,13.38Z"/><path class="cls-1" d="M462.7,7c.2.1.35,0,.19-.18h0c.23.08.38-.07.16-.37a42.59,42.59,0,0,0-4.61-5.34l-1.05-1L457.29,0s-.06-.06-.08,0l-.15.17-.29.35-.46.55-1.2,1.52-1.18,1.54-.58.76c-.21.26-.34.45-.73.93l-.72.88-.34.42c0,.06-.14.15-.14.18v.09c.44-.13,1-.28,1.39-.38a3.64,3.64,0,0,1,.58-.11c.18,0,.37,0,.45,0a5,5,0,0,1,1.33.15,4.74,4.74,0,0,1,1.24.5l.28.19L457,8l.15.15.07.06.07-.08a2.73,2.73,0,0,1,.27-.31A4.14,4.14,0,0,1,460,6.65,4.92,4.92,0,0,1,462.7,7Z"/><path class="cls-1" d="M476.19,7.9A4.08,4.08,0,0,0,478,7.59a2.34,2.34,0,0,0,1.31-1.29,1.62,1.62,0,0,0-.39-1.79,1.87,1.87,0,0,0-1.74-.43,2.06,2.06,0,0,0-1.36,1.09c-.16.4.17.58.35.28a1.59,1.59,0,0,1,2-.53.84.84,0,0,1,.45.75,1.17,1.17,0,0,1-.46.92,3,3,0,0,1-2.72.41,1.38,1.38,0,0,1-.86-.9,2.67,2.67,0,0,1,.05-1.45,5.3,5.3,0,0,1,3.64-3.58A5.6,5.6,0,0,1,481,1a2.88,2.88,0,0,1,2.14,1.48c.07.18.27.17.26,0A2.62,2.62,0,0,0,481.56.49a5.46,5.46,0,0,0-2.95-.21,6.08,6.08,0,0,0-2.69,1.29,6.56,6.56,0,0,0-1.67,2.18,4.58,4.58,0,0,0-.45,1.76,2.27,2.27,0,0,0,.67,1.74A2.81,2.81,0,0,0,476.19,7.9Z"/><path class="cls-1" d="M463.23,2.48a3.63,3.63,0,0,1,2-1,7.62,7.62,0,0,1,2.44-.08,5.89,5.89,0,0,1,2.38.83A4.75,4.75,0,0,1,471.7,4a3.76,3.76,0,0,1,.45,1.51,1.72,1.72,0,0,1-.48,1.37,3,3,0,0,1-3,.27,1.86,1.86,0,0,1-1.08-1,1.25,1.25,0,0,1,.24-1.36,1.78,1.78,0,0,1,2.71.44c.17.32.57.42.44-.1a2.25,2.25,0,0,0-4-.5,2,2,0,0,0-.25,1.07,2.35,2.35,0,0,0,.95,1.76,3.69,3.69,0,0,0,1.85.69,3.81,3.81,0,0,0,1.93-.27,2.23,2.23,0,0,0,1.33-1.56,3.32,3.32,0,0,0-.17-1.91A5.83,5.83,0,0,0,468.28.85a6.85,6.85,0,0,0-2.78,0,3.58,3.58,0,0,0-2.44,1.46C462.94,2.49,463.11,2.61,463.23,2.48Z"/><path class="cls-1" d="M479,8.71c0-.06.14-.16.13-.19V8.43c-.44.14-1,.28-1.39.39a3.53,3.53,0,0,1-.58.1,2.83,2.83,0,0,1-.45,0,5.37,5.37,0,0,1-1.33-.14,5.12,5.12,0,0,1-1.24-.5l-.28-.19c-.1-.09-.21-.17-.3-.26l-.15-.14-.07-.07-.07.08a4.15,4.15,0,0,1-.27.32,4.13,4.13,0,0,1-2.45,1.15,4.92,4.92,0,0,1-2.7-.37c-.2-.1-.35.05-.19.17l0,0c-.23-.08-.38.06-.17.37a44.28,44.28,0,0,0,4.62,5.34l1.05,1,.08.08s.06.06.08,0l.15-.18.29-.35.46-.54,1.2-1.53,1.18-1.53.58-.77c.2-.26.34-.45.73-.92l.72-.89Z"/><path class="cls-1" d="M486.28,8a4,4,0,0,0-1.78.3,2.32,2.32,0,0,0-1.32,1.29,1.64,1.64,0,0,0,.39,1.8,1.84,1.84,0,0,0,1.74.42,2,2,0,0,0,1.36-1.08c.16-.41-.17-.58-.35-.28a1.6,1.6,0,0,1-2,.53.84.84,0,0,1-.45-.76,1.18,1.18,0,0,1,.46-.92,3,3,0,0,1,2.73-.4,1.3,1.3,0,0,1,.85.9,2.54,2.54,0,0,1-.05,1.44,5.3,5.3,0,0,1-3.64,3.58,5.48,5.48,0,0,1-2.7.12,2.93,2.93,0,0,1-2.14-1.48c-.07-.18-.27-.18-.26,0a2.61,2.61,0,0,0,1.79,1.94,5.36,5.36,0,0,0,2.95.21,6,6,0,0,0,2.69-1.29,6.34,6.34,0,0,0,1.67-2.18,4.36,4.36,0,0,0,.45-1.75A2.22,2.22,0,0,0,488,8.61,2.69,2.69,0,0,0,486.28,8Z"/><path class="cls-1" d="M499.25,13.38a3.77,3.77,0,0,1-2,1,7.42,7.42,0,0,1-2.45.07,5.79,5.79,0,0,1-2.37-.83,4.7,4.7,0,0,1-1.66-1.75,3.72,3.72,0,0,1-.45-1.51A1.7,1.7,0,0,1,490.8,9a3,3,0,0,1,3-.28,1.9,1.9,0,0,1,1.08,1,1.24,1.24,0,0,1-.24,1.36,1.79,1.79,0,0,1-2.71-.45c-.17-.31-.57-.41-.44.11A2.31,2.31,0,0,0,494.74,12a2.23,2.23,0,0,0,.78-.75,1.94,1.94,0,0,0,.25-1.07,2.31,2.31,0,0,0-.95-1.76A4.07,4.07,0,0,0,491,8a2.27,2.27,0,0,0-1.33,1.56,3.32,3.32,0,0,0,.17,1.91A5.88,5.88,0,0,0,494.19,15,7.08,7.08,0,0,0,497,15a3.59,3.59,0,0,0,2.43-1.45C499.53,13.37,499.36,13.25,499.25,13.38Z"/><path class="cls-1" d="M494.64,7c.2.1.35,0,.2-.18h0c.22.08.37-.07.16-.37a42.68,42.68,0,0,0-4.62-5.34l-1.05-1L489.23,0s-.06-.06-.08,0L489,.2l-.29.35-.46.55-1.2,1.52-1.18,1.54-.58.76c-.2.26-.34.45-.73.93l-.72.88-.34.42c0,.06-.13.15-.13.18v.09c.44-.13,1-.28,1.39-.38a3.64,3.64,0,0,1,.58-.11c.18,0,.37,0,.46,0a4.91,4.91,0,0,1,1.32.15,4.74,4.74,0,0,1,1.24.5l.28.19a3.61,3.61,0,0,1,.3.25l.15.15.07.06.07-.08a2.73,2.73,0,0,1,.27-.31,4.14,4.14,0,0,1,2.45-1.16A4.9,4.9,0,0,1,494.64,7Z"/><path class="cls-1" d="M508.14,7.9a4.06,4.06,0,0,0,1.78-.31,2.34,2.34,0,0,0,1.31-1.29,1.62,1.62,0,0,0-.39-1.79,1.86,1.86,0,0,0-1.74-.43,2,2,0,0,0-1.35,1.09c-.17.4.16.58.34.28a1.59,1.59,0,0,1,2-.53.84.84,0,0,1,.45.75,1.17,1.17,0,0,1-.46.92,3,3,0,0,1-2.72.41,1.38,1.38,0,0,1-.86-.9,2.67,2.67,0,0,1,.05-1.45,5.3,5.3,0,0,1,3.64-3.58,5.61,5.61,0,0,1,2.7-.11A2.86,2.86,0,0,1,515,2.44c.07.18.28.17.26,0A2.62,2.62,0,0,0,513.5.49a5.46,5.46,0,0,0-2.95-.21,6.13,6.13,0,0,0-2.69,1.29,6.56,6.56,0,0,0-1.67,2.18,4.58,4.58,0,0,0-.45,1.76,2.27,2.27,0,0,0,.67,1.74A2.81,2.81,0,0,0,508.14,7.9Z"/><path class="cls-1" d="M495.17,2.48a3.63,3.63,0,0,1,2-1,7.62,7.62,0,0,1,2.44-.08,5.89,5.89,0,0,1,2.38.83A4.75,4.75,0,0,1,503.64,4a3.61,3.61,0,0,1,.45,1.51,1.72,1.72,0,0,1-.48,1.37,3,3,0,0,1-3,.27,1.85,1.85,0,0,1-1.09-1,1.25,1.25,0,0,1,.24-1.36,1.78,1.78,0,0,1,2.71.44c.18.32.57.42.44-.1a2.32,2.32,0,0,0-3.26-1.25,2.21,2.21,0,0,0-.77.75,1.91,1.91,0,0,0-.26,1.07,2.35,2.35,0,0,0,.95,1.76,3.69,3.69,0,0,0,1.85.69,3.79,3.79,0,0,0,1.93-.27,2.21,2.21,0,0,0,1.33-1.56,3.32,3.32,0,0,0-.17-1.91A5.83,5.83,0,0,0,500.22.85a6.85,6.85,0,0,0-2.78,0A3.61,3.61,0,0,0,495,2.28C494.89,2.49,495.05,2.61,495.17,2.48Z"/><path class="cls-1" d="M510.91,8.71c0-.06.14-.16.14-.19V8.43c-.44.14-1,.28-1.39.39a3.53,3.53,0,0,1-.58.1,2.83,2.83,0,0,1-.45,0,5.42,5.42,0,0,1-1.33-.14,5.12,5.12,0,0,1-1.24-.5l-.28-.19-.3-.26-.15-.14-.07-.07-.07.08a4.15,4.15,0,0,1-.27.32,4.13,4.13,0,0,1-2.44,1.15,4.94,4.94,0,0,1-2.71-.37c-.2-.1-.35.05-.19.17l0,0c-.23-.08-.38.06-.16.37a43.31,43.31,0,0,0,4.61,5.34l1.05,1,.08.08s.06.06.08,0l.15-.18.29-.35.46-.54,1.2-1.53,1.18-1.53.58-.77.73-.92.72-.89Z"/><path class="cls-1" d="M518.22,8a4,4,0,0,0-1.78.3,2.32,2.32,0,0,0-1.32,1.29,1.64,1.64,0,0,0,.39,1.8,1.84,1.84,0,0,0,1.74.42,2,2,0,0,0,1.36-1.08c.16-.41-.17-.58-.35-.28a1.6,1.6,0,0,1-2,.53.84.84,0,0,1-.45-.76,1.18,1.18,0,0,1,.46-.92,3,3,0,0,1,2.73-.4,1.3,1.3,0,0,1,.85.9,2.54,2.54,0,0,1-.05,1.44,5.3,5.3,0,0,1-3.64,3.58,5.48,5.48,0,0,1-2.7.12,2.93,2.93,0,0,1-2.14-1.48c-.06-.18-.27-.18-.26,0a2.61,2.61,0,0,0,1.79,1.94,5.37,5.37,0,0,0,2.95.21,5.92,5.92,0,0,0,2.69-1.29,6.22,6.22,0,0,0,1.67-2.18,4.36,4.36,0,0,0,.45-1.75,2.22,2.22,0,0,0-.67-1.74A2.69,2.69,0,0,0,518.22,8Z"/><path class="cls-1" d="M531.19,13.38a3.73,3.73,0,0,1-2,1,7.42,7.42,0,0,1-2.45.07,5.9,5.9,0,0,1-2.37-.83,4.78,4.78,0,0,1-1.66-1.75,3.88,3.88,0,0,1-.45-1.51A1.74,1.74,0,0,1,522.74,9a3,3,0,0,1,3-.28,1.9,1.9,0,0,1,1.08,1,1.22,1.22,0,0,1-.24,1.36,1.79,1.79,0,0,1-2.71-.45c-.17-.31-.57-.41-.44.11A2.31,2.31,0,0,0,526.68,12a2.23,2.23,0,0,0,.78-.75,2,2,0,0,0,.26-1.07,2.36,2.36,0,0,0-1-1.76A4.07,4.07,0,0,0,523,8a2.29,2.29,0,0,0-1.33,1.56,3.32,3.32,0,0,0,.18,1.91,5.85,5.85,0,0,0,4.3,3.57,7.08,7.08,0,0,0,2.79,0,3.59,3.59,0,0,0,2.43-1.45C531.47,13.37,531.31,13.25,531.19,13.38Z"/><path class="cls-1" d="M526.58,7c.21.1.35,0,.2-.18h0c.22.08.38-.07.16-.37a42.68,42.68,0,0,0-4.62-5.34l-1-1L521.17,0s-.06-.06-.08,0l-.15.17-.29.35-.45.55L519,2.62l-1.17,1.54-.59.76c-.2.26-.34.45-.73.93l-.72.88-.34.42c0,.06-.13.15-.13.18v.09c.44-.13,1-.28,1.39-.38a3.86,3.86,0,0,1,.58-.11c.18,0,.37,0,.46,0a4.91,4.91,0,0,1,1.32.15,4.61,4.61,0,0,1,1.24.5l.28.19.31.25.14.15.07.06.07-.08a2.73,2.73,0,0,1,.27-.31,4.17,4.17,0,0,1,2.45-1.16A4.9,4.9,0,0,1,526.58,7Z"/><path class="cls-1" d="M540.08,7.9a4.06,4.06,0,0,0,1.78-.31,2.31,2.31,0,0,0,1.31-1.29,1.63,1.63,0,0,0-.38-1.79A1.88,1.88,0,0,0,541,4.08a2,2,0,0,0-1.35,1.09c-.17.4.16.58.34.28a1.59,1.59,0,0,1,2-.53.83.83,0,0,1,.46.75,1.21,1.21,0,0,1-.47.92A3,3,0,0,1,539.3,7a1.38,1.38,0,0,1-.86-.9,2.67,2.67,0,0,1,0-1.45,5.32,5.32,0,0,1,3.64-3.58,5.61,5.61,0,0,1,2.7-.11A2.9,2.9,0,0,1,547,2.44c.06.18.27.17.25,0A2.62,2.62,0,0,0,545.44.49a5.46,5.46,0,0,0-3-.21,6.13,6.13,0,0,0-2.69,1.29,6.56,6.56,0,0,0-1.67,2.18,4.77,4.77,0,0,0-.45,1.76,2.27,2.27,0,0,0,.67,1.74A2.83,2.83,0,0,0,540.08,7.9Z"/><path class="cls-1" d="M527.11,2.48a3.63,3.63,0,0,1,2-1,7.62,7.62,0,0,1,2.44-.08,5.89,5.89,0,0,1,2.38.83A4.75,4.75,0,0,1,535.58,4,3.61,3.61,0,0,1,536,5.52a1.72,1.72,0,0,1-.48,1.37,3,3,0,0,1-3,.27,1.88,1.88,0,0,1-1.09-1,1.25,1.25,0,0,1,.24-1.36,1.78,1.78,0,0,1,2.71.44c.18.32.57.42.44-.1a2.31,2.31,0,0,0-3.25-1.25,2.15,2.15,0,0,0-.78.75,2,2,0,0,0-.26,1.07,2.35,2.35,0,0,0,.95,1.76,3.69,3.69,0,0,0,1.86.69,3.82,3.82,0,0,0,1.93-.27,2.22,2.22,0,0,0,1.32-1.56,3.32,3.32,0,0,0-.17-1.91A5.83,5.83,0,0,0,532.16.85a6.85,6.85,0,0,0-2.78,0,3.61,3.61,0,0,0-2.44,1.46C526.83,2.49,527,2.61,527.11,2.48Z"/><path class="cls-1" d="M542.85,8.71c0-.06.14-.16.14-.19V8.43c-.44.14-1,.28-1.39.39a3.53,3.53,0,0,1-.58.1,2.77,2.77,0,0,1-.45,0,5.42,5.42,0,0,1-1.33-.14,4.89,4.89,0,0,1-1.23-.5l-.29-.19-.3-.26-.15-.14-.07-.07-.07.08a4.15,4.15,0,0,1-.27.32,4.1,4.1,0,0,1-2.44,1.15,4.89,4.89,0,0,1-2.7-.37c-.21-.1-.36.05-.2.17l0,0c-.23-.08-.38.06-.16.37A43.31,43.31,0,0,0,536,14.73l1,1,.09.08s0,.06.07,0l.15-.18.3-.35.45-.54,1.2-1.53,1.18-1.53.59-.77c.2-.26.34-.45.72-.92l.72-.89Z"/><path class="cls-1" d="M550.16,8a4,4,0,0,0-1.78.3,2.32,2.32,0,0,0-1.32,1.29,1.66,1.66,0,0,0,.39,1.8,1.84,1.84,0,0,0,1.74.42,2,2,0,0,0,1.36-1.08c.17-.41-.16-.58-.35-.28a1.6,1.6,0,0,1-2,.53.84.84,0,0,1-.45-.76,1.21,1.21,0,0,1,.46-.92,3,3,0,0,1,2.73-.4,1.34,1.34,0,0,1,.86.9,2.63,2.63,0,0,1,0,1.44,5.32,5.32,0,0,1-3.65,3.58,5.48,5.48,0,0,1-2.7.12,2.93,2.93,0,0,1-2.14-1.48c-.06-.18-.27-.18-.25,0a2.59,2.59,0,0,0,1.78,1.94,5.37,5.37,0,0,0,3,.21,6,6,0,0,0,2.7-1.29,6.31,6.31,0,0,0,1.66-2.18,4.36,4.36,0,0,0,.45-1.75,2.22,2.22,0,0,0-.67-1.74A2.67,2.67,0,0,0,550.16,8Z"/><path class="cls-1" d="M563.13,13.38a3.73,3.73,0,0,1-2,1,7.41,7.41,0,0,1-2.45.07,5.9,5.9,0,0,1-2.37-.83,4.78,4.78,0,0,1-1.66-1.75,3.88,3.88,0,0,1-.45-1.51A1.71,1.71,0,0,1,554.69,9a3,3,0,0,1,3-.28,2,2,0,0,1,1.09,1,1.24,1.24,0,0,1-.25,1.36,1.79,1.79,0,0,1-2.71-.45c-.17-.31-.57-.41-.44.11A2.31,2.31,0,0,0,558.62,12a2.23,2.23,0,0,0,.78-.75,2,2,0,0,0,.26-1.07,2.36,2.36,0,0,0-1-1.76,3.7,3.7,0,0,0-1.85-.68,3.8,3.8,0,0,0-1.93.26,2.29,2.29,0,0,0-1.33,1.56,3.32,3.32,0,0,0,.18,1.91,5.86,5.86,0,0,0,4.3,3.57,7.08,7.08,0,0,0,2.79,0,3.59,3.59,0,0,0,2.43-1.45C563.41,13.37,563.25,13.25,563.13,13.38Z"/><path class="cls-1" d="M558.52,7c.21.1.36,0,.2-.18h0c.23.08.38-.07.16-.37a42.59,42.59,0,0,0-4.61-5.34l-1.06-1L553.11,0S553.06,0,553,0l-.15.17-.29.35-.45.55-1.21,1.52-1.17,1.54-.59.76c-.2.26-.34.45-.73.93l-.71.88-.34.42c0,.06-.14.15-.14.18v.09c.44-.13,1-.28,1.39-.38a4.11,4.11,0,0,1,.58-.11c.19,0,.37,0,.46,0a4.91,4.91,0,0,1,1.32.15,4.48,4.48,0,0,1,1.24.5l.28.19.31.25.14.15s0,0,.08.06l.06-.08a2.73,2.73,0,0,1,.27-.31,4.17,4.17,0,0,1,2.45-1.16A4.9,4.9,0,0,1,558.52,7Z"/><path class="cls-1" d="M572,7.9a4,4,0,0,0,1.78-.31,2.32,2.32,0,0,0,1.32-1.29,1.64,1.64,0,0,0-.39-1.79A1.88,1.88,0,0,0,573,4.08a2,2,0,0,0-1.35,1.09c-.17.4.16.58.34.28a1.6,1.6,0,0,1,2-.53.84.84,0,0,1,.45.75,1.21,1.21,0,0,1-.47.92,3,3,0,0,1-2.72.41,1.38,1.38,0,0,1-.86-.9,2.67,2.67,0,0,1,0-1.45,5.32,5.32,0,0,1,3.64-3.58A5.64,5.64,0,0,1,576.78,1a2.9,2.9,0,0,1,2.14,1.48c.06.18.27.17.25,0A2.6,2.6,0,0,0,577.38.49a5.45,5.45,0,0,0-3-.21,6.13,6.13,0,0,0-2.69,1.29,6.4,6.4,0,0,0-1.66,2.18,4.59,4.59,0,0,0-.46,1.76,2.27,2.27,0,0,0,.67,1.74A2.83,2.83,0,0,0,572,7.9Z"/><path class="cls-1" d="M559.05,2.48a3.66,3.66,0,0,1,2-1,7.68,7.68,0,0,1,2.45-.08,5.9,5.9,0,0,1,2.37.83A4.67,4.67,0,0,1,567.52,4,3.61,3.61,0,0,1,568,5.52a1.72,1.72,0,0,1-.48,1.37,3,3,0,0,1-3,.27,1.91,1.91,0,0,1-1.09-1,1.25,1.25,0,0,1,.24-1.36,1.78,1.78,0,0,1,2.71.44c.18.32.58.42.45-.1a2.32,2.32,0,0,0-3.26-1.25,2.23,2.23,0,0,0-.78.75,2.09,2.09,0,0,0-.26,1.07,2.38,2.38,0,0,0,1,1.76,3.69,3.69,0,0,0,1.86.69,3.81,3.81,0,0,0,1.93-.27,2.25,2.25,0,0,0,1.33-1.56,3.4,3.4,0,0,0-.18-1.91,5.83,5.83,0,0,0-4.3-3.56,6.9,6.9,0,0,0-2.79,0,3.61,3.61,0,0,0-2.44,1.46C558.77,2.49,558.93,2.61,559.05,2.48Z"/><path class="cls-1" d="M574.79,8.71c.05-.06.14-.16.14-.19V8.43c-.44.14-1,.28-1.39.39a3.83,3.83,0,0,1-.59.1,2.77,2.77,0,0,1-.45,0,5.34,5.34,0,0,1-1.32-.14,4.81,4.81,0,0,1-1.24-.5l-.28-.19-.31-.26-.15-.14-.07-.07-.06.08-.27.32a4.16,4.16,0,0,1-2.45,1.15,4.89,4.89,0,0,1-2.7-.37c-.21-.1-.36.05-.2.17l0,0c-.23-.08-.38.06-.16.37a43.31,43.31,0,0,0,4.61,5.34l1.06,1,.08.08s0,.06.08,0l.14-.18.3-.35.45-.54,1.2-1.53,1.18-1.53.59-.77c.2-.26.34-.45.73-.92l.71-.89Z"/><path class="cls-1" d="M582.1,8a4,4,0,0,0-1.78.3A2.32,2.32,0,0,0,579,9.55a1.66,1.66,0,0,0,.39,1.8,1.85,1.85,0,0,0,1.75.42,2,2,0,0,0,1.35-1.08c.17-.41-.16-.58-.35-.28a1.6,1.6,0,0,1-2,.53.84.84,0,0,1-.45-.76,1.23,1.23,0,0,1,.47-.92,3,3,0,0,1,2.72-.4,1.34,1.34,0,0,1,.86.9,2.63,2.63,0,0,1,0,1.44,5.32,5.32,0,0,1-3.64,3.58,5.52,5.52,0,0,1-2.71.12,3,3,0,0,1-2.14-1.48c-.06-.18-.27-.18-.25,0a2.59,2.59,0,0,0,1.79,1.94,5.36,5.36,0,0,0,3,.21,6,6,0,0,0,2.69-1.29A6.31,6.31,0,0,0,584,12.1a4.54,4.54,0,0,0,.46-1.75,2.26,2.26,0,0,0-.67-1.74A2.72,2.72,0,0,0,582.1,8Z"/><path class="cls-1" d="M595.07,13.38a3.73,3.73,0,0,1-2,1,7.4,7.4,0,0,1-2.45.07,5.9,5.9,0,0,1-2.37-.83,4.67,4.67,0,0,1-1.65-1.75,3.57,3.57,0,0,1-.45-1.51A1.7,1.7,0,0,1,586.63,9a3,3,0,0,1,3-.28,2,2,0,0,1,1.09,1,1.25,1.25,0,0,1-.24,1.36,1.79,1.79,0,0,1-2.71-.45c-.18-.31-.58-.41-.45.11A2.31,2.31,0,0,0,590.56,12a2.15,2.15,0,0,0,.78-.75,2,2,0,0,0,.26-1.07,2.38,2.38,0,0,0-1-1.76A4.09,4.09,0,0,0,586.86,8a2.29,2.29,0,0,0-1.33,1.56,3.32,3.32,0,0,0,.18,1.91A5.86,5.86,0,0,0,590,15a7.08,7.08,0,0,0,2.79,0,3.63,3.63,0,0,0,2.44-1.45C595.35,13.37,595.19,13.25,595.07,13.38Z"/><path class="cls-1" d="M590.46,7c.21.1.36,0,.2-.18h0c.23.08.38-.07.16-.37a42.59,42.59,0,0,0-4.61-5.34l-1.06-1L585.05,0S585,0,585,0l-.14.17-.3.35-.45.55-1.2,1.52L581.7,4.16l-.59.76c-.2.26-.34.45-.73.93l-.71.88-.34.42c-.05.06-.14.15-.14.18v.09c.44-.13,1-.28,1.39-.38a4,4,0,0,1,.59-.11c.18,0,.36,0,.45,0a4.91,4.91,0,0,1,1.32.15,4.48,4.48,0,0,1,1.24.5l.28.19.31.25.15.15s0,0,.07.06l.06-.08c.1-.11.18-.22.27-.31a4.17,4.17,0,0,1,2.45-1.16A4.9,4.9,0,0,1,590.46,7Z"/></g></g></svg>