<svg width="253" height="109" viewBox="0 0 253 109" fill="none" xmlns="http://www.w3.org/2000/svg">
<g clip-path="url(#clip0_16_45)">
<path d="M33.72 2.49997C33.41 1.22997 32.32 0.719971 30.72 0.719971C27.28 0.749971 21.25 3.39997 17.07 5.49997C14.22 6.92997 12 8.43997 11.63 9.19997C11.473 9.50958 11.394 9.85287 11.4 10.2C11.4567 10.5771 11.6522 10.9194 11.9482 11.1599C12.2441 11.4004 12.6192 11.5217 13 11.5C13.3423 11.5042 13.679 11.4129 13.9723 11.2362C14.2656 11.0596 14.5037 10.8046 14.66 10.5C14.6966 10.4351 14.7203 10.3638 14.73 10.29L18.35 8.45997C20.9767 7.08439 23.6967 5.8948 26.49 4.89997C28.63 4.18997 30.33 3.62997 30.49 3.62997V3.74997C30.36 4.99997 26.97 12.89 22.49 22.75C13.87 42.19 1.18998 68.6 0.499984 69.8C0.319713 70.0604 0.231714 70.3737 0.249984 70.69C0.247214 70.8868 0.28427 71.0821 0.358927 71.2643C0.433584 71.4464 0.544299 71.6116 0.684416 71.7498C0.824533 71.8881 0.991158 71.9965 1.17428 72.0687C1.35739 72.141 1.55322 72.1754 1.74998 72.17C2.07007 72.1647 2.38344 72.0773 2.66009 71.9162C2.93673 71.7551 3.1674 71.5257 3.32998 71.25C4.34998 69.5 33 9.93997 33.74 3.01997C33.7466 2.84638 33.7399 2.67254 33.72 2.49997Z" fill="#FDD579"/>
<path d="M58.77 48.73C58.58 49.3803 58.4758 50.0526 58.46 50.73C58.4262 51.3153 58.5448 51.8994 58.8042 52.4252C59.0636 52.951 59.4549 53.4006 59.94 53.73C60.5594 54.1288 61.2834 54.3342 62.02 54.32C62.4162 54.3086 62.8108 54.2651 63.2 54.19C65.77 53.65 69.63 51.34 74.14 47.04C74.4433 46.7335 74.6154 46.3211 74.62 45.89C74.6201 45.6795 74.5779 45.4712 74.4959 45.2774C74.4139 45.0836 74.2937 44.9082 74.1426 44.7617C73.9915 44.6153 73.8125 44.5007 73.6162 44.4248C73.4199 44.3489 73.2103 44.3133 73 44.32C72.7983 44.3178 72.5981 44.3556 72.411 44.4311C72.224 44.5066 72.0537 44.6184 71.91 44.76C67.91 48.62 64.58 50.66 62.52 51.09C62.3194 51.1344 62.1153 51.1612 61.91 51.17C61.8144 51.1708 61.7194 51.1539 61.63 51.12C61.63 51.12 61.63 50.97 61.63 50.74V50.69C61.63 49.34 62.63 47 64.81 43.74C65.2369 43.1887 65.494 42.525 65.55 41.83C65.5505 41.5779 65.4853 41.33 65.3608 41.1108C65.2363 40.8916 65.0568 40.7086 64.84 40.58C64.6495 40.4571 64.4265 40.3944 64.2 40.4C63.429 40.4871 62.7031 40.8081 62.12 41.32C62.0353 40.8258 61.7732 40.3794 61.3829 40.0646C60.9926 39.7498 60.5009 39.5882 60 39.61H59.77C58.8893 39.7128 58.0548 40.0591 57.36 40.61C55.9217 41.7212 54.6518 43.0348 53.59 44.51C53.4751 44.5566 53.3646 44.6135 53.26 44.68C45.8 50.36 43.1 52.19 42.77 52.19L44.77 48.12C45.5143 46.6921 46.1527 45.2114 46.68 43.69C46.88 43.0966 46.9879 42.476 47 41.85C47.0434 41.3125 46.8898 40.7777 46.5677 40.3453C46.2457 39.9128 45.7773 39.6124 45.25 39.5C45.0417 39.4401 44.8267 39.4065 44.61 39.4C42.61 39.4 39.78 41.79 36.95 44.69C41.66 36.34 46.95 26.82 48.61 22.34L48.69 22.27C48.7283 22.2365 48.7532 22.1903 48.76 22.14C48.7753 22.098 48.7753 22.052 48.76 22.01C48.9622 21.4871 49.0901 20.9384 49.14 20.38C49.1487 20.294 49.1399 20.2071 49.1141 20.1246C49.0883 20.0421 49.0461 19.9657 48.99 19.9C48.8525 19.7339 48.6819 19.5983 48.489 19.5018C48.2962 19.4054 48.0853 19.3503 47.87 19.34C47.3469 19.3839 46.862 19.6317 46.52 20.03C46.3531 20.173 46.22 20.3512 46.1301 20.5517C46.0402 20.7523 45.9957 20.9702 46 21.19C45.9993 21.3977 46.0395 21.6036 46.1184 21.7958C46.1974 21.988 46.3134 22.1627 46.46 22.31L46.66 22.46C45.95 24.34 39.33 34.04 34.42 42.77C34.06 43.4 33.71 44.03 33.42 44.64C30.736 46.6912 27.8631 48.4826 24.84 49.99C23.8507 50.4735 22.7963 50.8104 21.71 50.99C21.5235 51.0026 21.3364 51.0026 21.15 50.99C21.1137 50.9189 21.0964 50.8397 21.1 50.76V50.63C21.1 48.82 24.38 45.57 27 43.63C27.2447 43.4365 27.5019 43.2595 27.77 43.1C27.8315 43.3239 27.9438 43.5305 28.0981 43.704C28.2525 43.8774 28.4447 44.0129 28.66 44.1C28.8574 44.1906 29.0728 44.235 29.29 44.23C29.5994 44.2369 29.9038 44.1511 30.164 43.9836C30.4242 43.8161 30.6283 43.5745 30.75 43.29C31.0198 42.7052 31.1727 42.0734 31.2 41.43C31.1996 41.1253 31.1419 40.8234 31.03 40.54C30.8932 40.1594 30.6398 39.8317 30.3058 39.6036C29.9718 39.3755 29.5743 39.2588 29.17 39.27C28.707 39.283 28.25 39.3778 27.82 39.55C26.8655 39.9338 25.9673 40.4451 25.15 41.07C21.94 43.36 17.92 47.74 17.92 50.74V51.05C17.9252 51.5513 18.0377 52.0457 18.25 52.5C18.5335 53.0603 18.9785 53.5228 19.5276 53.8276C20.0766 54.1324 20.7045 54.2656 21.33 54.21C21.5498 54.2242 21.7702 54.2242 21.99 54.21C23.4107 53.9891 24.7896 53.5541 26.08 52.92C27.4027 52.2847 28.6911 51.5804 29.94 50.81C29.12 52.3 28.43 53.56 27.94 54.47C27.6126 55.0168 27.4206 55.6339 27.38 56.27C27.3759 56.5492 27.4532 56.8237 27.6023 57.0598C27.7515 57.2959 27.9661 57.4836 28.22 57.6C28.3929 57.6892 28.5854 57.7339 28.78 57.73C29.95 57.73 31.3 56.12 33.08 53.96C34.08 52.72 42.6 42.5 43.54 42.5C43.5539 42.4986 43.568 42.5001 43.5813 42.5045C43.5946 42.5089 43.6069 42.516 43.6173 42.5255C43.6276 42.5349 43.6359 42.5464 43.6415 42.5592C43.6472 42.5721 43.6501 42.5859 43.65 42.6V42.81C43.1521 44.1806 42.5641 45.5169 41.89 46.81C40.89 49 39.8 51.14 39.8 52.72C39.7794 53.239 39.9345 53.7499 40.24 54.17C40.4243 54.3987 40.6622 54.5786 40.9325 54.6937C41.2028 54.8088 41.4973 54.8556 41.79 54.83C43.39 54.83 46.14 53.61 50.59 50.6C50.5805 50.7465 50.5805 50.8935 50.59 51.04C50.5745 51.4158 50.6895 51.7855 50.9156 52.0862C51.1416 52.387 51.4646 52.6003 51.83 52.69C51.9555 52.7143 52.0845 52.7143 52.21 52.69C53.61 52.69 56.11 50.78 58.58 48.62L58.77 48.73ZM58.87 43.43C58.79 43.69 58.69 43.99 58.56 44.32L55.69 47C56.563 45.6557 57.6352 44.452 58.87 43.43Z" fill="#FDD579"/>
<path d="M164.64 102.87H164.53C164.101 102.883 163.694 103.063 163.395 103.371C163.097 103.679 162.93 104.091 162.93 104.52C162.93 104.6 162.93 104.57 162.93 104.6C162.93 104.68 162.75 104.71 162.55 104.71C161.566 104.595 160.599 104.363 159.67 104.02C156.655 102.93 153.735 101.592 150.94 100.02C139.78 93.8206 129.065 86.8538 118.87 79.17C141.42 75.28 162.22 67.17 164.38 52.83C164.503 52.0393 164.563 51.2401 164.56 50.44C164.553 48.3118 164.058 46.2136 163.113 44.3067C162.168 42.3998 160.799 40.7349 159.11 39.44C155.705 36.7953 151.675 35.0732 147.41 34.44C145.29 34.074 143.142 33.8933 140.99 33.9C138.146 33.9079 135.31 34.1892 132.52 34.74C125.424 36.0471 118.765 39.1 113.144 43.6234C107.522 48.1467 103.115 53.9981 100.32 60.65C100.239 60.854 100.195 61.0706 100.19 61.29C100.192 61.614 100.288 61.9305 100.465 62.2018C100.643 62.4731 100.894 62.6877 101.19 62.82C101.392 62.897 101.604 62.9409 101.82 62.95C102.145 62.9526 102.464 62.8591 102.736 62.6812C103.008 62.5033 103.222 62.2489 103.35 61.95C105.933 55.7894 110.01 50.3694 115.213 46.1793C120.416 41.9892 126.58 39.1609 133.15 37.95C135.74 37.4838 138.369 37.2661 141 37.3C142.987 37.2921 144.971 37.456 146.93 37.79C150.628 38.3229 154.131 39.7852 157.11 42.04C158.42 43.0476 159.482 44.3423 160.214 45.8246C160.945 47.3068 161.327 48.937 161.33 50.59C161.341 51.2026 161.298 51.8151 161.2 52.42C159.29 65.07 139.9 72.42 118.65 76.02C120.07 71.56 121.35 67.23 122.36 63.52C123.148 60.7261 123.77 57.8878 124.22 55.02C124.298 54.4465 124.342 53.8687 124.35 53.29C124.35 51.29 123.71 50.11 122.26 50.11H121.75C121 50.2894 120.326 50.6985 119.82 51.28C119.519 51.5959 119.348 52.0136 119.34 52.45C119.344 52.8872 119.515 53.3062 119.82 53.62C120.139 53.917 120.555 54.0876 120.99 54.1H121.35C121.14 54.28 120.96 54.46 120.94 54.61C120.513 57.3339 119.918 60.029 119.16 62.68C118.06 66.8 116.59 71.68 115.01 76.6C108.49 77.6 101.9 78.2 95.67 78.6C91.77 78.8 88.03 78.93 84.52 78.93C79.9713 78.9586 75.4245 78.7382 70.9 78.27C65.3 77.66 61.82 76.92 61.76 76.27C61.76 76.27 61.94 76.27 62.3 76.02C62.4789 75.8978 62.6316 75.7413 62.7493 75.5595C62.867 75.3777 62.9473 75.1742 62.9855 74.961C63.0236 74.7478 63.0189 74.5291 62.9716 74.3177C62.9243 74.1064 62.8354 73.9066 62.71 73.73C62.5593 73.5111 62.3577 73.3321 62.1225 73.2085C61.8874 73.0848 61.6257 73.0201 61.36 73.02C61.0231 73.0198 60.6945 73.1246 60.42 73.32C59.872 73.6185 59.4075 74.0494 59.0686 74.5733C58.7298 75.0973 58.5274 75.6978 58.48 76.32V76.45C58.61 79 63.21 80.78 70.54 81.59C75.2615 82.0636 80.0049 82.2839 84.75 82.25C88.23 82.25 91.98 82.15 95.84 81.95C101.67 81.62 107.84 81.03 113.84 80.14C109.84 92.54 105.47 104.47 104.96 105.52C104.84 105.737 104.778 105.982 104.78 106.23C104.783 106.542 104.872 106.848 105.038 107.113C105.204 107.378 105.44 107.591 105.72 107.73C105.943 107.829 106.185 107.88 106.43 107.88C106.743 107.881 107.05 107.793 107.316 107.627C107.581 107.46 107.794 107.222 107.93 106.94C108.44 105.87 112.77 94.01 116.84 81.62C127.156 89.5735 138.045 96.753 149.42 103.1C152.389 104.754 155.489 106.159 158.69 107.3C159.914 107.744 161.199 107.994 162.5 108.04C163.018 108.078 163.539 108.009 164.029 107.837C164.52 107.665 164.969 107.394 165.35 107.04C165.634 106.737 165.855 106.38 165.999 105.99C166.143 105.6 166.208 105.185 166.19 104.77V104.54C166.204 104.327 166.174 104.114 166.102 103.913C166.031 103.712 165.919 103.528 165.774 103.372C165.629 103.216 165.454 103.09 165.259 103.004C165.064 102.918 164.853 102.872 164.64 102.87Z" fill="#FDD579"/>
<path d="M158.76 68.66C158.6 69.012 158.515 69.3934 158.51 69.78C158.498 70.0058 158.536 70.2314 158.62 70.4411C158.705 70.6509 158.834 70.8399 158.998 70.9949C159.163 71.1499 159.359 71.2674 159.573 71.339C159.788 71.4107 160.015 71.4349 160.24 71.41C161.074 71.3378 161.874 71.045 162.557 70.5618C163.241 70.0785 163.784 69.4222 164.13 68.66C164.298 68.3095 164.393 67.9284 164.41 67.54C164.414 67.3157 164.37 67.0931 164.282 66.887C164.193 66.6809 164.062 66.4961 163.896 66.3447C163.731 66.1933 163.535 66.079 163.322 66.0092C163.109 65.9394 162.883 65.9158 162.66 65.94C161.828 66.0107 161.03 66.2994 160.345 66.7769C159.66 67.2544 159.114 67.9039 158.76 68.66Z" fill="#FDD579"/>
<path d="M251.36 78.97C251.22 78.8299 251.053 78.7196 250.869 78.6457C250.685 78.5718 250.488 78.5358 250.29 78.54C250.077 78.5343 249.865 78.5742 249.668 78.657C249.472 78.7398 249.295 78.8635 249.15 79.02C244.15 84.26 242.27 86.02 241.84 86.02H241.76C241.689 85.8529 241.665 85.6697 241.69 85.49C241.69 84.8 241.82 83.49 241.94 82.18C242.09 80.9285 242.177 79.6702 242.2 78.41C242.2 75.87 241.61 73.7 239.12 73.22H238.58C236.827 73.4105 235.166 74.1052 233.8 75.22C234.039 74.7418 234.201 74.2288 234.28 73.7V73.54C234.12 72.63 233.64 72.17 232.83 72.17C232.683 72.1607 232.536 72.1607 232.39 72.17C232.022 72.2334 231.688 72.4246 231.446 72.7098C231.205 72.9951 231.072 73.3563 231.07 73.73V74.01V74.13C230.86 74.53 229.81 76.29 228.6 78.31C228.431 78.3836 228.275 78.485 228.14 78.61C224.14 82.48 220.81 84.52 218.75 84.95C218.549 84.995 218.345 85.0218 218.14 85.03C218.044 85.0308 217.949 85.0139 217.86 84.98C217.834 84.8546 217.834 84.7253 217.86 84.6V84.54C217.86 83.2 218.86 80.85 221.05 77.6C221.47 77.0459 221.724 76.3832 221.78 75.69C221.78 75.4379 221.715 75.19 221.591 74.9708C221.466 74.7516 221.287 74.5686 221.07 74.44C220.883 74.3185 220.663 74.2558 220.44 74.26C219.665 74.3451 218.936 74.6663 218.35 75.18C218.264 74.6767 217.995 74.2232 217.594 73.9073C217.193 73.5913 216.689 73.4355 216.18 73.47H216C215.115 73.5663 214.275 73.9132 213.58 74.47C212.058 75.6461 210.726 77.0491 209.63 78.63C202.4 84.37 199.63 86.3 199.2 86.3C199.184 86.2582 199.184 86.2118 199.2 86.17C199.2 85.05 204.04 78.28 205.41 76.32C205.74 75.8883 205.926 75.3633 205.94 74.82C205.965 74.3998 205.826 73.9864 205.551 73.6672C205.277 73.348 204.889 73.1482 204.47 73.11C204.272 73.1236 204.08 73.1808 203.907 73.2777C203.734 73.3745 203.585 73.5085 203.47 73.67C202.99 74.16 191.69 85.56 191.03 85.56C191.03 85.46 193.3 81.28 194.8 78.56C195.568 77.4459 196.089 76.1812 196.33 74.85C196.33 74.6618 196.291 74.4757 196.216 74.3035C196.14 74.1313 196.029 73.9768 195.89 73.85C195.61 73.5618 195.231 73.3903 194.83 73.37C194.509 73.3993 194.197 73.4964 193.916 73.655C193.635 73.8136 193.391 74.03 193.2 74.29C190.679 76.9978 188.008 79.5618 185.2 81.97C184.44 82.61 183.81 83.17 183.27 83.58C183.49 82.9133 183.8 82.1433 184.2 81.27L184.54 80.93C184.83 80.6284 184.994 80.2281 185 79.81C185.005 79.7501 185.005 79.6899 185 79.63C185.62 78.39 186.37 76.98 187.31 75.36C187.456 75.1229 187.529 74.8482 187.52 74.57C187.518 74.2914 187.444 74.0181 187.306 73.7764C187.168 73.5346 186.969 73.3327 186.73 73.19C186.486 73.061 186.216 72.9924 185.94 72.99C185.661 72.9919 185.388 73.0656 185.146 73.204C184.905 73.3424 184.703 73.5408 184.56 73.78C183.31 75.97 182.35 77.83 181.62 79.4C177.4 83.63 175.45 85.28 174.94 85.28H174.87C174.737 85.1057 174.673 84.8885 174.69 84.67C174.69 82.58 177.39 76.27 180.26 70.13C180.92 68.76 181.51 67.36 182.07 66.01C183.717 63.13 185.49 59.8966 187.39 56.31C187.645 55.8418 187.792 55.3224 187.82 54.79C187.831 54.5192 187.766 54.2508 187.631 54.0155C187.497 53.7803 187.299 53.5877 187.06 53.46C186.856 53.3426 186.625 53.2806 186.39 53.28C185.3 53.28 184.64 54.68 184.56 54.84C180.882 61.8961 176.737 68.698 172.15 75.2C171.989 74.7369 171.702 74.3275 171.323 74.0169C170.944 73.7063 170.486 73.5067 170 73.44H169.51C168.732 73.479 167.978 73.7277 167.33 74.16C165.556 75.4017 164.094 77.0379 163.06 78.94C157 83.5 154.6 85.1 154.21 85.1H154.16C154.16 84.48 156.65 80.54 158.28 77.97C159.23 76.47 159.96 75.27 159.96 74.35C159.98 73.9835 159.854 73.624 159.61 73.35C159.471 73.1857 159.3 73.0513 159.107 72.9551C158.915 72.8588 158.705 72.8026 158.49 72.79C157.829 72.8597 157.215 73.165 156.76 73.65C156.6 73.7961 156.472 73.9737 156.385 74.1717C156.297 74.3696 156.251 74.5835 156.25 74.8C156.258 75.1618 156.381 75.5118 156.6 75.8C156.413 75.7753 156.223 75.7992 156.048 75.8692C155.873 75.9393 155.718 76.0532 155.6 76.2C153.82 79.03 151.25 83.1 151.25 85.62C151.23 86.1127 151.374 86.5983 151.66 87C151.855 87.2452 152.108 87.4384 152.396 87.5623C152.684 87.6862 152.998 87.7369 153.31 87.71C154.77 87.71 157.11 86.78 160.64 84.51C160.574 84.8156 160.541 85.1273 160.54 85.44C160.539 85.8594 160.624 86.2746 160.79 86.66C160.945 87.093 161.234 87.4652 161.616 87.7224C161.997 87.9796 162.45 88.1084 162.91 88.09C163.193 88.0878 163.475 88.0543 163.75 87.99H163.85C164.932 87.6436 165.927 87.0709 166.77 86.31C167.512 85.6924 168.21 85.0241 168.86 84.31C169.046 84.3911 169.247 84.4352 169.45 84.44C169.765 84.4401 170.072 84.3446 170.331 84.1659C170.59 83.9873 170.788 83.7341 170.9 83.44C171.25 82.55 171.56 81.73 171.79 80.97L172.71 79.8C172.141 81.4658 171.804 83.2022 171.71 84.96C171.631 85.8076 171.89 86.6521 172.43 87.31C172.637 87.5116 172.883 87.6695 173.153 87.7743C173.423 87.8791 173.711 87.9286 174 87.92C175.29 87.92 177.09 87.08 179.5 85.18V85.58C179.516 85.9205 179.616 86.2518 179.79 86.5448C179.965 86.8377 180.208 87.0833 180.5 87.26C180.687 87.3567 180.885 87.4305 181.09 87.48H181.34C182.51 87.48 184.57 86.28 187.04 84.17C187.68 83.66 188.34 83.05 189.04 82.41C188.49 83.592 188.152 84.8612 188.04 86.16C188.022 86.4312 188.058 86.7033 188.146 86.9607C188.233 87.2181 188.371 87.4557 188.55 87.66C188.821 87.9122 189.18 88.0485 189.55 88.04C190.87 88.04 193.21 86.82 196.98 83.69C196.498 84.6753 196.212 85.7453 196.14 86.84C196.123 87.2967 196.257 87.7463 196.52 88.12C196.713 88.3363 196.953 88.5056 197.222 88.6148C197.491 88.724 197.781 88.7702 198.07 88.75C199.69 88.75 202.39 87.59 206.63 84.63V84.71C206.61 85.1109 206.739 85.5051 206.992 85.817C207.245 86.1288 207.604 86.3364 208 86.4C208.129 86.4256 208.261 86.4256 208.39 86.4C209.79 86.4 212.28 84.49 214.75 82.33L215 82.5C214.816 83.1516 214.712 83.8232 214.69 84.5C214.656 85.0853 214.775 85.6694 215.034 86.1952C215.294 86.7211 215.685 87.1706 216.17 87.5C216.794 87.8955 217.521 88.0973 218.26 88.08C218.653 88.0717 219.044 88.0315 219.43 87.96C221.221 87.475 222.913 86.6796 224.43 85.61C224.287 85.9497 224.206 86.3119 224.19 86.68C224.189 86.8786 224.237 87.0744 224.332 87.2493C224.426 87.4241 224.563 87.5722 224.73 87.68C224.95 87.8424 225.216 87.93 225.49 87.93C226.18 87.93 226.94 87.35 227.83 86.05C229.639 83.3264 231.797 80.852 234.25 78.69C236.16 77.06 237.63 76.25 238.37 76.25H238.52C238.93 76.33 239.06 77.06 239.06 78.11C239.06 79.16 238.93 80.5 238.8 81.77C238.7 82.87 238.57 83.94 238.57 84.9C238.502 85.4907 238.556 86.0891 238.728 86.6583C238.9 87.2276 239.186 87.7556 239.57 88.21C239.972 88.5974 240.512 88.8096 241.07 88.8C243.01 88.8 246.14 86.71 251.41 81.16C251.684 80.8708 251.838 80.4883 251.84 80.09C251.838 79.8808 251.795 79.6741 251.712 79.4818C251.63 79.2896 251.51 79.1156 251.36 78.97ZM168.92 79.5C167.674 81.0753 166.273 82.5224 164.74 83.82C164.496 84.0427 164.235 84.2466 163.96 84.43C164.377 83.2877 164.879 82.178 165.46 81.11L165.58 81.02C165.76 80.8836 165.91 80.7107 166.018 80.5125C166.127 80.3143 166.192 80.0953 166.21 79.87C166.929 78.6862 167.886 77.6646 169.02 76.87L169.27 76.72C169.309 76.9041 169.329 77.0917 169.33 77.28C169.294 78.035 169.156 78.7818 168.92 79.5ZM214.79 78.07L211.91 80.74C212.786 79.401 213.858 78.2009 215.09 77.18C215 77.42 214.91 77.72 214.79 78.05V78.07Z" fill="#FDD579"/>
<path d="M99.42 49.0599C99.3 48.8099 99.09 48.5699 98.81 48.6699C98.7226 48.723 98.649 48.796 98.5952 48.8829C98.5413 48.9697 98.5087 49.0681 98.5 49.1699C98.39 50.9399 96.97 51.3599 95.7 51.6799C93.4 52.2599 91.05 52.6799 88.7 53.0599C82.7 54.0599 78.25 57.0599 76.7 63.3399C76.49 64.2199 75.98 64.2599 75.26 64.1099C71.72 63.3299 70.69 59.9799 73.13 56.9499C75.0303 54.6392 77.4215 52.7808 80.13 51.5099C80.4501 51.3228 80.8142 51.2241 81.185 51.2241C81.5558 51.2241 81.9199 51.3228 82.24 51.5099C82.8042 51.8407 83.4335 52.0451 84.0843 52.1089C84.7352 52.1728 85.3922 52.0947 86.01 51.8799C86.63 51.6599 87.25 51.3799 87.2 50.5399C87.15 49.6999 86.39 49.7099 85.88 49.5399C85.0226 49.3711 84.1386 49.3916 83.29 49.5999C81.91 49.9099 81.5 49.5299 81.68 48.1199C81.8322 46.983 82.356 45.9282 83.17 45.1199C84.2181 43.9782 85.5139 43.0916 86.9578 42.5283C88.4017 41.9649 89.9555 41.7397 91.5 41.8699C92.56 41.9399 93.74 42.0599 93.76 43.4299C93.76 44.6199 93.18 45.5099 91.76 45.3399C91.679 45.3249 91.5957 45.3283 91.5162 45.3498C91.4367 45.3712 91.363 45.4103 91.3007 45.464C91.2383 45.5178 91.1887 45.5849 91.1557 45.6603C91.1227 45.7358 91.1071 45.8177 91.11 45.9C91.11 46.31 91.33 46.4199 91.7 46.5099C92.454 46.6279 93.2256 46.4824 93.8849 46.0981C94.5442 45.7138 95.051 45.1141 95.32 44.4C95.84 42.71 95.12 41.47 93.32 40.9C92.5657 40.6877 91.7831 40.5933 91 40.6199C87.675 40.6431 84.438 41.6906 81.73 43.6199C79.6 45.2099 79.12 47.0999 80.32 49.4799C80.76 50.3599 80.38 50.4799 79.75 50.7699C76.731 51.8723 73.9657 53.573 71.62 55.7699C69.87 57.4499 68.72 59.4199 69.46 61.8699C70.2 64.3199 72.32 65.1499 74.46 65.4499C74.7375 65.4399 75.0139 65.4895 75.2706 65.5954C75.5273 65.7013 75.7582 65.8612 75.9478 66.064C76.1374 66.2669 76.2813 66.5081 76.3696 66.7714C76.458 67.0346 76.4888 67.3138 76.46 67.5899C76.71 71.5899 80.89 74.0299 84.66 73.6999C86.38 73.5399 87.86 71.7599 87.51 70.3499C87.42 70.0199 87.37 69.52 86.82 69.65C86.43 69.73 86.47 70.04 86.46 70.4C86.4814 70.7203 86.4307 71.0413 86.3118 71.3395C86.1929 71.6377 86.0087 71.9055 85.7728 72.1232C85.5368 72.3409 85.2552 72.503 84.9484 72.5976C84.6416 72.6922 84.3175 72.7169 84 72.6699C82.4724 72.7569 80.9682 72.2647 79.7875 71.2916C78.6068 70.3185 77.8364 68.936 77.63 67.4199C77.39 66.0499 77.81 65.7899 79.1 65.7199C82.323 65.6951 85.4543 64.6443 88.04 62.7199C90.31 60.9199 92.37 58.89 91.77 55.65C91.51 54.26 92.03 54.1699 93.11 53.9299C94.93 53.5199 96.89 53.32 98.37 51.99C99.27 51.25 100 50.3599 99.42 49.0599ZM85.71 50.8799C85.399 51.0334 85.0568 51.1132 84.71 51.1132C84.3632 51.1132 84.021 51.0334 83.71 50.8799C83.9897 50.6438 84.3439 50.5142 84.71 50.5142C85.076 50.5142 85.4303 50.6438 85.71 50.8799ZM90 57.6199C89.159 59.7716 87.5021 61.504 85.39 62.4399C83.1311 63.6823 80.5758 64.284 78 64.1799C78.2788 62.2821 79.1341 60.5157 80.45 59.1199C82.3175 57.0615 84.7202 55.5625 87.39 54.7899C88.16 54.5399 89.18 54.2199 89.85 54.9999C90.1122 55.3812 90.2648 55.827 90.2912 56.289C90.3177 56.7509 90.2169 57.2113 90 57.6199Z" fill="#FDD579"/>
</g>
<defs>
<clipPath id="clip0_16_45">
<rect width="252.12" height="107.71" fill="white" transform="translate(0 0.5)"/>
</clipPath>
</defs>
</svg>
