<svg xmlns="http://www.w3.org/2000/svg" viewBox="0 0 176.04 194.91"><defs><style>.cls-1{fill:#101111;opacity:0.25;}.cls-2{fill:#fdd579;}</style></defs><g id="Layer_2" data-name="Layer 2"><g id="Layer_2-2" data-name="Layer 2"><path class="cls-1" d="M173.6,79.22c-7.72-2.74-14.91.34-19.43,4.84a3.41,3.41,0,0,0-.84.07,10.27,10.27,0,0,0-1.27.33c.15-.34.29-.67.42-1,.49-1.19,1-2.3,1.51-2.58a3.62,3.62,0,0,0-.22-6.59,8.57,8.57,0,0,0-3.31-.65h0a11.07,11.07,0,0,0-2.15-4.51c-.72-1-.88-1.27-.86-1.83a3.61,3.61,0,0,0-4.88-3.47,22.24,22.24,0,0,0-1.33-2.52,7.67,7.67,0,0,1-.82-1.65,1.45,1.45,0,0,1,.25-.51,3.62,3.62,0,0,0-2-5.5,6.38,6.38,0,0,0-3.06-.15,9.51,9.51,0,0,0-.73-3.28,10,10,0,0,1,.19-1,3.62,3.62,0,0,0-5-4.1c-.12-.16-.23-.32-.35-.47a10.64,10.64,0,0,0-3.85-3.14c-.1-3.48-1.23-6.65-2.48-8a5.09,5.09,0,0,0-5.3-1.69,12.15,12.15,0,0,0-2.42-9.58,11.26,11.26,0,0,0-4.28-3.18,5.43,5.43,0,0,0-1.82-4.94,6.43,6.43,0,0,0-3.86-1.57,3.89,3.89,0,0,0-.34-.36,4.72,4.72,0,0,0-5.34-.76,33.29,33.29,0,0,0-4.41-4.67c-1.44-1.37-3.86-3.66-4.27-4.59A3.7,3.7,0,0,0,88,0a3.62,3.62,0,0,0-3.33,2.25c-.39.92-2.83,3.21-4.29,4.59A32.71,32.71,0,0,0,76,11.45a4.72,4.72,0,0,0-5.34.76,3.89,3.89,0,0,0-.34.36,6.43,6.43,0,0,0-3.86,1.57,5.42,5.42,0,0,0-1.82,4.93,11.31,11.31,0,0,0-4.28,3.19,12.15,12.15,0,0,0-2.42,9.58,5.09,5.09,0,0,0-5.3,1.69c-1.25,1.34-2.38,4.52-2.49,8a10.52,10.52,0,0,0-3.84,3.12l-.35.46a3.59,3.59,0,0,0-3.45.34A3.63,3.63,0,0,0,41,49.32a7.79,7.79,0,0,1,.18.92,9.51,9.51,0,0,0-.73,3.28,6.59,6.59,0,0,0-3.08.15,3.63,3.63,0,0,0-2,5.49,1.41,1.41,0,0,1,.26.51,7.47,7.47,0,0,1-.82,1.66,21.41,21.41,0,0,0-1.33,2.52,3.56,3.56,0,0,0-2.49,0,3.64,3.64,0,0,0-2.39,3.49c0,.55-.14.82-.86,1.82a11.07,11.07,0,0,0-2.15,4.51h0a8.55,8.55,0,0,0-3.3.65,3.63,3.63,0,0,0-.21,6.6c.55.27,1,1.38,1.5,2.57.13.31.27.64.42,1a10,10,0,0,0-1.25-.33,3.57,3.57,0,0,0-.86-.07c-4.51-4.5-11.71-7.58-19.43-4.84a3.63,3.63,0,0,0-.07,6.83,3.74,3.74,0,0,1,2,1.64,7.61,7.61,0,0,1,.46,3.93,23.92,23.92,0,0,0,0,3.67,3.9,3.9,0,0,0-.94.83A3.6,3.6,0,0,0,3.5,100a18.85,18.85,0,0,0,5.56,6.47c0,.12,0,.24.08.36,1.41,5.32,4.81,6.66,8,7a7,7,0,0,0-.7,2.47,3.59,3.59,0,0,0,4.37,3.83,3.06,3.06,0,0,1,1.24,0,7.8,7.8,0,0,0-.21,3,9.15,9.15,0,0,0,.23,1.16l-.11.19a3.63,3.63,0,0,0,.36,3.93,9.47,9.47,0,0,0,1.39,1.44,3.63,3.63,0,0,0,1.52,3.95,6.86,6.86,0,0,0,5.39.9,3.59,3.59,0,0,0,1.87.69,8.62,8.62,0,0,0-.19,3c.44,4.2,3.72,7.48,8.39,8.36l.43,0A3.65,3.65,0,0,0,42.33,150a6,6,0,0,1,1.13,2.76A15.68,15.68,0,0,0,45,157a8,8,0,0,0,4.19,3.46,6.31,6.31,0,0,0,.11,2.33,3.66,3.66,0,0,0,1.82,2.38,3.7,3.7,0,0,0,.78.3,6.64,6.64,0,0,0,2.4,4.69,3.74,3.74,0,0,0,2.36.87,11.59,11.59,0,0,0,8.69,5.3,12.86,12.86,0,0,0,3-.06,6.12,6.12,0,0,0,.51,1.4,1.56,1.56,0,0,1-.11,1.74,3.58,3.58,0,0,0-1.71,3.71,3.68,3.68,0,0,0,3,2.94,13.29,13.29,0,0,0,2.27.19,14.85,14.85,0,0,0,2.2-.19,9.27,9.27,0,0,0,8,3.37,13.61,13.61,0,0,0,1.4,2.1,5.82,5.82,0,0,1,.79,1.16A3.58,3.58,0,0,0,88,194.91h0a3.59,3.59,0,0,0,3.35-2.27,6.15,6.15,0,0,1,.78-1.16,12.92,12.92,0,0,0,1.41-2.1,9.54,9.54,0,0,0,2.5-.12A9.18,9.18,0,0,0,101.5,186a14.85,14.85,0,0,0,2.2.19A13,13,0,0,0,106,186a3.68,3.68,0,0,0,3-2.94,3.61,3.61,0,0,0-1.69-3.7,1.53,1.53,0,0,1-.13-1.75,6.63,6.63,0,0,0,.51-1.4,12.85,12.85,0,0,0,3,.06,11.59,11.59,0,0,0,8.69-5.3,3.69,3.69,0,0,0,2.35-.87,6.62,6.62,0,0,0,2.41-4.69,4.11,4.11,0,0,0,.76-.29,3.71,3.71,0,0,0,1.84-2.38,6.36,6.36,0,0,0,.11-2.34A8,8,0,0,0,131,157a15.64,15.64,0,0,0,1.57-4.2,6.14,6.14,0,0,1,1.14-2.76,3.62,3.62,0,0,0,1.21-2.24h2.72a3.5,3.5,0,0,0,3.5-3.5v-1.46a2.85,2.85,0,0,0,0-.41,8,8,0,0,0,1.24-1.69l.23-.36a8.09,8.09,0,0,0,1.59-5.06,3.56,3.56,0,0,0,1.26-.59,6.88,6.88,0,0,0,5.41-.92,3.59,3.59,0,0,0,1.49-3.93,9.89,9.89,0,0,0,1.39-1.43,3.61,3.61,0,0,0,.37-3.93,1.28,1.28,0,0,0-.11-.2,9.15,9.15,0,0,0,.23-1.16,7.8,7.8,0,0,0-.21-3,2.85,2.85,0,0,1,1.23,0,3.59,3.59,0,0,0,4.38-3.81,6.82,6.82,0,0,0-.71-2.48c3.2-.3,6.6-1.65,8-7,0-.12.06-.24.08-.37a18.57,18.57,0,0,0,5.54-6.44,3.63,3.63,0,0,0-1.32-4.78,22.84,22.84,0,0,0,0-3.67,7.61,7.61,0,0,1,.46-3.93,3.75,3.75,0,0,1,2-1.65,3.61,3.61,0,0,0,2.36-3.4A3.66,3.66,0,0,0,173.6,79.22Z"/><path class="cls-2" d="M93,101.89V73q0-5.13.31-8.48a13,13,0,0,1,1.52-5.43,7.12,7.12,0,0,1,3.66-3,24.43,24.43,0,0,1,6.71-1.35V53.25c-2.6.16-5.24.29-7.93.37s-5.37.12-8.05.12c-3.42,0-6.73,0-9.95-.12s-6.52-.21-9.94-.37v1.46a26.38,26.38,0,0,1,7,1.35,7.46,7.46,0,0,1,3.85,3,12.41,12.41,0,0,1,1.58,5.43Q82,67.88,82,73v28.83A32.66,32.66,0,0,0,93,101.89Z"/><path class="cls-2" d="M88.18,111.15a39.62,39.62,0,0,1-6.14-1v27.63q0,5.13-.31,8.48a12.41,12.41,0,0,1-1.58,5.43,7.51,7.51,0,0,1-3.72,3.05,24.54,24.54,0,0,1-6.84,1.34v1.47q4.39-.26,8.79-.37t8.91-.12q4.63,0,9.27.12t9.27.37v-1.47a26.39,26.39,0,0,1-7.07-1.34,7.46,7.46,0,0,1-3.85-3.05,12.41,12.41,0,0,1-1.58-5.43q-.31-3.35-.31-8.48V117.73l-2.29-5A3.33,3.33,0,0,0,88.18,111.15Z"/><path class="cls-2" d="M130,140.41a42.48,42.48,0,0,1-7.38-5,59.18,59.18,0,0,1-6.84-6.71q-3.24-3.72-6.1-7.51t-5.19-7.44c-1.54-2.44-1.71-3.83-2.84-5.78a32.1,32.1,0,0,0,7.25-2.32,21.62,21.62,0,0,0,6-4A18.79,18.79,0,0,0,119,95.89a17.8,17.8,0,0,0,1.53-7.57,19.86,19.86,0,0,0-2.82-10.74,24.08,24.08,0,0,0-7.19-7.44,31.09,31.09,0,0,0-9.89-4.27q-1.75-.42-3.48-.72a1.39,1.39,0,0,0-1.62,1.37v2.64l.89.31a19.27,19.27,0,0,1,6.17,3.66,17.4,17.4,0,0,1,4.21,5.61A16.94,16.94,0,0,1,108.31,86q0,9.89-5.24,14.28a18.94,18.94,0,0,1-9.17,3.93,31.88,31.88,0,0,1-5.53.46h-.15a31.54,31.54,0,0,1-6.94-.77A32.52,32.52,0,0,1,77,102.6V94.3q0-6.58.11-12.28l-.11,0V68.28a2.76,2.76,0,0,0-3-2.76l-.58,0q-2.55.18-4.26.18-3.91,0-7.81-.12t-7.81-.37v1.46a25.21,25.21,0,0,1,6.83,1.34,7.55,7.55,0,0,1,3.72,3.06,12.4,12.4,0,0,1,1.59,5.43Q66,79.9,66,85v40.75q0,5.13-.3,8.48a12.4,12.4,0,0,1-1.59,5.43,7.48,7.48,0,0,1-3.72,3.05,24.46,24.46,0,0,1-6.83,1.34v1.46c2.93-.15,5.86-.28,8.78-.36s5.9-.12,8.91-.12h2.14A3.55,3.55,0,0,0,77,141.51V106.74c.81.25,1.86.51,3.12.8.43.1.87.18,1.32.27.84.17,1.7.33,2.58.47,1.34.2,2.65.38,3.91.54.49.07,1,.12,1.37.16a3.34,3.34,0,0,1,2.63,1.77c1.42,2.66,1.76,4.45,3.34,7,2,3.17,4,6.26,6.25,9.25a214.07,214.07,0,0,0,14.21,17.26h22v-1.46A20.07,20.07,0,0,1,130,140.41Z"/><path class="cls-2" d="M78.37,27.5a.14.14,0,0,0-.13.08c-1.22,4.67.17,6.25,2.69,7.76a14.78,14.78,0,0,1,6.76,7.56.38.38,0,0,0,.66,0,14.82,14.82,0,0,1,6.76-7.56c2.52-1.51,3.91-3.09,2.69-7.76a.15.15,0,0,0-.14-.08,8.17,8.17,0,0,0-6.19,4.2c3.35-6-2.25-15.42-3.35-17-.05-.09-.14-.08-.2,0-1.11,1.6-6.7,11.06-3.35,17A8.17,8.17,0,0,0,78.37,27.5ZM88,25c1.64,3.35,2.69,7,.89,10.55,1.52-1.77,3.54-1.77,5.31-3.29-.39,2.41-4.6,4-6.2,7.23-1.6-3.21-5.81-4.82-6.2-7.23,1.77,1.52,3.79,1.52,5.31,3.29C85.33,31.94,86.38,28.34,88,25Z"/><path class="cls-2" d="M81.51,24.74c-2.25-4.69-.85-9.67,2.59-11.95a11.18,11.18,0,0,0-2.21,6.94A20.52,20.52,0,0,1,88,10.8h0a20.52,20.52,0,0,1,6.12,8.93,11.18,11.18,0,0,0-2.21-6.94c3.44,2.28,4.84,7.26,2.59,12a.13.13,0,0,0,.25.1c2.54-3,4.81-6.94,2.69-10.92-1.37-2.57-8-7.39-9.32-10.32a.13.13,0,0,0-.26,0c-1.24,3-8,7.75-9.32,10.32-2.12,4,.15,8,2.68,10.92A.14.14,0,0,0,81.51,24.74Z"/><path class="cls-2" d="M99.29,182.76c-2.35-.16-4.69-.84-6-3.21-2-3.77-.28-7.87-.81-11.82-.13-1-.48-4.65-4.43-8.9a.06.06,0,0,0-.08,0c-4,4.25-4.3,7.91-4.43,8.9-.53,4,1.24,8.05-.81,11.82-1.3,2.37-3.64,3-6,3.21-.08,0-.13.11-.1.18a5.71,5.71,0,0,0,8.67,1.64c-.9,3.39,1.68,4.47,2.6,6.76a.11.11,0,0,0,.2,0c.91-2.29,3.5-3.37,2.6-6.76a5.7,5.7,0,0,0,8.66-1.64A.12.12,0,0,0,99.29,182.76ZM88.66,180.4a6.51,6.51,0,0,1-.64,4.77,6.51,6.51,0,0,1-.64-4.77,6.66,6.66,0,0,1-3,.76c2.32-2.65,2.27-4.8,2.27-7.33.24-4.44-1.42-8.37,1.4-13.57,2.82,5.2,1.16,9.13,1.4,13.57,0,2.53,0,4.68,2.27,7.33A6.66,6.66,0,0,1,88.66,180.4Z"/><path class="cls-2" d="M28.3,85.06c1.11,1.47,2.85,2.22,4.18,3.49a21.91,21.91,0,0,1,3.8,4.83c-.54-6.39-6.12-7.24-6.79-13.09,1.35,1.42,2.27,2,3.79,2-1.67-2.49-2.36-6.66-.76-9.61-.25,2.78,1,5.06,2.53,7.08.51-4.8,4.8-8.09,8.6-10.62-2.28,3.54-5.31,6.07-6.33,10.37a6.69,6.69,0,0,1,5.31-2c-4.22,2.11-8.93,7-5.91,11.84.73-9.11,8.34-8,9-15.76,0-.12-.07-.19-.17-.16l-2.46.81a17.92,17.92,0,0,0,4.83-12.15c0-.13-.2-.2-.25-.06-1.52,4.35-5.09,4.9-8,6-2.53,1-4,3.39-4.88,6a11.08,11.08,0,0,0-2.42-6.94.13.13,0,0,0-.23.1c.1,4.43-4.9,4.49-2.53,11.51a5.65,5.65,0,0,0-6-1.23.13.13,0,0,0,0,.23C26.36,79.14,26.58,82.8,28.3,85.06Z"/><path class="cls-2" d="M69.29,37.27c3.12-.48,6.21-3.44,4.88-6.79A.14.14,0,0,0,74,30.4c-4.27,2.64-7.37-1.91-4.57-5,.79-.87,3.33-1.44,5.19-1.46-2.52-.69-5.46-.57-7.3,1-2.52,2-1.36,7.65,2.44,8.15a4.32,4.32,0,0,1-5.34-5.37,6.7,6.7,0,0,1,2.9-4c3.64-1.84,7.73-1.62,13.37,2.67.13.1.28,0,.19-.16-3.57-5.42-13.78-6.65-17.76-1.74a8.52,8.52,0,0,0-.92,9.1A7.06,7.06,0,0,0,69.29,37.27Z"/><path class="cls-2" d="M46.53,138.69c.59-.87,2.09-2.78.5-4.75a7.17,7.17,0,0,0,3.73-.53.13.13,0,0,0,0-.22c-2-1.9,2.43-4.62,4.42-4.71-4.9-1.11-7.27,1.86-6.76,3.89-1.42.06-1.7-1.77-.76-2.78-2,1-6.26,5.27-7.27,9.94a7.1,7.1,0,0,1,3-8.43,10.57,10.57,0,0,0-4,.51c4.33-2.74,10.33-6.54,19.77-3.15.62.11,1-.84-.12-1-5.61-1-10.47-4.44-12.73-8.18-2.52-4.17-.49-5.63-1.36-9.57-.73-3.28-4.47-3.1-3.79-7,0-.13-.07-.19-.19-.16a3.29,3.29,0,0,0-2.38,2.56c-.79,3,.93,5.64-.25,6.53a1.26,1.26,0,0,1-1.65-.1C35.22,110.16,38,105.78,38,105c.48-7.25-3.58-10.31-7.49-11.51-.12,0-.23,0-.19.14A4.28,4.28,0,0,1,30,96.93c-1.35-4-3.45-8.48-8-9.37a.13.13,0,0,0-.14.17,8.2,8.2,0,0,1,.71,3.4c-2.39-5.7-10.57-11.6-19-8.61-.11,0-.16.2,0,.24a7.21,7.21,0,0,1,3.8,3.18,10.34,10.34,0,0,1,.92,5.84c-.11,2.53-.14,5.7,2,7.41l-3.53-.93c-.08,0-.18.09-.13.17a15.29,15.29,0,0,0,8.82,7.47l-2.79-.13c-.11,0-.15.09-.12.2,2,7.5,8.18,2.57,16.21,5.35-1.16-2.37-5.95-3.24-8.34-3.48a9.61,9.61,0,0,1,4.55-.75c-3-2.66-7-2.91-11.13-4.3a16.72,16.72,0,0,1,9.36,1.51c-2.34-5.24-9.61-6.57-9.61-15.67,4.3,8,8.85,7.58,10.87,12.2,1.77-1.52,1.52-5.12,1.27-7.14C29,96.21,27,103,30.75,105.57A26.67,26.67,0,0,0,32.27,99c3.47,5.88-2.28,10.88.2,16-4.88-4-12.17-2.48-12.55,1.67,0,.06.08.1.14.08,2.4-.53,4.73.5,6.66,1.88,3,2.15,5.41,4.73,8.93,6.22,3.91,1.66,6,1.4,7.49.06-8.81-1.18-8.3-6.2-14.16-8.18,5.31-.55,7.84,5.69,12.39,5.06-2-2-1.73-5.1-.72-7.38a7,7,0,0,0-.21-5.89,4.54,4.54,0,0,1,1.9,3.75c.31,5.6-.09,9.26,4.51,13.52-3.79,0-5.18,1.49-6.42,2.28-1.68,1.06-2.35,2.57-5.41,2.07a.14.14,0,0,0-.18.12,3.36,3.36,0,0,0,3.48,3c-3.86,1.63-3.78,8.79,3,10.07.09,0,.12-.1.1-.17C40.73,140.42,44.89,141.08,46.53,138.69Z"/><path class="cls-2" d="M81.78,172.75a16.73,16.73,0,0,1,.7-8.2c-4.73,2.67-3,7.68-6.73,11,3-6.07,1-7.67,2.73-10a8.42,8.42,0,0,1-7.78,1.15c7.58-1.43,7.78-5.9,12.74-6.81-12.94.6-14,9.88-24.26,8.14-.13,0-.08.14,0,.24,3.84,6.94,12.06,4.5,14.31,1.83,1.14,2-2.83,3.17-1.47,5.91,1.16,2.32.48,5.18-1.48,6.33-.08.05,0,.15.13.17C76.84,183.62,84,178.38,81.78,172.75Z"/><path class="cls-2" d="M59.87,165a4.56,4.56,0,0,0,3.24-1.35,11.87,11.87,0,0,1,3.07-2.59c-2.86-.82-5.6,2.89-7.87,2.13,1.77-.51,2.78-2.28,4.3-3-2.28,0-4.55.25-6.83-1a11.47,11.47,0,0,0,3.79,0c-2.19-.8-5.31-2.78-5.31-5.81,1.27,4,7.55,5.86,9.82,4.17,1-.5.55-2.65,1.56-3.92-.24,2.83,0,6.23,4.1,6.41-3.69-2.37-2.31-7.15-.84-7.88a.13.13,0,0,0,0-.22,2.26,2.26,0,0,0-.93-.35c1.13-.91-.22-3.6,1.32-4.21.14-.05.07-.21-.07-.24-3.35-.59-6.34,1.18-6.47,3.84a2.83,2.83,0,0,0-2.62-2.09A.17.17,0,0,0,60,149c-.77,1.94-.1,6.36,3.29,7.42-3.22.9-5.44-2.54-6.87-4.86-1.27-2.07-3-4.35-5.61-4.49-.1,0-.19.12-.11.2a3.92,3.92,0,0,1,1,2.68,7.24,7.24,0,0,0-7-2.79.13.13,0,0,0,0,.23c2.26,2,2,5.37,3.42,7.81a4.61,4.61,0,0,0,3.08,2.17c1.52.33,3.13.2,4.6.7a3.32,3.32,0,0,0-3,3.91.12.12,0,0,0,.17.09,9.3,9.3,0,0,1,5.32-.36,3.3,3.3,0,0,0-1.64,5.76c.1.09.28.08.24-.07C56.32,165.61,58.65,165.11,59.87,165Z"/><path class="cls-2" d="M39.22,127.6c.11,0,.16-.22,0-.24-6.48-1.06-11.24-3.8-12.78-7.71,0-.06-.12-.05-.17,0-1.52,1.18-1.49,4.93,1.18,6.13a6.59,6.59,0,0,1-2.3.25.13.13,0,0,0-.11.21,6.39,6.39,0,0,0,4.43,2.41,3.11,3.11,0,0,0-2.37,2c0,.07-.07.15,0,.2,1.79,1.15,3.78.27,5.29-.91a3,3,0,0,0,.25,1.89.13.13,0,0,0,.24-.07C32.79,130.18,34.63,127.39,39.22,127.6Z"/><path class="cls-2" d="M70,19.89c1.19.16,3.59-.06,6,1.35a.21.21,0,0,0,.26-.31C75,19.52,73.12,19,72,18.6a4.19,4.19,0,0,1,2.49,0c-.32-.51-.11-1-.19-1.37A6.45,6.45,0,0,1,77.48,22c0,.1.31.11.3,0-.26-3.56-1.91-6.38-2.63-7-2.08-1.62-2.91.65-2.3,1.5C68.42,14.54,66.21,19.39,70,19.89Z"/><path class="cls-2" d="M47.7,57.25h0v0Z"/><path class="cls-2" d="M36.17,68.39a.1.1,0,0,0,.13,0c1.65-2.82,5.59-2.19,7.84-4.23.6-.55,1-1.26,1.62-1.83A4.86,4.86,0,0,1,48.08,61a3.08,3.08,0,0,1,3.76,2.56.12.12,0,0,0,.17.1c2.63-1.42.69-4-.12-4.17a4.3,4.3,0,0,1,1.82,0c.14,0,.12-.12.09-.23-.67-2.3-4.8-2.89-6.49-1.67.39-2.57,1.42-8.2,4.43-10.7-.34,1-1.35,2.69-.51,4,1.26-3,4.3-4.55,7.08-5.56-2.78,1.52-2.78,5.31-5.31,6.32-1.86.93-3.72,2.29-3.81,4.27,2.16-1.12,4.13,0,6.23-2.06a13.63,13.63,0,0,0,2.65-4.61c1.38-3.29,7.3-6.12,9.39-6.48a.13.13,0,0,0,0-.24c-5-2.45-10.57-1-14.22,3.25.19-.47.38-1,.58-1.42,0-.11-.07-.15-.17-.16-3.46-.26-7,4.73-6,7.64a5,5,0,0,0-1-1.66.13.13,0,0,0-.22.06l-.06.43a4.47,4.47,0,0,0-1.73-2.38.13.13,0,0,0-.2.12,4.84,4.84,0,0,1,.07,3c-1.53,3.49,1,5.4-.94,7.7a2.58,2.58,0,0,0-.92-1.88c-.08-.07-.18,0-.2.09-.13.6-.26,1.21-.4,1.81A2.86,2.86,0,0,0,38.38,57a.13.13,0,0,0-.08.2c2.75,4.16-2.11,5.87-2.34,11.14C36,68.48,36.11,68.46,36.17,68.39Z"/><path class="cls-2" d="M136.4,68.07c-3-1.14-6.53-1.69-8.05-6,0-.14-.25-.07-.25.06a17.92,17.92,0,0,0,4.83,12.15l-2.46-.81a.14.14,0,0,0-.18.16c.69,7.78,8.3,6.65,9,15.76,3-4.85-1.69-9.73-5.91-11.84a6.66,6.66,0,0,1,5.3,2c-1-4.3-4-6.83-6.32-10.37,3.8,2.53,8.09,5.82,8.6,10.62,1.52-2,2.78-4.3,2.53-7.08,1.6,3,.91,7.12-.76,9.61,1.52,0,2.44-.6,3.79-2-.67,5.85-6.25,6.7-6.79,13.09a21.62,21.62,0,0,1,3.8-4.83c1.33-1.27,3.07-2,4.18-3.49,1.71-2.26,1.94-5.92,4.68-7.29a.13.13,0,0,0,0-.23,5.65,5.65,0,0,0-6,1.23c2.37-7-2.63-7.08-2.53-11.51a.13.13,0,0,0-.23-.1,11.15,11.15,0,0,0-2.43,6.94C140.44,71.46,138.92,69,136.4,68.07Z"/><path class="cls-2" d="M95.2,26.2c-.09.13.06.26.19.16,5.64-4.29,9.73-4.51,13.37-2.67a6.7,6.7,0,0,1,2.9,4,4.32,4.32,0,0,1-5.34,5.37c3.79-.5,5-6.13,2.44-8.15-1.84-1.52-4.78-1.64-7.3-1,1.86,0,4.4.59,5.19,1.46,2.8,3.06-.3,7.61-4.57,5a.14.14,0,0,0-.21.08c-1.33,3.35,1.76,6.31,4.88,6.79a7.06,7.06,0,0,0,7.13-3.71,8.54,8.54,0,0,0-.92-9.1C109,19.55,98.77,20.78,95.2,26.2Z"/><path class="cls-2" d="M172.43,82.52c-8.43-3-16.61,2.91-19,8.61a8.2,8.2,0,0,1,.71-3.4.13.13,0,0,0-.14-.17c-4.55.89-6.65,5.39-8,9.37a4.32,4.32,0,0,1-.31-3.29c0-.11-.07-.18-.19-.14-3.91,1.2-8,4.26-7.49,11.51.06.77,2.82,5.15,1.38,6.52a1.25,1.25,0,0,1-1.64.1c-1.18-.89.54-3.57-.25-6.53a3.29,3.29,0,0,0-2.38-2.56c-.12,0-.21,0-.19.16.68,3.88-3.06,3.7-3.79,7-.87,3.94,1.16,5.4-1.36,9.57a16.21,16.21,0,0,1-11.41,8c-1.13.19-.74,1.15-.12,1,9.44-3.4,14.12.6,18.45,3.34a10.57,10.57,0,0,0-4-.51c1.86,1,4.69,3.29,3.4,7.63-1-4.66-5.71-8.16-7.7-9.14.94,1,.66,2.84-.76,2.78.51-2-1.86-5-6.76-3.89,2,.09,6.38,2.81,4.41,4.71a.14.14,0,0,0,0,.22,7.17,7.17,0,0,0,3.73.53c-1.59,2,.3,3.79,1.17,4.38a11.55,11.55,0,0,0,6.53,2.34c1.92,0,2.24-1.2,2.93-2.25,2.3-3.53.43-4.16-1.92-5.23a3.36,3.36,0,0,0,3.48-3,.14.14,0,0,0-.18-.12c-3.06.5-3.73-1-5.41-2.07-1.24-.79-2.63-2.28-6.42-2.28,4.6-4.26,4.2-7.92,4.51-13.52a4.51,4.51,0,0,1,1.9-3.75,7,7,0,0,0-.21,5.89c1,2.28,1.32,5.36-.72,7.38,4.55.63,7.08-5.61,12.39-5.06-5.86,2-5.35,7-14.16,8.18,1.47,1.34,3.58,1.6,7.49-.06,3.52-1.49,5.94-4.07,8.93-6.22,1.93-1.38,4.26-2.41,6.66-1.88.05,0,.14,0,.13-.08-.37-4.15-7.66-5.71-12.54-1.67,2.48-5.09-3.27-10.09.2-16a26.22,26.22,0,0,0,1.52,6.58c3.79-2.53,1.77-9.36,5.05-11.88-.25,2-.5,5.62,1.27,7.14,2-4.62,6.57-4.17,10.87-12.2,0,9.1-7.27,10.43-9.61,15.67a16.72,16.72,0,0,1,9.36-1.51c-4.11,1.39-8.09,1.64-11.13,4.3a9.61,9.61,0,0,1,4.55.75c-2.39.24-7.18,1.11-8.34,3.48,8-2.78,14.22,2.15,16.21-5.35,0-.11,0-.2-.12-.2l-2.79.13a15.29,15.29,0,0,0,8.82-7.47.13.13,0,0,0-.14-.17l-3.53.93c2.13-1.71,2.1-4.88,2-7.41a10.43,10.43,0,0,1,.93-5.84,7.21,7.21,0,0,1,3.8-3.18C172.59,82.72,172.54,82.56,172.43,82.52Z"/><path class="cls-2" d="M116.86,168.08c-10.31,1.74-11.33-7.54-24.26-8.14,5,.91,5.16,5.38,12.74,6.81a8.45,8.45,0,0,1-7.79-1.15c1.77,2.33-.26,3.93,2.74,10-3.75-3.37-2-8.38-6.74-11a16.65,16.65,0,0,1,.71,8.2c-2.2,5.63,4.94,10.87,11.12,9.81.09,0,.22-.12.14-.17-2-1.15-2.64-4-1.49-6.33,1.37-2.74-2.61-3.94-1.46-5.91,2.25,2.67,10.47,5.11,14.31-1.83C116.94,168.22,117,168.05,116.86,168.08Z"/><path class="cls-2" d="M124.33,149.91a3.92,3.92,0,0,1,1-2.68c.08-.08,0-.21-.11-.2-2.65.14-4.34,2.42-5.61,4.49-1.43,2.32-3.65,5.76-6.87,4.86,3.39-1.06,4.06-5.48,3.29-7.42a.17.17,0,0,0-.14-.11,2.83,2.83,0,0,0-2.62,2.09c-.13-2.66-3.12-4.43-6.47-3.84-.14,0-.21.19-.08.24,1.55.61.2,3.3,1.33,4.21a2.26,2.26,0,0,0-.93.35.13.13,0,0,0,0,.22c1.46.73,2.85,5.51-.84,7.88,4.1-.18,4.33-3.58,4.1-6.41,1,1.27.55,3.42,1.56,3.92,2.27,1.69,8.55-.13,9.82-4.17,0,3-3.12,5-5.31,5.81a11.47,11.47,0,0,0,3.79,0c-2.28,1.27-4.55,1-6.83,1,1.52.75,2.53,2.52,4.3,3-2.27.76-5-2.95-7.87-2.13a11.87,11.87,0,0,1,3.07,2.59,4.56,4.56,0,0,0,3.24,1.35c1.22.1,3.55.6,3,2.35,0,.15.14.16.24.07a3.3,3.3,0,0,0-1.65-5.76,9.33,9.33,0,0,1,5.33.36.12.12,0,0,0,.17-.09,3.33,3.33,0,0,0-3-3.91c1.48-.5,3.09-.37,4.61-.7a4.61,4.61,0,0,0,3.08-2.17c1.46-2.44,1.16-5.85,3.42-7.81a.13.13,0,0,0,0-.23A7.24,7.24,0,0,0,124.33,149.91Z"/><path class="cls-2" d="M148.56,125.77c2.67-1.2,2.7-5,1.18-6.13-.05,0-.15,0-.18,0-1.53,3.91-6.3,6.65-12.77,7.71-.13,0-.08.25,0,.24,4.59-.21,6.43,2.58,6.31,4.15a.13.13,0,0,0,.24.07,3,3,0,0,0,.25-1.89c1.51,1.18,3.5,2.06,5.29.91.07-.05,0-.13,0-.2a3.11,3.11,0,0,0-2.38-2,6.39,6.39,0,0,0,4.44-2.41.13.13,0,0,0-.11-.21A6.59,6.59,0,0,1,148.56,125.77Z"/><path class="cls-2" d="M98.56,22a6.45,6.45,0,0,1,3.18-4.76c-.08.42.13.86-.19,1.37a4.19,4.19,0,0,1,2.49,0c-1.12.44-3,.92-4.28,2.33a.21.21,0,0,0,.26.31c2.45-1.41,4.85-1.19,6-1.35,3.77-.5,1.56-5.35-2.87-3.38.6-.85-.22-3.12-2.3-1.5-.72.57-2.37,3.39-2.63,7C98.25,22.1,98.55,22.09,98.56,22Z"/><path class="cls-2" d="M128.34,57.25v0Z"/><path class="cls-2" d="M122.19,44.43l.58,1.42c-3.65-4.27-9.21-5.7-14.22-3.25a.13.13,0,0,0,0,.24c2.09.36,8,3.19,9.39,6.48a13.46,13.46,0,0,0,2.65,4.61c2.1,2.09,4.07.94,6.23,2.06-.09-2-1.95-3.34-3.81-4.27-2.53-1-2.53-4.8-5.31-6.32,2.78,1,5.82,2.53,7.08,5.56.84-1.35-.17-3-.51-4,3,2.5,4,8.13,4.43,10.7-1.69-1.22-5.82-.63-6.49,1.67,0,.11,0,.26.08.23a4.34,4.34,0,0,1,1.83,0c-.81.2-2.75,2.75-.12,4.17a.12.12,0,0,0,.17-.1A3.07,3.07,0,0,1,128,61a4.86,4.86,0,0,1,2.32,1.26c.59.57,1,1.28,1.62,1.83,2.25,2,6.19,1.41,7.84,4.23a.1.1,0,0,0,.13,0c.06.07.21.09.21,0-.23-5.27-5.09-7-2.35-11.14a.12.12,0,0,0-.07-.2A2.86,2.86,0,0,0,134,59.16c-.14-.6-.27-1.21-.4-1.81,0-.09-.12-.16-.2-.09a2.58,2.58,0,0,0-.92,1.88c-1.94-2.3.59-4.21-.94-7.7a4.84,4.84,0,0,1,.07-3,.13.13,0,0,0-.2-.12,4.47,4.47,0,0,0-1.73,2.38l-.06-.43a.13.13,0,0,0-.22-.06,5,5,0,0,0-1,1.66c1-2.91-2.57-7.9-6-7.64C122.26,44.28,122.15,44.32,122.19,44.43Z"/><path class="cls-2" d="M115,39.92c1.16.34,3.55.51,5.76,2.28a.2.2,0,0,0,.3-.27c-1-1.59-2.82-2.35-3.86-3a4.23,4.23,0,0,1,2.46.39c-.23-.55,0-1,0-1.38a6.48,6.48,0,0,1,2.39,5.2c0,.1.29.16.3,0,.31-3.55-.89-6.61-1.51-7.28-1.8-1.93-3,.19-2.5,1.12C114.27,34.39,111.33,38.84,115,39.92Z"/><path class="cls-2" d="M54,43.17A6.48,6.48,0,0,1,56.38,38c0,.43.26.83,0,1.38A4.23,4.23,0,0,1,58.87,39c-1,.62-2.84,1.38-3.86,3a.2.2,0,0,0,.3.27c2.2-1.77,4.6-1.94,5.75-2.28,3.65-1.08.71-5.53-3.36-2.89.47-.93-.7-3.05-2.5-1.12-.63.67-1.82,3.73-1.51,7.28C53.7,43.33,54,43.27,54,43.17Z"/><path class="cls-2" d="M131.23,99.06a2.43,2.43,0,1,0,0,3.43A2.42,2.42,0,0,0,131.23,99.06Z"/><path class="cls-2" d="M134.64,95.31a2,2,0,1,0,0,2.84A2,2,0,0,0,134.64,95.31Z"/><path class="cls-2" d="M133.12,92.73a1.58,1.58,0,0,0,2.25,0,1.59,1.59,0,1,0-2.25,0Z"/><path class="cls-2" d="M132,87.78a1.18,1.18,0,0,0,1.67,0,1.17,1.17,0,0,0,0-1.66A1.18,1.18,0,0,0,132,87.78Z"/><path class="cls-2" d="M128.56,83.78a.76.76,0,1,0,1.07,0A.75.75,0,0,0,128.56,83.78Z"/><path class="cls-2" d="M44.62,99.06a2.43,2.43,0,1,1,0,3.43A2.42,2.42,0,0,1,44.62,99.06Z"/><path class="cls-2" d="M41.2,95.31a2,2,0,1,1,0,2.84A2,2,0,0,1,41.2,95.31Z"/><path class="cls-2" d="M42.73,92.73a1.59,1.59,0,1,1-2.26-2.25,1.59,1.59,0,0,1,2.26,2.25Z"/><path class="cls-2" d="M43.88,87.78a1.17,1.17,0,1,1,0-1.66A1.17,1.17,0,0,1,43.88,87.78Z"/><path class="cls-2" d="M47.29,83.78a.76.76,0,1,1-1.08,1.07.75.75,0,0,1,0-1.07A.76.76,0,0,1,47.29,83.78Z"/></g></g></svg>