<svg width="32" height="16" viewBox="0 0 32 16" fill="none" xmlns="http://www.w3.org/2000/svg">
<g clip-path="url(#clip0_16_850)">
<path d="M10.1213 13.38C9.57373 13.9116 8.87516 14.2609 8.12131 14.38C7.31756 14.5392 6.49286 14.5628 5.68131 14.45C4.83738 14.3483 4.02546 14.0651 3.30131 13.62C2.61029 13.1879 2.04207 12.5852 1.65131 11.87C1.39072 11.4064 1.23698 10.8905 1.20131 10.36C1.17673 10.112 1.20699 9.86158 1.28994 9.62656C1.37289 9.39153 1.5065 9.17762 1.68131 8.99998C2.11224 8.69287 2.61673 8.50521 3.14361 8.45604C3.67048 8.40686 4.20099 8.49792 4.68131 8.71998C4.9209 8.80481 5.14092 8.93709 5.32821 9.10891C5.51549 9.28074 5.6662 9.48857 5.77131 9.71998C5.86934 9.94518 5.89886 10.1943 5.85618 10.4361C5.81349 10.678 5.7005 10.9019 5.53131 11.08C5.33265 11.2508 5.09891 11.3759 4.8466 11.4465C4.5943 11.5171 4.32957 11.5314 4.07111 11.4885C3.81266 11.4456 3.56677 11.3465 3.35082 11.1981C3.13486 11.0498 2.95411 10.8558 2.82131 10.63C2.64131 10.32 2.25131 10.22 2.38131 10.74C2.4936 11.0494 2.67074 11.3313 2.90084 11.5667C3.13094 11.8021 3.4087 11.9856 3.7155 12.1049C4.0223 12.2242 4.35106 12.2766 4.67975 12.2585C5.00844 12.2404 5.32946 12.1523 5.62131 12C5.93815 11.8203 6.20334 11.562 6.39131 11.25C6.5834 10.9275 6.674 10.5547 6.65131 10.18C6.63217 9.8348 6.5371 9.49809 6.37289 9.19387C6.20868 8.88965 5.97937 8.6254 5.70131 8.41998C5.15586 8.03327 4.51737 7.79858 3.85131 7.73998C3.19304 7.65761 2.52466 7.74719 1.91131 7.99998C1.58377 8.13736 1.29342 8.35034 1.06399 8.62148C0.834564 8.89262 0.672587 9.21422 0.591311 9.55998C0.45888 10.1995 0.518014 10.8639 0.761311 11.47C1.13036 12.3698 1.71757 13.1637 2.46999 13.7799C3.22242 14.3962 4.11639 14.8155 5.07131 15C5.98866 15.1858 6.93396 15.1858 7.85131 15C8.33456 14.9346 8.79968 14.7725 9.2189 14.5233C9.63813 14.2742 10.0029 13.9432 10.2913 13.55C10.4013 13.37 10.2413 13.25 10.1213 13.38Z" fill="#99252E"/>
<path d="M5.52133 7C5.72133 7.1 5.87133 7 5.71133 6.82C5.94133 6.9 6.09133 6.75 5.87133 6.45C4.48498 4.54558 2.94303 2.75945 1.26133 1.11L0.211333 0.11L0.111333 0C0.111333 0 0.0513332 0 0.00133324 0L-0.118667 0.2L-0.408667 0.55L-0.868667 1.1L-2.06867 2.62L-3.24867 4.16L-3.82867 4.92L-4.55867 5.85L-5.27867 6.73L-5.61867 7.15C-5.61867 7.21 -5.75867 7.3 -5.75867 7.33V7.42C-5.31867 7.29 -4.75867 7.14 -4.36867 7.04C-4.17863 6.98769 -3.98466 6.9509 -3.78867 6.93C-3.60867 6.93 -3.41867 6.93 -3.33867 6.93C-2.88863 6.90945 -2.43789 6.94982 -1.99867 7.05C-1.56379 7.15724 -1.1463 7.32558 -0.758667 7.55L-0.478666 7.74L-0.178667 7.99L-0.0286665 8.14L0.00133324 8.2L0.0713329 8.12C0.153414 8.01003 0.24367 7.9064 0.341333 7.81C1.00207 7.16136 1.86117 6.75294 2.78133 6.65C3.70941 6.50706 4.65899 6.62836 5.52133 7Z" fill="#99252E"/>
<path d="M19.0013 7.90002C19.6105 7.9338 20.2194 7.82776 20.7813 7.59002C21.0797 7.47791 21.3518 7.30551 21.5806 7.08356C21.8095 6.86161 21.9901 6.59488 22.1113 6.30002C22.2345 5.99715 22.2632 5.66408 22.1936 5.3446C22.124 5.02511 21.9593 4.73417 21.7213 4.51002C21.4925 4.30164 21.2157 4.15327 20.9155 4.07823C20.6153 4.00318 20.3012 4.0038 20.0013 4.08002C19.7087 4.15126 19.4353 4.28578 19.2003 4.47411C18.9654 4.66243 18.7745 4.89998 18.6413 5.17002C18.4813 5.57002 18.8113 5.75002 18.9913 5.45002C19.2066 5.13757 19.5265 4.91241 19.8933 4.81521C20.2601 4.71801 20.6495 4.75519 20.9913 4.92002C21.1279 4.99165 21.2422 5.09953 21.3216 5.23183C21.401 5.36413 21.4424 5.51574 21.4413 5.67002C21.4398 5.84828 21.3975 6.02384 21.3178 6.18328C21.2381 6.34273 21.123 6.48185 20.9813 6.59002C20.59 6.8752 20.1355 7.06144 19.6566 7.13284C19.1778 7.20424 18.6887 7.15867 18.2313 7.00002C18.0277 6.92941 17.8441 6.81074 17.6961 6.65406C17.5481 6.49739 17.4401 6.30733 17.3813 6.10002C17.2589 5.62186 17.2763 5.11862 17.4313 4.65002C17.6875 3.79507 18.1555 3.01868 18.7918 2.39284C19.4281 1.767 20.2122 1.312 21.0713 1.07002C21.9521 0.82675 22.879 0.802717 23.7713 1.00002C24.2191 1.06147 24.6462 1.22746 25.0179 1.48458C25.3897 1.74169 25.6957 2.0827 25.9113 2.48002C25.9813 2.66002 26.1813 2.65002 26.1713 2.48002C26.0794 2.01805 25.8646 1.5894 25.5496 1.23919C25.2346 0.888989 24.831 0.630185 24.3813 0.490021C23.4207 0.140574 22.3812 0.067814 21.3813 0.280021C20.3903 0.476688 19.465 0.920404 18.6913 1.57002C17.9841 2.16795 17.4145 2.91157 17.0213 3.75002C16.7508 4.2991 16.5975 4.89848 16.5713 5.51002C16.5514 5.83115 16.601 6.15279 16.7166 6.45305C16.8322 6.7533 17.0112 7.02512 17.2413 7.25002C17.7362 7.66193 18.3575 7.89139 19.0013 7.90002Z" fill="#99252E"/>
<path d="M6.00132 2.48001C6.5489 1.94838 7.24747 1.59909 8.00132 1.48001C8.80848 1.32268 9.63562 1.29568 10.4513 1.40001C11.2925 1.49997 12.1015 1.7833 12.8213 2.23001C13.5347 2.65904 14.1214 3.26986 14.5213 4.00001C14.7881 4.46655 14.9518 4.98486 15.0013 5.52001C15.026 5.76955 14.9958 6.02147 14.9129 6.25813C14.83 6.49478 14.6964 6.71045 14.5213 6.89001C14.0895 7.19551 13.5845 7.38139 13.0577 7.42881C12.5308 7.47623 12.0008 7.38349 11.5213 7.16001C11.2827 7.07557 11.0639 6.94333 10.8782 6.77138C10.6925 6.59943 10.5438 6.3914 10.4413 6.16001C10.342 5.93507 10.3117 5.68567 10.3545 5.4435C10.3972 5.20134 10.511 4.97735 10.6813 4.80001C10.8786 4.62707 11.1117 4.49987 11.3638 4.42752C11.616 4.35517 11.881 4.33945 12.14 4.38149C12.3989 4.42354 12.6454 4.5223 12.8617 4.67072C13.0781 4.81914 13.2589 5.01354 13.3913 5.24001C13.5613 5.56001 13.9613 5.66001 13.8313 5.14001C13.6931 4.74443 13.4471 4.39532 13.1212 4.13201C12.7952 3.86869 12.4022 3.70163 11.9864 3.64966C11.5706 3.59768 11.1485 3.66286 10.7678 3.83783C10.387 4.01281 10.0627 4.29063 9.83132 4.64001C9.64972 4.96634 9.56312 5.33699 9.58132 5.71001C9.59767 6.05581 9.69153 6.39351 9.85597 6.69815C10.0204 7.00279 10.2512 7.26658 10.5313 7.47001C11.0739 7.86379 11.7134 8.10233 12.3813 8.16001C13.0372 8.23884 13.7023 8.1458 14.3113 7.89001C14.6416 7.75531 14.9348 7.54334 15.1662 7.27189C15.3976 7.00045 15.5606 6.67745 15.6413 6.33001C15.7737 5.69048 15.7146 5.02609 15.4713 4.42001C15.1038 3.50421 14.5103 2.69647 13.7461 2.07218C12.9819 1.44789 12.072 1.02741 11.1013 0.850007C10.181 0.660024 9.23162 0.660024 8.31132 0.850007C7.82788 0.913958 7.36273 1.07655 6.94472 1.3277C6.52672 1.57884 6.16477 1.91319 5.88132 2.31001C5.76132 2.49001 5.93132 2.61001 6.00132 2.48001Z" fill="#99252E"/>
<path d="M21.7913 8.71C21.7913 8.65 21.9213 8.55 21.9213 8.52V8.43C21.4813 8.57 20.9213 8.70999 20.5313 8.81999C20.3411 8.86942 20.1471 8.90287 19.9513 8.92C19.7982 8.93226 19.6444 8.93226 19.4913 8.92C19.0472 8.92841 18.6038 8.88138 18.1713 8.77999C17.7379 8.66824 17.321 8.50015 16.9313 8.27999L16.6513 8.09L16.3413 7.83L16.2013 7.69C16.1755 7.66925 16.1521 7.64578 16.1313 7.62L16.0613 7.7C15.9767 7.81114 15.8866 7.91794 15.7913 8.02C15.1339 8.67661 14.2742 9.09234 13.3513 9.2C12.4344 9.33501 11.4981 9.20669 10.6513 8.83C10.4513 8.73 10.3013 8.88 10.4513 9C10.2313 8.92 10.0813 9.06 10.2913 9.37C11.6837 11.2725 13.2289 13.0584 14.9113 14.71L15.9613 15.71L16.0413 15.79C16.0413 15.79 16.1013 15.85 16.1213 15.79L16.2713 15.61L16.5613 15.26L17.0213 14.72L18.2213 13.19L19.4013 11.66L19.9813 10.89C20.1813 10.63 20.3213 10.44 20.7113 9.97L21.4313 9.08L21.7913 8.71Z" fill="#99252E"/>
<path d="M29.1014 8.00002C28.4897 7.96401 27.8778 8.06656 27.3114 8.30002C27.0209 8.4109 26.7555 8.57855 26.5306 8.79317C26.3056 9.00779 26.1257 9.26509 26.0014 9.55002C25.8787 9.85461 25.8503 10.189 25.9198 10.5099C25.9894 10.8309 26.1536 11.1235 26.3914 11.35C26.6217 11.5623 26.9024 11.7124 27.2068 11.7859C27.5113 11.8594 27.8296 11.8539 28.1314 11.77C28.4247 11.7038 28.6992 11.5723 28.9347 11.3853C29.1702 11.1984 29.3604 10.9607 29.4914 10.69C29.6514 10.28 29.3214 10.11 29.1414 10.41C28.9247 10.7209 28.6048 10.9447 28.2386 11.0418C27.8723 11.1388 27.4835 11.1028 27.1414 10.94C27.0032 10.8676 26.8879 10.7582 26.8084 10.6239C26.7289 10.4897 26.6884 10.336 26.6914 10.18C26.6936 10.0019 26.7362 9.82659 26.8158 9.66726C26.8955 9.50792 27.0102 9.3687 27.1514 9.26002C27.54 8.98137 27.9897 8.79968 28.4628 8.7301C28.936 8.66052 29.4189 8.70506 29.8714 8.86002C30.0768 8.92926 30.2624 9.04733 30.4122 9.20409C30.562 9.36085 30.6715 9.55162 30.7314 9.76002C30.8653 10.2307 30.8653 10.7294 30.7314 11.2C30.467 12.0656 29.9854 12.849 29.3325 13.4757C28.6796 14.1024 27.877 14.5514 27.0014 14.78C26.1255 15.0448 25.1973 15.0861 24.3014 14.9C23.8548 14.8348 23.4293 14.6673 23.0581 14.4106C22.6869 14.1539 22.38 13.8149 22.1614 13.42C22.0914 13.24 21.8914 13.24 21.9014 13.42C22.0004 13.8733 22.2184 14.292 22.533 14.633C22.8477 14.974 23.2475 15.2249 23.6914 15.36C24.6508 15.7149 25.6918 15.7877 26.6914 15.57C27.6823 15.3733 28.6076 14.9296 29.3814 14.28C30.0695 13.6762 30.6217 12.9331 31.0014 12.1C31.2674 11.5528 31.4204 10.9577 31.4514 10.35C31.4699 10.029 31.4197 9.70776 31.3042 9.4077C31.1886 9.10764 31.0104 8.83569 30.7814 8.61002C30.3073 8.22115 29.7145 8.00593 29.1014 8.00002Z" fill="#99252E"/>
<path d="M37.4613 7C37.6613 7.1 37.8113 7 37.6513 6.82C37.8813 6.9 38.0313 6.75 37.8213 6.45C36.4285 4.5478 34.8834 2.76192 33.2013 1.11L32.2013 0.11L32.0513 0H32.0013L31.8213 0.2L31.5313 0.55L31.0713 1.1L29.8713 2.62L28.6913 4.16L28.1113 4.92C27.9113 5.18 27.7713 5.37 27.3813 5.85L26.6613 6.73L26.3213 7.15C26.3213 7.21 26.1813 7.3 26.1913 7.33V7.42C26.6313 7.29 27.1913 7.14 27.5813 7.04C27.7713 6.98769 27.9653 6.9509 28.1613 6.93C28.3413 6.93 28.5313 6.93 28.6113 6.93C29.0594 6.91943 29.5068 6.9699 29.9413 7.08C30.3762 7.18724 30.7937 7.35558 31.1813 7.58L31.4613 7.77C31.5657 7.84786 31.6659 7.93132 31.7613 8.02L31.9113 8.17L32.0013 8.2V8.12C32.0834 8.01003 32.1736 7.9064 32.2713 7.81C32.9347 7.15935 33.7976 6.75077 34.7213 6.65C35.6493 6.50262 36.6001 6.62408 37.4613 7Z" fill="#99252E"/>
</g>
<defs>
<clipPath id="clip0_16_850">
<rect width="32" height="16" fill="white"/>
</clipPath>
</defs>
</svg>
