<svg xmlns="http://www.w3.org/2000/svg" viewBox="0 0 78.72 78.82"><defs><style>.cls-1{fill:#e0b17e;}</style></defs><g id="Layer_2" data-name="Layer 2"><g id="Layer_2-2" data-name="Layer 2"><path class="cls-1" d="M40.87,46.81l-4.32,2.53,0,0a22.1,22.1,0,0,0-4.15-2.42l-.27-.09.27-.1a21.88,21.88,0,0,0,4.15-2.41l0,0Z"/><path class="cls-1" d="M5,46.71,2.53,48.8v0a12.59,12.59,0,0,0-2.36-2L0,46.71l.16-.07a12.59,12.59,0,0,0,2.36-2v0Z"/><path class="cls-1" d="M30.36,46.49c1.94-.5,4-1.92,4-4.39,0-2.62-1.69-4.88-4.22-4.2a3.81,3.81,0,0,0-2.55,5.41.41.41,0,0,0,.27.23l.18.09c.9.55,2.16-.24,2.65-1.37a4,4,0,0,0,.23-2.84,2,2,0,0,1,1.89.4c.15.17.25.24.39.21a2.63,2.63,0,0,1,.17.42,4.15,4.15,0,0,1-.14,3.17c-1.24,2.16-4.11,2.51-6.17,2.2a6.19,6.19,0,0,1-5.34-5.44c0-.16,0-.32,0-.48a.53.53,0,0,0,0-.12,7.25,7.25,0,0,1,1.93-4.5c1-.91,2.54-2,3.7-1.23s.68-.32.43-.64a2.9,2.9,0,0,0-2.21-1.06c1.44-.89,3-1.89,3.54-3.7a6.49,6.49,0,0,0-.55-5.34c-.13-.19-.37-.29-.52-.18s-.28.23-.29.47a12.4,12.4,0,0,1-2.15,5.84c-1.13,1.86-2.4,3.62-3.39,5.57A9.41,9.41,0,0,0,21,40.53a7.6,7.6,0,0,0,2.79,4.9A8.23,8.23,0,0,0,30.36,46.49Zm-1.06-4,0,0v0Z"/><path class="cls-1" d="M23.79,48.07A7.57,7.57,0,0,0,21,53a9.39,9.39,0,0,0,1.22,5.51c1,2,2.26,3.72,3.39,5.57a12.44,12.44,0,0,1,2.15,5.84c0,.24.13.47.29.47a.39.39,0,0,0,.52-.18,6.48,6.48,0,0,0,.55-5.34C28.61,63,27,62,25.58,61.15a2.93,2.93,0,0,0,2.21-1.06c.25-.33.69-1.38-.43-.65s-2.7-.31-3.7-1.22a7.3,7.3,0,0,1-1.93-4.5.5.5,0,0,0,0-.13c0-.16,0-.32,0-.48a6.18,6.18,0,0,1,5.34-5.43c2.06-.32,4.93,0,6.17,2.19A4.15,4.15,0,0,1,33.39,53a2.63,2.63,0,0,1-.17.42c-.14,0-.24,0-.39.21a2,2,0,0,1-1.89.4,4,4,0,0,0-.23-2.84c-.49-1.12-1.75-1.91-2.65-1.36a.71.71,0,0,0-.18.08.45.45,0,0,0-.27.24,3.79,3.79,0,0,0,2.55,5.4c2.53.69,4.22-1.58,4.22-4.19s-2.08-3.89-4-4.39A8.2,8.2,0,0,0,23.79,48.07ZM29.27,51v0l0,0Z"/><path class="cls-1" d="M2.45,38.56c-.09,0-.17.11-.23.28a2.49,2.49,0,0,0-.12.72,5.88,5.88,0,0,0,.37,2.35,7.45,7.45,0,0,0,1,1.87,7.19,7.19,0,0,0,2.09,1.86,8.53,8.53,0,0,0,2.22.89,3.56,3.56,0,0,0,1,.14,3.61,3.61,0,0,0-.89-.45A10.44,10.44,0,0,1,6,45a7.17,7.17,0,0,1-1.59-1.88,10.26,10.26,0,0,1-.74-1.66c-.28-.77-.49-1.51-.69-2a4.12,4.12,0,0,0-.28-.64C2.63,38.64,2.54,38.56,2.45,38.56Z"/><path class="cls-1" d="M18,30.88l-.07-.1a2.64,2.64,0,0,0-.22-.27,3.69,3.69,0,0,0-1-.82,3.91,3.91,0,0,0-2-.39,3.62,3.62,0,0,0-1.2.34,4.58,4.58,0,0,0-1.12.83,4.27,4.27,0,0,0-1.2,2.85,4,4,0,0,0,.3,1.69,3.57,3.57,0,0,0,.43.79c.09.13.17.26.27.38l.31.36A5.34,5.34,0,0,0,16,38.13a5.11,5.11,0,0,0,2-.29l.48-.2.47-.25a7.9,7.9,0,0,0,.88-.64,6.63,6.63,0,0,0,1.76-2.33,6.79,6.79,0,0,0,.59-2.74,6.72,6.72,0,0,0-.51-2.62,6.36,6.36,0,0,0-.28-.59,6.16,6.16,0,0,0-.33-.55,11.17,11.17,0,0,0-.75-1,8.82,8.82,0,0,0-3.72-2.5,9,9,0,0,0-3.46-.49,9,9,0,0,0-3.29,1.18,10.81,10.81,0,0,0-3.31,3.1,11,11,0,0,0-1.9,5A10.84,10.84,0,0,0,5.55,39c.07.18.16.34.24.51s.18.33.27.49.2.33.3.49l.15.24.16.23a12.79,12.79,0,0,0,1.38,1.7,10.51,10.51,0,0,0,3.39,2.3,15.66,15.66,0,0,0,3.67,1c1.2.2,2.33.31,3.37.39,2.08.15,3.77.22,4.94.28l1.82.11-1.82.08c-1.17,0-2.86.12-5,.11A33.32,33.32,0,0,1,15,46.72a15.54,15.54,0,0,1-3.92-.9A10.88,10.88,0,0,1,7.26,43.4a14.33,14.33,0,0,1-1.54-1.83l-.17-.25-.17-.26c-.1-.17-.22-.33-.32-.52s-.21-.36-.3-.54-.19-.37-.28-.57A11.52,11.52,0,0,1,5.87,27.68,11,11,0,0,1,9.6,24.6a8.93,8.93,0,0,1,3.53-1A9.14,9.14,0,0,1,21,26.33a9.4,9.4,0,0,1,.88,1.08,5.21,5.21,0,0,1,.4.6,6.65,6.65,0,0,1,.34.65,7.55,7.55,0,0,1,.7,3,7.69,7.69,0,0,1-.63,3.21,7.5,7.5,0,0,1-2,2.75,8.37,8.37,0,0,1-1,.76c-.19.1-.38.21-.58.3s-.39.17-.59.24a6.18,6.18,0,0,1-4.81-.33,6.2,6.2,0,0,1-1.83-1.39l-.35-.44c-.11-.15-.21-.31-.31-.46a5.19,5.19,0,0,1-.47-1,4.88,4.88,0,0,1-.26-2A5,5,0,0,1,12,30.05l.32-.26.33-.22a2.33,2.33,0,0,1,.34-.2,2.72,2.72,0,0,1,.35-.16,3.81,3.81,0,0,1,1.37-.28,3.9,3.9,0,0,1,2.1.61,3.4,3.4,0,0,1,1,.94,1.72,1.72,0,0,1,.19.3Z"/><path class="cls-1" d="M2.45,55.05c.09,0,.18-.07.28-.22A4.12,4.12,0,0,0,3,54.19c.2-.54.41-1.27.69-2a9.31,9.31,0,0,1,.75-1.66A7.33,7.33,0,0,1,6,48.61a10.37,10.37,0,0,1,1.89-1.2A3.87,3.87,0,0,0,8.8,47a4.13,4.13,0,0,0-1,.14A8.62,8.62,0,0,0,5.59,48a7.16,7.16,0,0,0-3.12,3.73,5.86,5.86,0,0,0-.37,2.35,2.49,2.49,0,0,0,.12.72C2.28,55,2.36,55.05,2.45,55.05Z"/><path class="cls-1" d="M18,62.74l-.06.1a1.72,1.72,0,0,1-.19.3,3.54,3.54,0,0,1-1,.94,3.83,3.83,0,0,1-3.47.33c-.12,0-.23-.11-.35-.16a3.79,3.79,0,0,1-.34-.2,3.29,3.29,0,0,1-.33-.23,3.65,3.65,0,0,1-.32-.26,4.92,4.92,0,0,1-1.33-5.27,5.19,5.19,0,0,1,.47-1c.1-.16.2-.31.31-.46l.35-.44a6.29,6.29,0,0,1,4.15-2,6.27,6.27,0,0,1,2.49.32c.2.07.39.16.59.24s.39.2.58.3a8.29,8.29,0,0,1,1,.75,7.5,7.5,0,0,1,2,2.75A7.77,7.77,0,0,1,23.29,62a7.47,7.47,0,0,1-.7,3,6.82,6.82,0,0,1-.34.66,5.21,5.21,0,0,1-.4.6A9.4,9.4,0,0,1,21,67.29a9.16,9.16,0,0,1-4.18,2.47,8.91,8.91,0,0,1-3.66.22A8.73,8.73,0,0,1,9.6,69a11,11,0,0,1-3.73-3.08A11.53,11.53,0,0,1,4.48,54.19c.09-.2.18-.38.28-.57s.2-.36.3-.54.22-.35.32-.52l.17-.26.17-.25a13.68,13.68,0,0,1,1.54-1.83,11.06,11.06,0,0,1,3.82-2.43A16,16,0,0,1,15,46.9a33.32,33.32,0,0,1,3.46-.18c2.1,0,3.79.07,5,.11l1.82.08-1.82.1c-1.17.07-2.86.13-4.94.29-1,.08-2.17.19-3.37.39a15.66,15.66,0,0,0-3.67,1A10.35,10.35,0,0,0,8.05,51a12.79,12.79,0,0,0-1.38,1.7l-.16.23-.15.24c-.1.16-.21.32-.3.48s-.19.33-.27.5-.17.33-.24.51a10.84,10.84,0,0,0-.89,5.8,11,11,0,0,0,5.21,8.06,8.91,8.91,0,0,0,3.29,1.17,8.84,8.84,0,0,0,7.18-3,9.8,9.8,0,0,0,.75-1,7.82,7.82,0,0,0,.61-1.14,6.81,6.81,0,0,0-.08-5.36,6.54,6.54,0,0,0-1.76-2.33,6.81,6.81,0,0,0-.88-.64L18.51,56l-.48-.2a5.11,5.11,0,0,0-2-.29,5.29,5.29,0,0,0-3.5,1.59l-.31.36c-.1.12-.18.25-.27.37a4.08,4.08,0,0,0-.43.79,4,4,0,0,0-.3,1.69,4.23,4.23,0,0,0,1.2,2.85A4.12,4.12,0,0,0,13.5,64a3.2,3.2,0,0,0,1.2.34,3.65,3.65,0,0,0,2-.39,3.52,3.52,0,0,0,1-.81,1.85,1.85,0,0,0,.22-.28Z"/><path class="cls-1" d="M6.58,18.69l.08.2a2.09,2.09,0,0,1,.13.61,2,2,0,0,1-.18,1,1.91,1.91,0,0,1-.4.52,2,2,0,0,1-.64.39,2.17,2.17,0,0,1-1.72-.11,2.85,2.85,0,0,1-1.3-1.49,5.15,5.15,0,0,1-.38-2.07,5.06,5.06,0,0,1,.11-1.14,4.14,4.14,0,0,1,.46-1.12A3.27,3.27,0,0,1,4,14.36a3.61,3.61,0,0,1,1.5-.42,4.55,4.55,0,0,1,2.64.69,5.06,5.06,0,0,1,1.62,1.56,5.53,5.53,0,0,1,.69,1.53,6.57,6.57,0,0,1,.47,1.62,3.79,3.79,0,0,1-.39,2.24,6.77,6.77,0,0,1-1.74,2c-.71.6-1.48,1.16-2.22,1.78A10.9,10.9,0,0,0,3.92,28.3a9.77,9.77,0,0,0-1.1,3l-.07.33,0,.33c0,.21-.06.41-.07.59,0,.38-.06.7-.06,1l0,.83s0-.29-.12-.82c0-.26,0-.59-.08-1,0-.19,0-.39,0-.61v-.34c0-.11,0-.23,0-.35a8.88,8.88,0,0,1,.89-3.32A8.72,8.72,0,0,1,4.4,26.23,12,12,0,0,1,6,24.7c.78-.65,1.57-1.19,2.27-1.73a10,10,0,0,0,1-.82,4.6,4.6,0,0,0,.73-.89,3.47,3.47,0,0,0,.52-1.89,6.26,6.26,0,0,0-.24-1.58,5.91,5.91,0,0,0-.84-1.34,4.81,4.81,0,0,0-1.58-1.26,4.2,4.2,0,0,0-2.26-.44,2.73,2.73,0,0,0-2,1.2,3.41,3.41,0,0,0-.36.86,4.84,4.84,0,0,0-.12.94,5.15,5.15,0,0,0,.23,1.79,2.25,2.25,0,0,0,.91,1.23A1.71,1.71,0,0,0,5.44,21,1.77,1.77,0,0,0,6,20.75a1.8,1.8,0,0,0,.39-.39,2,2,0,0,0,.29-.86,2.43,2.43,0,0,0,0-.6Z"/><circle class="cls-1" cx="6.05" cy="19.11" r="0.99"/><circle class="cls-1" cx="5.44" cy="73.61" r="0.99"/><path class="cls-1" d="M18.9,21a.94.94,0,0,0,.36,1.2.93.93,0,0,0,1.21-.3.87.87,0,0,0-.31-1.27A.88.88,0,0,0,18.9,21Z"/><path class="cls-1" d="M17,20.32a.85.85,0,0,0,.09.57.73.73,0,0,0,.42.35.79.79,0,0,0,.93-.47.73.73,0,0,0-.48-1,.79.79,0,0,0-.61.06A.71.71,0,0,0,17,20.32Z"/><path class="cls-1" d="M15.33,20.15a.64.64,0,0,0,1.28.09.64.64,0,1,0-1.28-.09Z"/><path class="cls-1" d="M14,20.37a.52.52,0,0,0,.57.36.42.42,0,0,0,.29-.2.43.43,0,0,0,.1-.35.48.48,0,0,0-.18-.34.59.59,0,0,0-.4-.08A.48.48,0,0,0,14,20.37Z"/><path class="cls-1" d="M12.87,20.88a.41.41,0,0,0,.51.14.39.39,0,0,0,.16-.5.38.38,0,1,0-.67.36Z"/><path class="cls-1" d="M22,23.16a.79.79,0,0,1-.54.2.72.72,0,0,1-.5-.18.75.75,0,0,1-.23-.5.8.8,0,0,1,.17-.55.68.68,0,0,1,.51-.27.72.72,0,0,1,.57.21.76.76,0,0,1,.26.56A.69.69,0,0,1,22,23.16Z"/><path class="cls-1" d="M22.94,24.56a.7.7,0,0,1-.49.06,1,1,0,0,1-.21-.09.65.65,0,0,1-.16-.17.59.59,0,0,1-.09-.45.71.71,0,0,1,.25-.42.59.59,0,0,1,.47-.13.66.66,0,0,1,.44.29,1,1,0,0,1,.11.26.82.82,0,0,1,0,.27A.59.59,0,0,1,22.94,24.56Z"/><path class="cls-1" d="M23.41,25.88a.51.51,0,0,1-.59-.33.52.52,0,0,1,.3-.61.49.49,0,1,1,.29.94Z"/><path class="cls-1" d="M23.48,27.07a.38.38,0,0,1-.36-.38.4.4,0,0,1,.36-.38.38.38,0,0,1,.4.38A.38.38,0,0,1,23.48,27.07Z"/><path class="cls-1" d="M6.18,74.07l0-.21a2.09,2.09,0,0,0,0-.6A1.64,1.64,0,0,0,5.58,72,1.83,1.83,0,0,0,5,71.77,1.68,1.68,0,0,0,3.74,72a2.23,2.23,0,0,0-.9,1.23A4.92,4.92,0,0,0,2.61,75a4.17,4.17,0,0,0,.12.94,3.41,3.41,0,0,0,.36.86,2.71,2.71,0,0,0,2,1.2,4.31,4.31,0,0,0,2.27-.44A4.92,4.92,0,0,0,9,76.31,5.74,5.74,0,0,0,9.81,75a7.12,7.12,0,0,0,.24-1.57,3.47,3.47,0,0,0-.52-1.89,5,5,0,0,0-.73-.89,11.41,11.41,0,0,0-1-.82c-.7-.54-1.5-1.09-2.28-1.73A11.89,11.89,0,0,1,4,66.53a8.39,8.39,0,0,1-2-5l0-.36v-.33c0-.22,0-.42,0-.62,0-.38,0-.71.08-1l.12-.82,0,.82c0,.27,0,.59.06,1,0,.18,0,.38.07.59l0,.32c0,.11,0,.23.07.34a9.28,9.28,0,0,0,1.1,3,11.06,11.06,0,0,0,2.61,2.92c.74.62,1.51,1.18,2.22,1.78a6.79,6.79,0,0,1,1.74,2,3.78,3.78,0,0,1,.38,2.24A6.19,6.19,0,0,1,10,75a5.3,5.3,0,0,1-.7,1.53A5,5,0,0,1,7.7,78.13a4.63,4.63,0,0,1-2.64.69,3.61,3.61,0,0,1-1.5-.42,3.19,3.19,0,0,1-1.22-1.12,4.14,4.14,0,0,1-.46-1.12A5.06,5.06,0,0,1,1.77,75a5.22,5.22,0,0,1,.37-2.08,2.93,2.93,0,0,1,1.31-1.48,2.17,2.17,0,0,1,1.72-.11,2,2,0,0,1,.64.39,2.13,2.13,0,0,1,.4.52,1.94,1.94,0,0,1,.18,1,2.49,2.49,0,0,1-.13.61Z"/><path class="cls-1" d="M18.5,71.81a.91.91,0,1,0,1.57-.91.91.91,0,0,0-1.57.91Z"/><path class="cls-1" d="M16.64,72.44a.71.71,0,0,0,.34.47.82.82,0,0,0,.62.06.74.74,0,0,0,.48-1,.8.8,0,0,0-.94-.47.81.81,0,0,0-.5.92Z"/><path class="cls-1" d="M14.93,72.61a.64.64,0,1,0,1.28-.09.64.64,0,0,0-1.28.09Z"/><path class="cls-1" d="M13.55,72.39a.48.48,0,0,0,.38.61.55.55,0,0,0,.39-.08.46.46,0,0,0,.19-.34.51.51,0,0,0-.1-.36.44.44,0,0,0-.29-.19A.52.52,0,0,0,13.55,72.39Z"/><path class="cls-1" d="M12.47,71.88a.37.37,0,0,0,.14.53.39.39,0,0,0,.53-.17.4.4,0,0,0-.16-.5A.41.41,0,0,0,12.47,71.88Z"/><path class="cls-1" d="M21.55,69.6a.69.69,0,0,1,.24.53.8.8,0,0,1-.26.56.74.74,0,0,1-1.09-.06.82.82,0,0,1-.16-.55.77.77,0,0,1,.22-.5.8.8,0,0,1,.51-.19A.85.85,0,0,1,21.55,69.6Z"/><path class="cls-1" d="M22.54,68.2a.57.57,0,0,1,.3.38.62.62,0,0,1,0,.27.91.91,0,0,1-.11.25.66.66,0,0,1-.44.3.64.64,0,0,1-.48-.13.7.7,0,0,1-.24-.42.63.63,0,0,1,.08-.45.55.55,0,0,1,.17-.17.67.67,0,0,1,.21-.09A.71.71,0,0,1,22.54,68.2Z"/><path class="cls-1" d="M23,66.88a.47.47,0,0,1,.35.62.48.48,0,0,1-.64.32.52.52,0,0,1-.3-.61A.51.51,0,0,1,23,66.88Z"/><path class="cls-1" d="M23.08,65.69a.36.36,0,0,1,.39.38.37.37,0,0,1-.4.38.39.39,0,0,1-.35-.38A.38.38,0,0,1,23.08,65.69Z"/><path class="cls-1" d="M46.55,40.86l-2.61-4.27h0a22.33,22.33,0,0,0,2.34-4.2l.09-.28.1.27A21.92,21.92,0,0,0,49,36.48h0Z"/><path class="cls-1" d="M45.93,5,43.8,2.57h0A12.21,12.21,0,0,0,45.75.16L45.83,0l.08.15a12.22,12.22,0,0,0,2,2.33h0Z"/><path class="cls-1" d="M46.66,30.35c.54,1.93,2,4,4.47,3.93S56,32.49,55.24,30a3.8,3.8,0,0,0-5.45-2.45.44.44,0,0,0-.23.28.66.66,0,0,0-.09.19c-.53.9.29,2.15,1.42,2.62a4,4,0,0,0,2.85.16,2,2,0,0,1-.37,1.9c-.16.16-.23.26-.2.4a3,3,0,0,1-.41.18,4.13,4.13,0,0,1-3.18-.08C47.4,32,47,29.12,47.27,27.06a6.18,6.18,0,0,1,5.32-5.45,4.07,4.07,0,0,1,.49-.05l.12,0a7.28,7.28,0,0,1,4.54,1.84c.93,1,2,2.49,1.3,3.67s.33.67.65.42a2.87,2.87,0,0,0,1-2.23c.92,1.42,1.95,3,3.77,3.46a6.47,6.47,0,0,0,5.33-.65c.19-.14.28-.38.17-.52s-.24-.29-.48-.29a12.41,12.41,0,0,1-5.88-2C61.73,24.16,60,22.93,58,22a9.35,9.35,0,0,0-5.53-1.1,7.56,7.56,0,0,0-4.85,2.88A8.22,8.22,0,0,0,46.66,30.35Zm4-1.14,0,0h0Z"/><path class="cls-1" d="M45,23.82a7.57,7.57,0,0,0-5-2.7,9.43,9.43,0,0,0-5.49,1.33c-1.94,1-3.67,2.33-5.5,3.5a12.48,12.48,0,0,1-5.8,2.27c-.24,0-.46.14-.46.3s0,.38.19.52a6.5,6.5,0,0,0,5.35.44c1.79-.55,2.76-2.16,3.62-3.61A2.93,2.93,0,0,0,33,28.06c.33.23,1.39.65.64-.45s.26-2.7,1.15-3.72a7.21,7.21,0,0,1,4.46-2,.34.34,0,0,0,.12,0l.49,0a6.19,6.19,0,0,1,5.54,5.24c.35,2,.06,4.92-2.07,6.21a4.15,4.15,0,0,1-3.17.2,2.61,2.61,0,0,1-.42-.16c0-.15,0-.24-.22-.39a2,2,0,0,1-.44-1.88,4,4,0,0,0,2.84-.28c1.11-.52,1.88-1.79,1.31-2.68a.76.76,0,0,0-.09-.18.45.45,0,0,0-.24-.27,3.8,3.8,0,0,0-5.35,2.66c-.64,2.54,1.66,4.19,4.28,4.13,2.47-.05,3.84-2.15,4.3-4.1A8.15,8.15,0,0,0,45,23.82Zm-2.83,5.53h0l0,0Z"/><path class="cls-1" d="M54,2.28c0-.09-.11-.16-.28-.22A2.61,2.61,0,0,0,53,2a6.2,6.2,0,0,0-2.34.42,7.41,7.41,0,0,0-1.84,1.06A7.24,7.24,0,0,0,47,5.56a8.49,8.49,0,0,0-.84,2.23,3.14,3.14,0,0,0-.12,1,4.08,4.08,0,0,0,.44-.9A10.37,10.37,0,0,1,47.65,6,7.22,7.22,0,0,1,49.5,4.37a10.73,10.73,0,0,1,1.65-.78c.76-.29,1.49-.51,2-.72a5,5,0,0,0,.64-.3C54,2.47,54,2.37,54,2.28Z"/><path class="cls-1" d="M62,17.69l.1-.07c.05-.05.16-.12.26-.22a3.7,3.7,0,0,0,.8-1.06,4,4,0,0,0,.3-.89,3.62,3.62,0,0,0,.05-1.1,3.46,3.46,0,0,0-.37-1.2,4.12,4.12,0,0,0-.85-1.1,4.28,4.28,0,0,0-2.87-1.14,4.13,4.13,0,0,0-1.68.33,3.91,3.91,0,0,0-.79.45L56.6,12l-.35.32a5.27,5.27,0,0,0-1.52,3.53,5.1,5.1,0,0,0,.33,2c.06.16.14.32.21.48l.26.46a9.05,9.05,0,0,0,.66.87,6.45,6.45,0,0,0,2.36,1.7,6.69,6.69,0,0,0,5.36,0,3.92,3.92,0,0,0,.58-.29,3.87,3.87,0,0,0,.55-.34,9.79,9.79,0,0,0,1-.77,8.74,8.74,0,0,0,2.43-3.77,9.12,9.12,0,0,0,.42-3.47,8.85,8.85,0,0,0-1.25-3.26,10.67,10.67,0,0,0-3.16-3.25,11,11,0,0,0-5-1.8,10.84,10.84,0,0,0-5.78,1l-.5.26a4.76,4.76,0,0,0-.49.28c-.16.09-.32.2-.48.3L52,6.39l-.23.16A12.88,12.88,0,0,0,50.1,8a10.21,10.21,0,0,0-2.24,3.44,16.58,16.58,0,0,0-1,3.69c-.17,1.19-.26,2.33-.32,3.37-.11,2.08-.14,3.78-.18,4.94l-.07,1.82s0-.64-.12-1.81-.18-2.86-.21-5c0-1.06,0-2.21.11-3.46a15.93,15.93,0,0,1,.82-3.94A10.91,10.91,0,0,1,49.29,7.2a13,13,0,0,1,1.8-1.58l.24-.18.26-.17c.17-.11.33-.23.51-.33s.35-.22.54-.32a5.85,5.85,0,0,1,.56-.28A11.45,11.45,0,0,1,65,5.49a10.89,10.89,0,0,1,3.16,3.66,8.9,8.9,0,0,1,1,3.52A9.1,9.1,0,0,1,69,16.33a9.25,9.25,0,0,1-2.39,4.23,10.46,10.46,0,0,1-1.06.9,6.19,6.19,0,0,1-.59.41c-.22.12-.42.26-.65.36a7.5,7.5,0,0,1-3,.75,7.72,7.72,0,0,1-3.22-.56,7.47,7.47,0,0,1-2.79-2,7.65,7.65,0,0,1-.78-1l-.31-.57c-.08-.2-.18-.39-.25-.59a6.27,6.27,0,0,1-.37-2.48,6.37,6.37,0,0,1,.6-2.34,6.16,6.16,0,0,1,1.36-1.85l.43-.36c.15-.12.3-.21.45-.32a5.28,5.28,0,0,1,1-.49,4.83,4.83,0,0,1,2-.3,4.93,4.93,0,0,1,3.26,1.53A3.88,3.88,0,0,1,63,12a4,4,0,0,1,.24.33,3.62,3.62,0,0,1,.2.33,2.6,2.6,0,0,1,.16.34,3.76,3.76,0,0,1-.25,3.48,3.67,3.67,0,0,1-.92,1,3.06,3.06,0,0,1-.3.2Z"/><path class="cls-1" d="M37.54,2.61c0,.09.08.19.23.28a3.41,3.41,0,0,0,.64.27c.54.19,1.28.38,2.06.65a10,10,0,0,1,1.68.71,7.24,7.24,0,0,1,1.9,1.55,10.14,10.14,0,0,1,1.24,1.86c.26.53.43.89.48.87a4,4,0,0,0-.17-1,8.37,8.37,0,0,0-.93-2.2,7.2,7.2,0,0,0-1.9-2.06,7.72,7.72,0,0,0-1.89-1,6.31,6.31,0,0,0-2.35-.32,2.34,2.34,0,0,0-.72.14C37.64,2.44,37.54,2.52,37.54,2.61Z"/><path class="cls-1" d="M30.17,18.33l-.11-.06c-.06,0-.17-.09-.3-.18a3.63,3.63,0,0,1-1-1A3.8,3.8,0,0,1,28.16,15a3.64,3.64,0,0,1,.25-1.38,1.76,1.76,0,0,1,.15-.35,2.27,2.27,0,0,1,.19-.34,1.79,1.79,0,0,1,.22-.34c.08-.1.16-.22.25-.32a4.92,4.92,0,0,1,5.25-1.44,5.19,5.19,0,0,1,1,.45l.47.3.44.34a6.19,6.19,0,0,1,1.43,1.8,6.27,6.27,0,0,1,.43,4.8c-.07.21-.16.4-.23.61s-.2.38-.29.57A7.74,7.74,0,0,1,37,20.8a7.41,7.41,0,0,1-2.7,2.1,7.92,7.92,0,0,1-3.2.69,7.36,7.36,0,0,1-3-.64,5.21,5.21,0,0,1-.67-.33,4.85,4.85,0,0,1-.61-.39,9.32,9.32,0,0,1-1.09-.85,9.2,9.2,0,0,1-2.56-4.13,9,9,0,0,1-.29-3.65A8.88,8.88,0,0,1,23.72,10a10.94,10.94,0,0,1,3-3.78A11.45,11.45,0,0,1,38.45,4.63L39,4.9a5.77,5.77,0,0,1,.55.29c.18.09.35.2.53.31l.25.16.26.17a14.19,14.19,0,0,1,1.86,1.5A11,11,0,0,1,45,11.1a15.67,15.67,0,0,1,1,3.9,34.55,34.55,0,0,1,.26,3.45c0,2.1,0,3.8,0,5s0,1.82,0,1.82L46,23.42c-.09-1.16-.19-2.86-.39-4.93-.1-1-.23-2.17-.45-3.36a16.16,16.16,0,0,0-1.1-3.65,10.28,10.28,0,0,0-2.37-3.34A12.8,12.8,0,0,0,40,6.79l-.24-.16-.24-.14c-.16-.1-.32-.2-.49-.29l-.5-.26L38,5.71a10.75,10.75,0,0,0-5.82-.77,11.06,11.06,0,0,0-4.92,2,10.83,10.83,0,0,0-3,3.38,8.84,8.84,0,0,0-1.11,3.31,9,9,0,0,0,.55,3.45,8.75,8.75,0,0,0,2.58,3.67,9.9,9.9,0,0,0,1,.72,3.11,3.11,0,0,0,.56.32,6.28,6.28,0,0,0,.59.27,6.6,6.6,0,0,0,2.63.46,6.79,6.79,0,0,0,2.73-.65,6.43,6.43,0,0,0,2.29-1.8,9,9,0,0,0,.63-.89l.24-.48c.06-.16.13-.32.19-.49a5.23,5.23,0,0,0,.25-2,5.3,5.3,0,0,0-1.67-3.47l-.36-.31L35,12.13a4.32,4.32,0,0,0-.8-.41,4,4,0,0,0-1.7-.27,4.25,4.25,0,0,0-2.82,1.25,4.51,4.51,0,0,0-.81,1.14,3.56,3.56,0,0,0-.22,2.31A3.51,3.51,0,0,0,29,17a3.77,3.77,0,0,0,.83,1l.28.21Z"/><path class="cls-1" d="M74,6l-.2.08a2.85,2.85,0,0,1-.6.15,2,2,0,0,1-1-.17,1.86,1.86,0,0,1-.53-.38,2.17,2.17,0,0,1-.4-.64,2.16,2.16,0,0,1,.08-1.72A2.82,2.82,0,0,1,72.77,2a5.35,5.35,0,0,1,2.07-.42A5,5,0,0,1,76,1.68a4.14,4.14,0,0,1,1.13.44,3.2,3.2,0,0,1,1.15,1.19A3.6,3.6,0,0,1,78.7,4.8a4.62,4.62,0,0,1-.63,2.66A5.18,5.18,0,0,1,76.54,9.1,5.32,5.32,0,0,1,75,9.83a6.18,6.18,0,0,1-1.6.5A3.92,3.92,0,0,1,71.17,10a6.91,6.91,0,0,1-2.06-1.7c-.61-.7-1.19-1.46-1.82-2.19a11.1,11.1,0,0,0-3-2.55,9.72,9.72,0,0,0-3-1l-.34-.06-.32,0c-.21,0-.41-.06-.6-.06-.37,0-.7,0-1,0h-.83l.82-.13c.26-.05.59-.07,1-.1a6.12,6.12,0,0,1,.62,0H61l.36,0a8.94,8.94,0,0,1,3.33.82A9,9,0,0,1,66.4,4,11.34,11.34,0,0,1,68,5.53c.66.76,1.22,1.54,1.77,2.23a10,10,0,0,0,.85,1,4.48,4.48,0,0,0,.89.71,3.53,3.53,0,0,0,1.91.48A7.08,7.08,0,0,0,75,9.63a5.27,5.27,0,0,0,1.33-.87,5,5,0,0,0,1.22-1.6,4.23,4.23,0,0,0,.39-2.27,2.69,2.69,0,0,0-1.24-2,3.59,3.59,0,0,0-.86-.34,4.83,4.83,0,0,0-.94-.1,4.91,4.91,0,0,0-1.79.27,2.23,2.23,0,0,0-1.21.93,1.66,1.66,0,0,0-.19,1.29,1.58,1.58,0,0,0,.25.54,1.78,1.78,0,0,0,.4.38,1.82,1.82,0,0,0,.86.27,2.34,2.34,0,0,0,.6-.05Z"/><path class="cls-1" d="M74.54,5.48a1,1,0,1,0-1,1A1,1,0,0,0,74.54,5.48Z"/><path class="cls-1" d="M20,6a1,1,0,0,0-2,0,1,1,0,1,0,2,0Z"/><path class="cls-1" d="M72,18.38A.91.91,0,0,0,71.09,20a.88.88,0,0,0,1.27-.34A.89.89,0,0,0,72,18.38Z"/><path class="cls-1" d="M72.56,16.51a.79.79,0,0,0-.57.1.75.75,0,0,0-.34.42.79.79,0,0,0,.49.93.72.72,0,0,0,1-.5.74.74,0,0,0-.07-.62A.7.7,0,0,0,72.56,16.51Z"/><path class="cls-1" d="M72.7,14.8a.64.64,0,0,0-.07,1.28.64.64,0,1,0,.07-1.28Z"/><path class="cls-1" d="M72.45,13.42a.52.52,0,0,0-.35.58.46.46,0,0,0,.2.29.49.49,0,0,0,.36.09.5.5,0,0,0,.33-.2.52.52,0,0,0,.07-.39A.47.47,0,0,0,72.45,13.42Z"/><path class="cls-1" d="M71.91,12.35a.4.4,0,0,0-.12.51.38.38,0,0,0,.5.15.37.37,0,0,0,.16-.52A.38.38,0,0,0,71.91,12.35Z"/><path class="cls-1" d="M69.82,21.48a.86.86,0,0,1-.22-.54.81.81,0,0,1,.18-.51.76.76,0,0,1,.49-.24.79.79,0,0,1,.55.16.71.71,0,0,1,.29.5.79.79,0,0,1-.76.85A.69.69,0,0,1,69.82,21.48Z"/><path class="cls-1" d="M68.44,22.49a.63.63,0,0,1-.07-.48.67.67,0,0,1,.09-.21.55.55,0,0,1,.16-.18.62.62,0,0,1,.44-.09.7.7,0,0,1,.44.24.61.61,0,0,1,.13.47.64.64,0,0,1-.28.44.68.68,0,0,1-.26.12.75.75,0,0,1-.26,0A.57.57,0,0,1,68.44,22.49Z"/><path class="cls-1" d="M67.13,23a.5.5,0,0,1,.31-.59.51.51,0,0,1,.62.28.48.48,0,0,1-.3.65A.48.48,0,0,1,67.13,23Z"/><path class="cls-1" d="M65.94,23.08a.4.4,0,0,1,.37-.37.4.4,0,0,1,.39.35.38.38,0,0,1-.37.41A.37.37,0,0,1,65.94,23.08Z"/><path class="cls-1" d="M18.6,6.73l.21,0a2.19,2.19,0,0,0,.6,0,1.64,1.64,0,0,0,1.24-.69,1.93,1.93,0,0,0,.23-.55,1.68,1.68,0,0,0-.25-1.29,2.22,2.22,0,0,0-1.24-.88,5,5,0,0,0-1.8-.19,4.84,4.84,0,0,0-.94.13,3.4,3.4,0,0,0-.85.38,2.7,2.7,0,0,0-1.15,2.06A4.14,4.14,0,0,0,15.13,8a5,5,0,0,0,1.28,1.56,5.81,5.81,0,0,0,1.37.81,6.37,6.37,0,0,0,1.58.21A3.47,3.47,0,0,0,21.24,10a4.56,4.56,0,0,0,.87-.74,11.73,11.73,0,0,0,.81-1c.52-.72,1-1.52,1.68-2.31A12.55,12.55,0,0,1,26.09,4.4a8.46,8.46,0,0,1,1.7-1.17,8.88,8.88,0,0,1,3.3-1l.35,0h.95c.38,0,.71,0,1,.06l.82.1-.83,0c-.26,0-.58,0-1,.08-.18,0-.38.05-.59.08l-.32.05-.34.07a9.93,9.93,0,0,0-3,1.16,11.16,11.16,0,0,0-2.86,2.67c-.6.76-1.15,1.54-1.73,2.26a7,7,0,0,1-2,1.78,3.79,3.79,0,0,1-2.23.43,6.36,6.36,0,0,1-1.63-.43,5.75,5.75,0,0,1-1.54-.67,5.21,5.21,0,0,1-1.6-1.58,4.67,4.67,0,0,1-.74-2.63,3.64,3.64,0,0,1,.39-1.51A3.12,3.12,0,0,1,15.32,3a4,4,0,0,1,1.11-.48,5,5,0,0,1,1.13-.14,5.25,5.25,0,0,1,2.09.34,2.88,2.88,0,0,1,1.51,1.27,2.18,2.18,0,0,1,.14,1.72,1.84,1.84,0,0,1-.89,1.06,2,2,0,0,1-1,.2,2.24,2.24,0,0,1-.61-.12Z"/><path class="cls-1" d="M21.11,19A.9.9,0,1,0,22,20.55.9.9,0,0,0,21.11,19Z"/><path class="cls-1" d="M20.44,17.15a.74.74,0,0,0-.46.35.78.78,0,0,0-.05.62.74.74,0,0,0,1,.46.78.78,0,0,0,.45-.94.7.7,0,0,0-.36-.41A.79.79,0,0,0,20.44,17.15Z"/><path class="cls-1" d="M20.24,15.44a.64.64,0,1,0,.11,1.28A.65.65,0,0,0,20.9,16,.68.68,0,0,0,20.24,15.44Z"/><path class="cls-1" d="M20.43,14.06a.48.48,0,0,0-.6.39.51.51,0,0,0,.09.39.45.45,0,0,0,.33.19.55.55,0,0,0,.36-.11.44.44,0,0,0,.19-.3A.51.51,0,0,0,20.43,14.06Z"/><path class="cls-1" d="M20.92,13a.38.38,0,0,0-.53.16.37.37,0,0,0,.18.51.38.38,0,0,0,.49-.16A.39.39,0,0,0,20.92,13Z"/><path class="cls-1" d="M23.38,22a.73.73,0,0,1-.53.24.77.77,0,0,1-.56-.24.78.78,0,0,1-.23-.58.72.72,0,0,1,.27-.51.81.81,0,0,1,.55-.18.74.74,0,0,1,.5.22.76.76,0,0,1,.19.5A.88.88,0,0,1,23.38,22Z"/><path class="cls-1" d="M24.8,23a.61.61,0,0,1-.38.32.57.57,0,0,1-.26,0,.64.64,0,0,1-.26-.1.62.62,0,0,1-.3-.43.59.59,0,0,1,.11-.48.79.79,0,0,1,.42-.26.67.67,0,0,1,.46.08.65.65,0,0,1,.16.17.51.51,0,0,1,.1.21A.67.67,0,0,1,24.8,23Z"/><path class="cls-1" d="M26.13,23.41a.47.47,0,0,1-.62.36.48.48,0,0,1-.33-.63.51.51,0,0,1,.61-.31A.51.51,0,0,1,26.13,23.41Z"/><path class="cls-1" d="M27.32,23.46a.37.37,0,0,1-.37.4.38.38,0,0,1-.39-.4.39.39,0,0,1,.37-.36A.4.4,0,0,1,27.32,23.46Z"/></g></g></svg>