<svg xmlns="http://www.w3.org/2000/svg" viewBox="0 0 40.11 40.2"><defs><style>.cls-1{fill:#010101;}</style></defs><g id="Layer_2" data-name="Layer 2"><g id="Layer_2-2" data-name="Layer 2"><path class="cls-1" d="M.69,16.69H4.84a.69.69,0,0,0,.69-.7V13.92h.69a.69.69,0,1,0,0-1.38H5.53v-.7a.69.69,0,1,0-1.38,0v.7H2.07a.69.69,0,0,0,0,1.38h.7V15.3H1.38v-.69a.69.69,0,0,0-1.38,0V16A.69.69,0,0,0,.69,16.69Z"/><circle class="cls-1" cx="0.69" cy="18.76" r="0.69"/><path class="cls-1" d="M.69,26.37H2.77v1.38h-.7a.69.69,0,0,0,0,1.38H3.46a.69.69,0,0,0,.69-.69v-.69h.69a.69.69,0,0,0,.69-.69v-.69h.69a.7.7,0,1,0,0-1.39H5.53v-.69a.69.69,0,0,0-.69-.69H4.15V20.83h6.22a.69.69,0,1,0,0-1.38H2.07a.69.69,0,0,0,0,1.38h.7V23.6h-.7a.69.69,0,0,0-.69.69V25H.69a.7.7,0,0,0,0,1.39Z"/><circle class="cls-1" cx="6.22" cy="28.44" r="0.69"/><path class="cls-1" d="M7.61,11.15a.7.7,0,0,0,0,1.39h2.76a.7.7,0,1,0,0-1.39H7.61Z"/><circle class="cls-1" cx="7.61" cy="24.29" r="0.69"/><path class="cls-1" d="M8.3,16.69H6.22a.69.69,0,0,0,0,1.38H9a.69.69,0,0,0,0-1.38Z"/><circle class="cls-1" cx="8.99" cy="28.44" r="0.69"/><path class="cls-1" d="M10.37,16.69a.7.7,0,0,0,.7-.7V14.61a.69.69,0,0,0-.7-.69H7.61a.69.69,0,1,0,0,1.38H9.68V16A.69.69,0,0,0,10.37,16.69Z"/><path class="cls-1" d="M10.37,22.22H9A.69.69,0,0,0,9,23.6h1.38a.69.69,0,1,0,0-1.38Z"/><path class="cls-1" d="M11.76,4.24a.69.69,0,0,0,.69-.69v-.7h2.07a.69.69,0,1,0,0-1.38h-.69V.78a.69.69,0,1,0-1.38,0v.69h-.69a.69.69,0,0,0-.69.69V3.55A.69.69,0,0,0,11.76,4.24Z"/><circle class="cls-1" cx="11.76" cy="9.08" r="0.69"/><circle class="cls-1" cx="11.76" cy="13.23" r="0.69"/><path class="cls-1" d="M12.45,27.75h2.76v.69a.7.7,0,0,0,1.39,0v-.69H18v.69a.69.69,0,0,0,1.38,0v-.69h.7a.69.69,0,0,0,0-1.38H16.6v-.69a.7.7,0,1,0-1.39,0v.69H13.83V25h.69a.69.69,0,0,0,.69-.69V23.6h4.85a.69.69,0,0,0,.69-.69v-.69h.69a.69.69,0,0,0,.69-.69V20.14a.69.69,0,0,0-.69-.69h-.69V16.69h1.38v.69a.69.69,0,1,0,1.38,0V16a.69.69,0,0,0-.69-.69h-.69v-.69a.69.69,0,1,0-1.38,0v.69H16.6v-.69a.69.69,0,0,0-.69-.69H13.14a.69.69,0,0,0-.69.69v2.08h-.69a.69.69,0,0,0-.69.69v1.38a.69.69,0,0,0,1.38,0v-.69h.69a.69.69,0,0,0,.69-.69V15.3h1.38v2.08a.7.7,0,0,0,1.39,0v-.69h2.76v2.76H13.14a.69.69,0,1,0,0,1.38H16.6v1.39H13.14a.69.69,0,0,0-.69.69V25H9a.7.7,0,0,0,0,1.39h.69v.69a.69.69,0,0,0,.69.69h2.08ZM18,20.83h1.38v1.39H18Z"/><circle class="cls-1" cx="11.76" cy="35.36" r="0.69"/><circle class="cls-1" cx="13.14" cy="11.84" r="0.69"/><path class="cls-1" d="M13.83,31.21a.69.69,0,0,0-.69-.69H11.76a.69.69,0,0,0-.69.69v1.38a.69.69,0,0,0,.69.69h1.38a.69.69,0,0,0,.69-.69V31.21Z"/><circle class="cls-1" cx="14.52" cy="9.08" r="0.69"/><circle class="cls-1" cx="14.52" cy="29.83" r="0.69"/><circle class="cls-1" cx="14.52" cy="33.97" r="0.69"/><path class="cls-1" d="M14.52,38.82h-.69v-.7a.69.69,0,0,0-1.38,0v1.39a.69.69,0,0,0,.69.69h1.38a.69.69,0,0,0,0-1.38Z"/><path class="cls-1" d="M15.91,1.47h4.84v.69a.69.69,0,0,0,1.38,0V1.47h.69a.69.69,0,0,0,0-1.38H15.91a.69.69,0,1,0,0,1.38Z"/><circle class="cls-1" cx="15.91" cy="7.7" r="0.69"/><circle class="cls-1" cx="15.91" cy="10.46" r="0.69"/><path class="cls-1" d="M15.91,33.28a.69.69,0,0,0,.69-.69V31.9h2.07a.69.69,0,1,0,0-1.38H18v-.69a.69.69,0,1,0-1.38,0v.69h-.69a.69.69,0,0,0-.7.69v1.38A.69.69,0,0,0,15.91,33.28Z"/><circle class="cls-1" cx="17.29" cy="9.08" r="0.69"/><path class="cls-1" d="M17.29,13.92h1.38a.69.69,0,0,0,0-1.38H17.29a.69.69,0,0,0,0,1.38Z"/><circle class="cls-1" cx="17.29" cy="38.12" r="0.69"/><circle class="cls-1" cx="18.67" cy="3.55" r="0.69"/><circle class="cls-1" cx="18.67" cy="10.46" r="0.69"/><path class="cls-1" d="M20.06,7a.69.69,0,0,0,0-1.38H18V4.93a.69.69,0,0,0-.69-.69H16.6V3.55a.7.7,0,1,0-1.39,0v.69H13.14a.69.69,0,0,0-.69.69V6.31a.69.69,0,1,0,1.38,0V5.62H16.6v.69a.69.69,0,0,0,.69.69h2.77Z"/><circle class="cls-1" cx="20.06" cy="9.08" r="0.69"/><circle class="cls-1" cx="20.06" cy="29.83" r="0.69"/><circle class="cls-1" cx="21.44" cy="4.93" r="0.69"/><circle class="cls-1" cx="21.44" cy="7.7" r="0.69"/><path class="cls-1" d="M21.44,12.54h1.38a.7.7,0,0,0,0-1.39h-.69v-.69a.69.69,0,1,0-1.38,0v1.38A.69.69,0,0,0,21.44,12.54Z"/><path class="cls-1" d="M21.44,34.67H15.91a.69.69,0,1,0,0,1.38h3.45v.69a.7.7,0,0,0,1.39,0v-.69h.69a.69.69,0,0,0,0-1.38Z"/><path class="cls-1" d="M21.44,38.82H18.67a.69.69,0,0,0,0,1.38h2.77a.69.69,0,0,0,0-1.38Z"/><circle class="cls-1" cx="22.82" cy="9.08" r="0.69"/><circle class="cls-1" cx="24.2" cy="4.93" r="0.69"/><path class="cls-1" d="M24.2,15.3a.69.69,0,0,0,.7-.69V13.23a.7.7,0,0,0-1.39,0v1.38A.69.69,0,0,0,24.2,15.3Z"/><circle class="cls-1" cx="24.2" cy="28.44" r="0.69"/><path class="cls-1" d="M24.2,33.28a.69.69,0,1,0,0-1.38h-.69v-.69a.69.69,0,0,0-.69-.69H21.44a.69.69,0,1,0,0,1.38h.69v.69a.69.69,0,0,0,.69.69H24.2Z"/><path class="cls-1" d="M24.2,34.67a.69.69,0,0,0-.69.69v1.38a.7.7,0,0,0,1.39,0V35.36A.69.69,0,0,0,24.2,34.67Z"/><path class="cls-1" d="M25.59,2.85a.69.69,0,0,0,.69-.69V.78a.69.69,0,0,0-1.38,0V2.16A.69.69,0,0,0,25.59,2.85Z"/><circle class="cls-1" cx="25.59" cy="15.99" r="0.69"/><path class="cls-1" d="M25.59,38.82H24.2a.69.69,0,1,0,0,1.38h1.39a.69.69,0,1,0,0-1.38Z"/><path class="cls-1" d="M26.28,7h-.69a.69.69,0,0,0-.69.7V9.77h-.7a.69.69,0,1,0,0,1.38h3.46v.69a.69.69,0,0,0,.69.7h1.39a.7.7,0,0,0,0-1.39h-.69V9.08a.7.7,0,0,0-1.39,0v.69H26.28V8.39H27a.69.69,0,0,0,.69-.69V7h.69a.69.69,0,1,0,0-1.38H27a.69.69,0,0,0-.69.69Z"/><circle class="cls-1" cx="26.97" cy="14.61" r="0.69"/><circle class="cls-1" cx="26.97" cy="38.12" r="0.69"/><path class="cls-1" d="M28.35,4.24a.69.69,0,0,0,.7-.69V.78a.7.7,0,0,0-1.39,0V3.55A.69.69,0,0,0,28.35,4.24Z"/><path class="cls-1" d="M29.05,23.6v.69a.69.69,0,1,0,1.38,0V22.22h.69a.7.7,0,0,0,0-1.39h-.69V18.07h1.38v2.07a.7.7,0,0,0,1.39,0V13.23a.69.69,0,0,0-.7-.69H31.12a.69.69,0,0,0-.69.69v.69h-.69a.69.69,0,0,0,0,1.38h2.07v1.39H29.05V16a.7.7,0,0,0-1.39,0v2.08H27a.69.69,0,0,0-.69.69v.69h-.69a.69.69,0,1,0,0,1.38h.69v1.39H22.82a.69.69,0,0,0-.69.69v4.15a.69.69,0,1,0,1.38,0V23.6H24.9v.69a.69.69,0,0,0,1.38,0V23.6H27a.69.69,0,0,0,.69-.69V20.83h1.39V23.6Z"/><circle class="cls-1" cx="31.12" cy="31.21" r="0.69"/><circle class="cls-1" cx="33.89" cy="21.53" r="0.69"/><circle class="cls-1" cx="35.27" cy="18.76" r="0.69"/><path class="cls-1" d="M36.65,23.6H32.5a.69.69,0,0,0,0,1.38h4.15a.69.69,0,1,0,0-1.38Z"/><circle class="cls-1" cx="36.65" cy="29.83" r="0.69"/><path class="cls-1" d="M36.65,34.67a.7.7,0,0,0,0-1.39H36v-.69a.69.69,0,0,0-.69-.69h-.69V29.13h.69a.69.69,0,0,0,.69-.69V27.06a.69.69,0,0,0-.69-.69H32.5a.69.69,0,0,0-.69.69v.69H30.43v-.69a.69.69,0,1,0-1.38,0v.69H27.66V26.37h.69a.7.7,0,1,0,0-1.39H27a.69.69,0,0,0-.69.7v.69h-.69a.69.69,0,1,0,0,1.38h.69v7.61a.69.69,0,0,0,.69.69h3.46v2.77h-.69a.69.69,0,0,0,0,1.38h4.15a.69.69,0,0,0,.69-.69v-.69H36v.69a.69.69,0,1,0,1.38,0V36.74a.69.69,0,0,0-.69-.69H36V34.67Zm-6.22-5.54H33.2v4.15H29.05V29.13Zm4.15,6.92v1.38h-.69a.69.69,0,0,0-.69.69v.7H31.81V36.05h.69a.69.69,0,0,0,.7-.69v-.69h1.38Z"/><path class="cls-1" d="M37.34,16a.7.7,0,1,0,1.39,0V13.92h.69a.69.69,0,1,0,0-1.38h-.69v-.7a.69.69,0,0,0-.69-.69H36.65a.69.69,0,0,0-.69.69v.7h-.69a.69.69,0,0,0,0,1.38h2.07V16Z"/><circle class="cls-1" cx="38.04" cy="25.68" r="0.69"/><circle class="cls-1" cx="38.04" cy="31.21" r="0.69"/><path class="cls-1" d="M39.42,18.07a.69.69,0,0,0-.69.69v.69H36.65a.69.69,0,0,0-.69.69v1.39a.69.69,0,1,0,1.38,0v-.7h1.39v.7a.69.69,0,1,0,1.38,0V18.76A.69.69,0,0,0,39.42,18.07Z"/><path class="cls-1" d="M39.42,27.75a.69.69,0,0,0-.69.69v1.39a.69.69,0,1,0,1.38,0V28.44A.69.69,0,0,0,39.42,27.75Z"/><path class="cls-1" d="M39.42,31.9a.69.69,0,0,0-.69.69v2.77a.69.69,0,0,0,1.38,0V32.59A.69.69,0,0,0,39.42,31.9Z"/><circle class="cls-1" cx="39.42" cy="39.51" r="0.69"/><path class="cls-1" d="M.35,6.48l.4.32v.51a1,1,0,0,0,.74.92l.5.12.22.46a1,1,0,0,0,1.07.51l.49-.11.41.31a.93.93,0,0,0,1.18,0l.4-.31.5.11a1,1,0,0,0,1.06-.51l.22-.46L8,8.23a1,1,0,0,0,.74-.92V6.8l.4-.32a1,1,0,0,0,.26-1.15l-.22-.47.22-.46a1,1,0,0,0-.26-1.15l-.4-.32V2.42A1,1,0,0,0,8,1.5l-.5-.12L7.32.92A1,1,0,0,0,6.26.41l-.5.11L5.36.2A1,1,0,0,0,4.18.2L3.77.52,3.28.41A1,1,0,0,0,2.21.92L2,1.38l-.5.12a1,1,0,0,0-.74.92v.51l-.4.32A1,1,0,0,0,.09,4.4l.22.46-.22.47A1,1,0,0,0,.35,6.48Zm1.11-2-.18-.39.33-.27A1,1,0,0,0,2,3.06V2.63l.42-.1A.94.94,0,0,0,3,2l.19-.39.42.09a1,1,0,0,0,.8-.18l.34-.26.33.26a1,1,0,0,0,.8.18l.42-.09L6.51,2a.93.93,0,0,0,.64.5l.41.1v.43a1,1,0,0,0,.35.74l.33.27-.18.39a1,1,0,0,0,0,.81l.18.39-.33.27a1,1,0,0,0-.35.74v.42l-.41.1a1,1,0,0,0-.64.51l-.19.39L5.9,8a1,1,0,0,0-.8.19l-.33.26-.34-.26A1,1,0,0,0,3.63,8l-.42.1L3,7.7a1,1,0,0,0-.63-.51L2,7.09V6.67a1,1,0,0,0-.36-.74l-.33-.27.18-.39A1,1,0,0,0,1.46,4.46Z"/><path class="cls-1" d="M3.05,5.24a.23.23,0,0,1,0,.16l0,.31a.19.19,0,0,0,.12.21L3.45,6a.18.18,0,0,1,.12.12l.11.29a.2.2,0,0,0,.21.12l.31,0a.23.23,0,0,1,.16,0l.24.2a.2.2,0,0,0,.25,0l.24-.2a.2.2,0,0,1,.15,0l.31,0a.2.2,0,0,0,.21-.12l.12-.29A.19.19,0,0,1,6,6l.29-.11a.18.18,0,0,0,.12-.21L6.35,5.4a.24.24,0,0,1,.05-.16L6.59,5a.2.2,0,0,0,0-.25L6.4,4.51a.21.21,0,0,1-.05-.15l.05-.31a.2.2,0,0,0-.12-.22L6,3.72a.2.2,0,0,1-.11-.11l-.12-.29a.18.18,0,0,0-.21-.12l-.31,0a.17.17,0,0,1-.15,0L4.85,3A.2.2,0,0,0,4.6,3l-.24.19a.19.19,0,0,1-.16,0l-.31,0a.18.18,0,0,0-.21.12l-.11.29a.19.19,0,0,1-.12.11l-.29.11A.21.21,0,0,0,3,4.05l0,.31a.2.2,0,0,1,0,.15l-.2.24a.2.2,0,0,0,0,.25Z"/><path class="cls-1" d="M30.78,6.48l.4.32v.51a1,1,0,0,0,.74.92l.5.12.22.46a1,1,0,0,0,1.06.51l.5-.11.4.31a.93.93,0,0,0,1.18,0l.41-.31.5.11a1,1,0,0,0,1.06-.51L38,8.35l.5-.12a1,1,0,0,0,.74-.92V6.8l.4-.32a1,1,0,0,0,.26-1.15l-.22-.47.22-.46a1,1,0,0,0-.26-1.15l-.4-.32V2.42a1,1,0,0,0-.74-.92L38,1.38,37.75.92A1,1,0,0,0,36.69.41l-.5.11L35.78.2A1,1,0,0,0,34.6.2l-.4.32L33.7.41a1,1,0,0,0-1.06.51l-.22.46-.5.12a1,1,0,0,0-.74.92v.51l-.4.32a1,1,0,0,0-.26,1.15l.22.46-.22.47A1,1,0,0,0,30.78,6.48Zm1.11-2-.18-.39L32,3.8a1,1,0,0,0,.35-.74V2.63l.42-.1a.94.94,0,0,0,.63-.5l.19-.39.42.09a1,1,0,0,0,.8-.18l.33-.26.34.26a1,1,0,0,0,.8.18l.42-.09.19.39a.94.94,0,0,0,.63.5l.42.1v.43a1,1,0,0,0,.35.74l.33.27-.18.39a1,1,0,0,0,0,.81l.18.39-.33.27a1,1,0,0,0-.35.74v.42l-.42.1a1,1,0,0,0-.63.51l-.19.39L36.33,8a1,1,0,0,0-.8.19l-.34.26-.33-.26a1,1,0,0,0-.8-.19l-.42.1-.19-.39a1,1,0,0,0-.63-.51l-.42-.1V6.67A1,1,0,0,0,32,5.93l-.33-.27.18-.39A1,1,0,0,0,31.89,4.46Z"/><path class="cls-1" d="M33.48,5.24a.23.23,0,0,1,0,.16l-.05.31a.18.18,0,0,0,.12.21l.29.11a.2.2,0,0,1,.12.12l.11.29a.2.2,0,0,0,.21.12l.31,0a.2.2,0,0,1,.15,0l.25.2a.18.18,0,0,0,.24,0l.25-.2a.2.2,0,0,1,.15,0l.31,0a.2.2,0,0,0,.21-.12l.11-.29A.2.2,0,0,1,36.42,6l.29-.11a.18.18,0,0,0,.12-.21l0-.31a.23.23,0,0,1,0-.16L37,5a.2.2,0,0,0,0-.25l-.2-.24a.2.2,0,0,1,0-.15l0-.31a.2.2,0,0,0-.12-.22l-.29-.11a.22.22,0,0,1-.12-.11l-.11-.29A.18.18,0,0,0,36,3.2l-.31,0a.17.17,0,0,1-.15,0L35.27,3A.18.18,0,0,0,35,3l-.25.19a.17.17,0,0,1-.15,0l-.31,0a.18.18,0,0,0-.21.12L34,3.61a.22.22,0,0,1-.12.11l-.29.11a.2.2,0,0,0-.12.22l.05.31a.2.2,0,0,1,0,.15l-.2.24a.2.2,0,0,0,0,.25Z"/><path class="cls-1" d="M9.18,33.68l-.4-.32v-.51A1,1,0,0,0,8,31.93l-.5-.12-.22-.46a.94.94,0,0,0-1.06-.51l-.5.11-.4-.32a1,1,0,0,0-1.18,0L3.77,31l-.49-.11a1,1,0,0,0-1.07.51L2,31.81l-.5.12a1,1,0,0,0-.74.92v.51l-.4.32a1,1,0,0,0-.26,1.15l.22.46-.22.46A1,1,0,0,0,.35,36.9l.4.33v.51a1,1,0,0,0,.74.92l.5.12.22.46a1,1,0,0,0,1.07.51l.49-.11.41.31a1,1,0,0,0,1.18,0l.4-.31.5.11a1,1,0,0,0,1.06-.51l.22-.46.5-.12a1,1,0,0,0,.74-.92v-.51l.4-.33a1,1,0,0,0,.26-1.15l-.22-.46.22-.46A1,1,0,0,0,9.18,33.68Zm-1.11,2,.18.39-.33.27a1,1,0,0,0-.35.73v.43l-.41.1a1,1,0,0,0-.64.51l-.19.39-.42-.1a1,1,0,0,0-.8.19l-.33.26-.34-.26a1,1,0,0,0-.8-.19l-.42.1L3,38.13a1,1,0,0,0-.63-.51L2,37.52v-.43a1,1,0,0,0-.36-.73l-.33-.27.18-.39a1,1,0,0,0,0-.82l-.18-.38.33-.27A1,1,0,0,0,2,33.49v-.43l.42-.1A.92.92,0,0,0,3,32.45l.19-.38.42.09a1,1,0,0,0,.8-.18l.34-.26L5.1,32a1,1,0,0,0,.8.18l.42-.09.19.38a.92.92,0,0,0,.64.51l.41.1v.43a1,1,0,0,0,.35.74l.33.27-.18.38A1,1,0,0,0,8.07,35.7Z"/><path class="cls-1" d="M6.4,34.94a.21.21,0,0,1-.05-.15l.05-.31a.2.2,0,0,0-.12-.22L6,34.15A.2.2,0,0,1,5.88,34l-.12-.29a.2.2,0,0,0-.21-.13l-.31.05a.17.17,0,0,1-.15,0l-.24-.19a.2.2,0,0,0-.25,0l-.24.19a.19.19,0,0,1-.16,0l-.31-.05a.2.2,0,0,0-.21.13L3.57,34a.19.19,0,0,1-.12.11l-.29.11a.21.21,0,0,0-.12.22l0,.31a.2.2,0,0,1,0,.15l-.2.24a.2.2,0,0,0,0,.25l.2.24a.23.23,0,0,1,0,.16l0,.3a.2.2,0,0,0,.12.22l.29.11a.19.19,0,0,1,.12.11l.11.29a.2.2,0,0,0,.21.13l.31-.05a.23.23,0,0,1,.16,0l.24.2a.2.2,0,0,0,.25,0l.24-.2a.2.2,0,0,1,.15,0l.31.05a.2.2,0,0,0,.21-.13l.12-.29A.2.2,0,0,1,6,36.46l.29-.11a.19.19,0,0,0,.12-.22l-.05-.3a.24.24,0,0,1,.05-.16l.19-.24a.2.2,0,0,0,0-.25Z"/></g></g></svg>